<svg width="3393" height="1427" viewBox="0 0 3393 1427" fill="none" xmlns="http://www.w3.org/2000/svg">
<path d="M581.635 1422.17C513.861 1420.28 436.598 1418.41 409.937 1418.03C368.498 1417.44 362.803 1416.36 370.703 1410.58C381.835 1402.44 379.651 1384.76 367.218 1382.36C360.173 1381.01 358.291 1384.27 358.291 1397.84C358.291 1414.51 357.697 1415 339.038 1413.82C328.448 1413.15 275.901 1409.96 222.265 1406.73C111.796 1400.08 5.77768 1390 1.51085 1385.73C-3.13715 1381.08 3.45683 1368.82 14.2156 1362.1C29.2851 1352.69 358.291 1359.66 358.291 1369.39C358.291 1378.8 368.693 1378.04 375.967 1368.09C380.691 1361.63 386.984 1360.68 406.057 1363.54C419.321 1365.53 430.172 1369.21 430.172 1371.71C430.172 1377.74 444.24 1377.59 446.431 1371.53C451.582 1357.28 2187.53 1351.83 2767.57 1364.24L2925.45 1367.61V1389.91C2925.45 1409.18 2926.92 1412.2 2936.3 1412.2C2946.26 1412.2 2946.87 1410.29 2943.69 1389.1L2940.23 1365.99H2969.09H2997.96L2994.5 1389.1C2991.33 1410.22 2991.95 1412.2 3001.77 1412.2C3011.21 1412.2 3012.39 1409.43 3011.52 1389.35C3010.97 1376.78 3011.6 1365.55 3012.91 1364.39C3014.23 1363.23 3095.21 1360.86 3192.87 1359.11C3366.14 1356.01 3370.7 1356.19 3381.55 1366.3C3404.9 1388.05 3402.16 1388.92 3279.72 1398.97C3138.1 1410.59 3010.66 1416.85 2802.23 1422.42C2596.95 1427.9 779.79 1427.7 581.635 1422.17V1422.17ZM440.441 1404.92C440.441 1400.92 441.843 1393.98 443.557 1389.52C445.791 1383.7 443.612 1381.4 435.856 1381.4C427.259 1381.4 425.038 1384.56 425.038 1396.8C425.038 1407.07 427.605 1412.2 432.739 1412.2C436.975 1412.2 440.441 1408.92 440.441 1404.92V1404.92ZM176.023 1350.31C113.898 1348.36 59.0249 1346.46 54.0829 1346.11C46.2869 1345.54 45.0978 1339.72 45.0978 1302.13V1258.8L66.9187 1255.94C95.0958 1252.25 329.704 1237.64 360.876 1237.64H384.708L374.066 1251.17C368.214 1258.61 363.426 1267.85 363.426 1271.7C363.426 1275.56 361.115 1278.71 358.291 1278.71C355.468 1278.71 353.157 1281.02 353.157 1283.85C353.157 1295.91 371.726 1287.47 378.829 1272.18C384.359 1260.28 390.544 1255.15 400.765 1253.97C412.867 1252.58 416.145 1255.08 422.654 1270.66C426.864 1280.74 433.744 1288.98 437.942 1288.98C442.14 1288.98 445.575 1287.73 445.575 1286.21C445.575 1278.38 424.006 1242.71 416.847 1238.7C408.35 1233.94 438.008 1232.13 686.888 1222.19C874.45 1214.69 1258.04 1206.92 1442.92 1206.88L1605.93 1206.83V1253.04V1299.25H1621.34H1636.74V1239.39V1179.54L1329.96 1183.04C816.6 1188.9 379.613 1206.34 86.7393 1232.66C34.333 1237.37 18.4082 1236.8 24.9883 1230.43C29.4003 1226.17 121.399 1217.15 129.353 1220.2C133.914 1221.95 140.505 1221.05 143.999 1218.2C147.493 1215.35 173.456 1211.5 201.695 1209.64C229.934 1207.79 269.211 1204.04 288.978 1201.31C308.745 1198.58 345.713 1195.48 371.127 1194.42C396.543 1193.35 443.906 1189.86 476.381 1186.65C508.856 1183.44 547.556 1182.31 562.381 1184.15C579.051 1186.21 589.336 1185.53 589.336 1182.37C589.336 1174.39 757.106 1168.25 766.318 1175.9C773.588 1181.93 794.621 1178.69 799.843 1170.73C804.299 1163.94 1015.48 1158.4 1015.48 1165.08C1015.48 1168.44 1024.15 1170.89 1036.02 1170.89C1050.85 1170.89 1056.56 1168.75 1056.56 1163.19C1056.56 1156.67 1068.98 1155.49 1137.42 1155.47C1181.9 1155.45 1244.28 1153.94 1276.05 1152.11C1327.69 1149.14 1333.81 1149.69 1333.81 1157.27C1333.81 1163.91 1338.85 1165.76 1356.92 1165.76C1374.03 1165.76 1380.02 1163.76 1380.02 1158.06C1380.02 1151.55 1393.6 1150.19 1467.31 1149.33C1515.31 1148.76 1563.25 1148.19 1573.84 1148.04C1589.99 1147.83 1593.36 1149.65 1594.74 1159.34C1596.11 1169.04 1599.55 1170.89 1616.15 1170.89C1633.75 1170.89 1636.28 1169.27 1639.16 1156.13C1642.98 1138.75 1658.97 1122.51 1680.18 1114.47C1692.27 1109.89 1699.82 1110.41 1717.09 1117.01C1735.23 1123.93 1740.24 1129.05 1747.52 1148.1C1755.7 1169.53 1757.38 1170.89 1775.71 1170.89C1792 1170.89 1795.46 1169 1796.83 1159.34L1798.47 1147.79L1898.59 1149.74C1976.35 1151.26 1999.62 1153.26 2002.81 1158.72C2008.74 1168.87 2052.62 1168.33 2052.62 1158.11C2052.62 1151.45 2070.03 1150.86 2187.39 1153.59C2292.97 1156.03 2323.4 1158.25 2327.87 1163.8C2334.74 1172.35 2370.95 1173.39 2370.95 1165.03C2370.95 1158.27 2582.1 1163.78 2586.57 1170.66C2591.79 1178.7 2612.81 1181.96 2620.16 1175.86C2629.14 1168.41 2790.24 1174.23 2795.16 1182.19C2796.93 1185.05 2810.52 1185.89 2827.19 1184.15C2843.11 1182.49 2881.55 1183.51 2912.62 1186.42C2943.68 1189.33 2992.08 1192.77 3020.17 1194.07C3048.26 1195.36 3083.98 1198.77 3099.55 1201.65C3115.11 1204.53 3151.75 1207.97 3180.97 1209.3C3210.18 1210.63 3236.79 1213.39 3240.11 1215.43C3243.42 1217.48 3260.04 1219.54 3277.04 1220.02C3323.9 1221.32 3367.01 1227.92 3367.01 1233.8C3367.01 1237.11 3357.03 1237.89 3340.05 1235.92C3312.11 1232.67 3059.21 1214.8 2969.09 1209.7C2716.45 1195.43 2447.64 1187.54 2061.6 1183.07L1754.83 1179.52V1239.39V1299.25H1770.23H1785.63V1253.04V1206.83L1943.51 1206.89C2229.12 1207 2952.33 1226.86 2960.28 1234.81C2961.38 1235.91 2957.27 1239.48 2951.16 1242.75C2945.05 1246.02 2937.69 1255.45 2934.81 1263.71C2931.94 1271.96 2927.5 1278.71 2924.95 1278.71C2922.4 1278.71 2920.32 1282.18 2920.32 1286.41C2920.32 1290.65 2924.76 1294.11 2930.18 1294.11C2936.97 1294.11 2941.1 1289.3 2943.43 1278.67C2950.26 1247.59 2982.28 1246.09 2992.28 1276.39C2997.6 1292.51 3012.74 1301.64 3012.74 1288.72C3012.74 1278.76 2996.32 1250.55 2985.23 1241.44C2974.39 1232.55 2974.53 1232.45 2994.77 1234.83C3006.06 1236.16 3043.03 1238.5 3076.92 1240.04C3159.24 1243.77 3297.55 1252.74 3324.65 1256.1L3346.47 1258.8V1301.65V1344.5L3298.97 1347.4C3272.85 1348.99 3197.89 1351.66 3132.39 1353.33L3013.29 1356.36L3011.73 1329.49C3009.51 1291.21 2997.33 1289.15 2997.33 1327.06V1355.72H2969.09H2940.86V1327.49C2940.86 1305.81 2939.07 1299.25 2933.15 1299.25C2927.22 1299.25 2925.45 1305.9 2925.45 1328.33V1357.4L2640.5 1354L2070.59 1347.18L1785.63 1343.78V1324.08C1785.63 1305.93 1784.5 1304.38 1771.26 1304.38C1753.01 1304.38 1744.56 1312.84 1744.56 1331.08V1345.46H1695.78H1647.01V1331.08C1647.01 1312.84 1638.55 1304.38 1620.31 1304.38C1607.03 1304.38 1605.93 1305.91 1605.93 1324.3V1344.22L1232.41 1348.69C1026.97 1351.15 765.315 1353.16 650.948 1353.16H443.008L443.726 1326.2C444.257 1306.27 442.585 1299.25 437.308 1299.25C432.081 1299.25 430.172 1306.8 430.172 1327.49V1355.72H401.933H373.694V1327.49C373.694 1305.81 371.906 1299.25 365.993 1299.25C360.081 1299.25 358.291 1305.81 358.291 1327.49V1355.72L323.635 1354.79C304.573 1354.28 238.149 1352.26 176.023 1350.31V1350.31ZM30.4957 1245.39C37.698 1238.19 470.624 1211.26 727.963 1202.01C1057.18 1190.17 1605.93 1183.24 1605.93 1190.92C1605.93 1194.76 1581.76 1196.59 1530.2 1196.66C1380.42 1196.85 855.984 1206.72 717.694 1211.95C534.608 1218.87 302.061 1230.78 163.657 1240.33C44.48 1248.54 26.6659 1249.22 30.4957 1245.39V1245.39ZM3259.18 1242.47C3010.2 1222.07 2533.86 1204.84 2052.62 1198.84C1907.19 1197.02 1787.24 1194.61 1786.06 1193.48C1784.88 1192.35 1785.3 1190.06 1786.98 1188.38C1791.01 1184.35 2500.34 1195.16 2671.3 1201.86C2922.03 1211.68 3269.3 1232.95 3336.2 1242.59L3364.44 1246.65L3336.2 1246.56C3320.67 1246.51 3286.01 1244.67 3259.18 1242.47V1242.47ZM45.0978 1212.6C45.0978 1204.36 57.6792 1198 81.038 1194.45C93.7454 1192.52 109.341 1189.64 115.695 1188.06C125.33 1185.66 127.247 1187.28 127.247 1197.84C127.247 1209.57 124.92 1210.75 95.6882 1213.8C53.8349 1218.18 45.0978 1217.97 45.0978 1212.6V1212.6ZM3297.69 1213.64C3265.81 1209.66 3259.18 1206.7 3259.18 1196.47C3259.18 1183.34 3264.21 1183.53 3340.05 1199.47C3346.4 1200.8 3351.6 1205.32 3351.6 1209.5C3351.6 1217.13 3335.54 1218.36 3297.69 1213.64ZM147.784 1195.03C147.784 1183.25 150.365 1182.03 186.502 1176.65C242.067 1168.39 245.336 1168.76 245.336 1183.32C245.336 1197.24 240.539 1198.85 182.441 1204.36C148.163 1207.61 147.784 1207.51 147.784 1195.03ZM3220.68 1204.24C3217.85 1203.26 3197.64 1200.93 3175.75 1199.07L3135.96 1195.69V1180.32C3135.96 1166.31 3137.22 1165.18 3150.08 1167.64C3157.85 1169.13 3174.6 1171.75 3187.3 1173.46C3235.6 1179.98 3238.65 1181.22 3238.65 1194.4C3238.65 1205.91 3233.54 1208.7 3220.68 1204.24ZM271.008 1181.92C271.008 1169.3 273.516 1166.06 285.127 1163.7C296.215 1161.44 381.422 1150.36 387.679 1150.36C388.459 1150.36 389.097 1158.17 389.097 1167.72V1185.07L339.038 1188.58C311.505 1190.51 284.935 1193.25 279.993 1194.67C272.864 1196.72 271.008 1194.09 271.008 1181.92V1181.92ZM47.6649 1187.25C50.4892 1184.33 82.8352 1176.04 119.545 1168.82C156.256 1161.6 197.844 1153.41 211.963 1150.62L237.635 1145.54L209.396 1148.28C182.479 1150.89 69.5321 1172.47 49.4713 1178.84C37.402 1182.67 36.9833 1172.82 48.9459 1166.53C58.9604 1161.27 177.812 1139.4 260.737 1127.56C813.218 1048.69 1686.31 1024.14 2458.23 1065.78C2774.65 1082.84 3027.41 1107.49 3220.67 1140.12C3338.76 1160.05 3360.55 1165.18 3363.85 1173.8C3365.41 1177.85 3364.31 1181.16 3361.4 1181.16C3358.5 1181.16 3357.56 1183.47 3359.3 1186.3C3363.94 1193.8 3353.7 1192.83 3275.71 1178.36C3003.06 1127.79 2562.96 1098.21 1966.62 1090.39C1760.62 1087.69 1713.75 1085.8 1713.75 1080.21C1713.75 1074.6 1753.02 1073.19 1928.11 1072.5L2142.47 1071.67L1920.65 1067.02C1788.22 1064.24 1611.32 1064.25 1481.66 1067.02L1264.5 1071.67L1471.15 1072.51C1651.05 1073.23 1677.81 1074.34 1677.81 1081.04C1677.81 1087.69 1659.96 1088.75 1548.17 1088.79C1400.36 1088.83 1090.96 1096.38 912.796 1104.3C588.711 1118.69 333.683 1142.24 152.916 1174.47C52.6402 1192.34 41.4069 1193.7 47.6623 1187.25H47.6649ZM3351 1178.85C3347.54 1175.39 3220.89 1150.28 3209.76 1150.85C3204.47 1151.12 3230.17 1157.7 3266.89 1165.48C3334.25 1179.75 3355.23 1183.08 3351 1178.85V1178.85ZM3161.63 1142.42C3140.45 1138.77 3106.95 1134.53 3087.18 1132.98C3060.44 1130.9 3066.35 1132.59 3110.29 1139.59C3142.76 1144.76 3176.26 1149.01 3184.74 1149.03C3193.21 1149.05 3182.81 1146.08 3161.63 1142.42ZM309.515 1137.36L355.724 1130.39L317.217 1133.13C296.038 1134.64 269.468 1137.71 258.172 1139.95C224.207 1146.71 259.314 1144.94 309.515 1137.36ZM511.833 1116.95C589.758 1109.87 678.93 1101.92 709.993 1099.28L766.47 1094.47L707.426 1096.82C642.699 1099.41 362.175 1124.22 358.727 1127.67C355.366 1131.03 361.587 1130.6 511.833 1116.95V1116.95ZM3039.69 1126.2C3033.34 1124.97 3022.94 1124.97 3016.59 1126.2C3010.23 1127.42 3015.43 1128.42 3028.14 1128.42C3040.85 1128.42 3046.05 1127.42 3039.69 1126.2ZM2974.23 1119.31C2957.29 1117.09 2920.32 1114.1 2892.08 1112.66L2840.74 1110.04L2899.78 1116.61C2967.53 1124.14 3027.92 1126.33 2974.23 1119.31V1119.31ZM2826.71 1105.61C2818.99 1104.44 2805.13 1104.42 2795.9 1105.56C2786.68 1106.7 2792.99 1107.66 2809.93 1107.69C2826.87 1107.72 2834.42 1106.78 2826.71 1105.61V1105.61ZM2762.44 1100.43C2753.26 1099.29 2738.24 1099.29 2729.06 1100.43C2719.89 1101.57 2727.4 1102.5 2745.75 1102.5C2764.11 1102.5 2771.62 1101.57 2762.44 1100.43ZM2693.01 1095.27C2682.36 1094.16 2666.18 1094.17 2657.07 1095.31C2647.96 1096.44 2656.67 1097.35 2676.44 1097.33C2696.21 1097.31 2703.66 1096.38 2693.01 1095.27V1095.27ZM831.933 1090.12C819.931 1089.04 800.293 1089.04 788.291 1090.12C776.29 1091.2 786.109 1092.09 810.112 1092.09C834.115 1092.09 843.934 1091.2 831.933 1090.12V1090.12ZM2616.11 1090.14C2605.52 1089.03 2588.19 1089.03 2577.6 1090.14C2567.01 1091.25 2575.68 1092.16 2596.86 1092.16C2618.04 1092.16 2626.7 1091.25 2616.11 1090.14ZM926.918 1084.97C913.505 1083.92 891.555 1083.92 878.142 1084.97C864.728 1086.03 875.703 1086.9 902.53 1086.9C929.356 1086.9 940.331 1086.03 926.918 1084.97V1084.97ZM2529 1084.98C2515.68 1083.93 2492.58 1083.91 2477.66 1084.95C2462.74 1085.99 2473.63 1086.85 2501.87 1086.87C2530.11 1086.88 2542.32 1086.03 2529 1084.98V1084.98ZM1045.01 1079.82C1028.77 1078.8 1002.2 1078.8 985.963 1079.82C969.725 1080.84 983.01 1081.67 1015.48 1081.67C1047.96 1081.67 1061.24 1080.84 1045.01 1079.82ZM2415.87 1079.82C2399.63 1078.8 2373.06 1078.8 2356.83 1079.82C2340.59 1080.84 2353.87 1081.67 2386.35 1081.67C2418.82 1081.67 2432.11 1080.84 2415.87 1079.82ZM1217.01 1074.66C1193.71 1073.71 1155.59 1073.71 1132.29 1074.66C1108.99 1075.61 1128.06 1076.39 1174.65 1076.39C1221.24 1076.39 1240.3 1075.61 1217.01 1074.66ZM2274.68 1074.66C2251.38 1073.71 2213.26 1073.71 2189.96 1074.66C2166.66 1075.61 2185.73 1076.39 2232.32 1076.39C2278.91 1076.39 2297.97 1075.61 2274.68 1074.66ZM3030.71 1186.72C3000.13 1183.75 2999.89 1183.6 2998.24 1166.33L2996.58 1148.93L3021.34 1152.08C3034.96 1153.81 3061.71 1156.76 3080.77 1158.63C3114.68 1161.97 3115.42 1162.36 3115.42 1176.74C3115.42 1191.15 3114.91 1191.41 3088.47 1190.57C3073.64 1190.09 3047.65 1188.36 3030.71 1186.72ZM415.68 1165.11C417.526 1145.8 412.757 1147.05 518.739 1137.95L558.53 1134.53V1152.13C558.53 1168.95 557.57 1169.86 536.709 1172.65C524.708 1174.26 492.194 1177.12 464.456 1179L414.023 1182.44L415.68 1165.11ZM2928.02 1178.16C2922.37 1177.28 2897.53 1175.08 2872.83 1173.27L2827.9 1169.97V1151.76V1133.54L2867.69 1136.92C2969.54 1145.59 2965.31 1144.45 2967.57 1163.8C2969.5 1180.29 2968.82 1181.13 2953.94 1180.46C2945.33 1180.08 2933.67 1179.04 2928.02 1178.16V1178.16ZM590.279 1152.15L591.903 1132.39L640.679 1128.91C667.506 1127 706.206 1124.14 726.679 1122.56L763.903 1119.68V1139.58V1159.48L695.873 1162.83C658.457 1164.67 619.026 1167.47 608.249 1169.05L588.655 1171.91L590.279 1152.15ZM2705.96 1163.85L2622.53 1159.26V1139.22V1119.18L2670.02 1122.53C2798.46 1131.58 2794.34 1130.78 2796.21 1147.13C2797.14 1155.24 2795.98 1163.35 2793.65 1165.16C2791.31 1166.96 2751.85 1166.37 2705.96 1163.85V1163.85ZM799.843 1137.93V1120.37L831.933 1117.54C849.582 1115.99 898.101 1113.3 939.754 1111.57L1015.48 1108.42V1128.59V1148.75L937.653 1152.12C894.846 1153.98 846.327 1155.49 829.832 1155.49H799.843V1137.93ZM2426.14 1151.66L2370.95 1150.01V1129.06V1108.11L2454.38 1111.44C2500.27 1113.27 2548.79 1116.06 2562.2 1117.64C2585.96 1120.44 2586.59 1120.97 2586.59 1138V1155.49L2533.96 1154.4C2505.02 1153.8 2456.5 1152.57 2426.14 1151.66V1151.66ZM1058.68 1145.65C1057.52 1144.47 1056.56 1136.13 1056.56 1127.11C1056.56 1111.16 1057.3 1110.63 1083.51 1107.48C1098.34 1105.7 1160.72 1104.22 1222.14 1104.19L1333.81 1104.15V1122.12C1333.81 1139.35 1333.02 1140.12 1314.56 1140.72C1183.92 1144.98 1060.38 1147.36 1058.68 1145.65V1145.65ZM56.5324 1043.82L57.6983 942.421L59.2105 1041.32L60.7227 1140.23L74.7311 1136.87C93.7684 1132.3 93.3333 1133.19 91.8896 1102.02C91.1733 1086.55 93.0235 1072.89 96.092 1070.99C99.7203 1068.75 101.575 1076.97 101.575 1095.29C101.575 1110.52 102.717 1124.12 104.113 1125.51C105.509 1126.91 113.596 1127.03 122.083 1125.79C137.389 1123.54 137.516 1123.25 137.516 1090.73C137.516 1052.97 147.468 1045.28 148.391 1082.33C148.725 1095.74 148.725 1108.45 148.391 1110.57C148.057 1112.68 155.871 1114.42 165.754 1114.42H183.725V1080.67C183.725 1051.29 184.888 1047.14 192.71 1048.65C199.777 1050.02 201.766 1055.85 202.029 1075.99C202.352 1100.8 202.822 1101.58 217.432 1101.58C232.244 1101.58 232.527 1101.06 234.074 1070.9C235.491 1043.3 240.406 1032.58 251.754 1032.35C253.872 1032.3 255.605 1046.13 255.605 1063.08V1093.88H273.575H291.545V1064.1C291.545 1034.84 297.337 1022 310.542 1022C315.27 1022 317.217 1030.9 317.217 1052.5C317.217 1069.28 318.963 1084.09 321.097 1085.4C323.231 1086.72 331.318 1086.59 339.067 1085.11C352.649 1082.51 353.157 1081.25 353.157 1050.19C353.157 1025.54 355.066 1017.23 361.278 1014.85C381.291 1007.17 383.963 1010.73 383.963 1045.11C383.963 1080.84 385.757 1082.67 413.485 1075.24C424.047 1072.41 425.038 1069.12 425.038 1036.81V1001.46H443.008H460.978V1035.16V1068.86L477.665 1067.25L494.351 1065.64L495.859 1028.42L497.367 991.196H517.68H537.993V1024.88V1058.56L557.247 1056.97L576.5 1055.37L578.008 1018.15L579.517 980.928H594.275C602.392 980.928 612.688 979.526 617.155 977.812C624.122 975.138 625.276 980.247 625.276 1013.75C625.276 1055.72 626.468 1057.16 654.799 1049.57C665.456 1046.72 666.351 1043.54 666.351 1008.57V970.66L683.037 970.59C692.215 970.551 704.923 969.126 711.276 967.424C722.516 964.411 722.828 965.385 722.828 1003.43V1042.54H743.366H763.903V1001.46V960.391L778.022 960.335C785.788 960.302 800.806 958.846 811.396 957.096L830.649 953.913V995.659V1037.4H851.187H871.724V993.764C871.724 951.942 872.206 950.121 883.276 950.078C889.63 950.051 906.958 948.577 921.784 946.796L948.739 943.558V988.209V1032.86L970.56 1031.28L992.38 1029.7L993.853 985.49L995.327 941.277L1026.7 937.999C1043.95 936.196 1065.81 934.72 1075.28 934.72H1092.5V981.477C1092.5 1022 1093.58 1027.82 1100.62 1025.12C1105.09 1023.4 1114.33 1022 1121.16 1022C1133.37 1022 1133.57 1021.24 1133.57 975.794V929.586L1150.26 929.548C1159.44 929.526 1182.54 928.038 1201.6 926.238L1236.26 922.965V972.483V1022H1259.18H1282.1L1283.57 971.942L1285.04 921.883L1345.37 920.436L1405.69 918.99V967.928V1016.87H1428.8H1451.9V965.817V914.768L1516.09 913.191L1580.28 911.615V961.673V1011.73H1605.95H1631.62V960.39V909.047H1695.8H1759.98V960.39V1011.73H1785.65H1811.32V962.957V914.182H1875.5H1939.68V965.524V1016.87H1962.79H1985.89V968.091V919.316L2012.85 919.354C2027.67 919.376 2055.4 920.863 2074.46 922.664L2109.11 925.937V973.969V1022H2132.22H2155.32V975.794V929.586H2182.85C2197.98 929.586 2221.09 931.055 2234.19 932.851L2258.01 936.116V978.52V1020.92L2278.55 1022.88L2299.08 1024.84V982.348V939.854H2324.04C2337.76 939.854 2359.63 941.312 2372.62 943.092L2396.24 946.33L2397.72 988.017L2399.2 1029.7L2421.02 1031.28L2442.85 1032.86V991.492C2442.85 944.624 2439.65 947.053 2492.9 953.45L2519.86 956.687V997.046V1037.4H2540.4H2560.93V998.226V959.048L2580.19 962.23C2590.78 963.98 2605.8 965.438 2613.56 965.469L2627.68 965.526V1004.03V1042.54H2648.22H2668.76V1006C2668.76 970.614 2669.12 969.56 2680.31 972.558C2686.66 974.261 2699.37 975.685 2708.55 975.724L2725.23 975.794V1011.13C2725.23 1043.44 2726.23 1046.74 2736.79 1049.57C2764.67 1057.04 2766.31 1055.3 2766.31 1018.11V983.421L2789.41 985.259L2812.52 987.096V1022.52V1057.94H2833.06H2853.59V1025.72V993.492L2873.91 995.429L2894.22 997.367L2895.73 1031.5L2897.23 1065.64L2913.92 1067.25L2930.61 1068.86V1037.73V1006.6H2948.58H2966.55V1039.37C2966.55 1069.02 2967.65 1072.44 2978.1 1075.24C3005.54 1082.6 3007.62 1080.63 3007.62 1047.33C3007.62 1016.38 3007.71 1016.2 3021.74 1017.81C3035.24 1019.36 3035.93 1020.82 3037.38 1050.98C3038.84 1081.58 3039.34 1082.58 3054.09 1084.75C3062.45 1085.97 3070.43 1085.84 3071.83 1084.44C3073.23 1083.04 3074.37 1069.42 3074.37 1054.16C3074.37 1028.33 3075.16 1026.53 3085.92 1028.06C3096.3 1029.54 3097.63 1032.97 3099 1061.79L3100.53 1093.88H3117.34C3134.03 1093.88 3134.15 1093.69 3135.37 1067.05C3136.76 1036.7 3137.58 1034.95 3148.6 1039.18C3154.41 1041.41 3156.52 1049.75 3156.52 1070.52C3156.52 1096.56 3157.56 1099.08 3169.59 1102.1C3187.07 1106.49 3189.38 1103.11 3189.38 1073.17C3189.38 1052.04 3190.96 1047.67 3198.62 1047.67C3206.57 1047.67 3207.86 1052.33 3207.86 1081.05V1114.42H3225.07H3242.29L3241.99 1087.81C3241.8 1071.38 3244.05 1060.42 3247.88 1059.15C3252.28 1057.68 3254.07 1066.66 3254.07 1090.3C3254.07 1123.3 3254.17 1123.54 3269.5 1125.79C3277.99 1127.03 3286.07 1126.91 3287.47 1125.51C3288.87 1124.12 3290.01 1110.65 3290.01 1095.59C3290.01 1080.53 3292.32 1068.21 3295.14 1068.21C3298.04 1068.21 3300.28 1082.76 3300.28 1101.58C3300.28 1126.97 3302.02 1134.95 3307.56 1134.95C3311.56 1134.95 3318.44 1136.34 3322.85 1138.03C3329.9 1140.73 3331.04 1129.26 3332.37 1041.76L3333.89 942.421L3335.05 1043.82C3335.88 1115.62 3334.55 1145.22 3330.5 1145.22C3327.35 1145.22 3301.36 1139.71 3272.74 1132.98C3160.05 1106.47 3093.47 1095.63 3090.88 1103.37C3088.24 1111.3 3079.16 1110.97 3080.79 1103.01C3081.59 1099.07 3072.54 1095.5 3056.4 1093.39C3036.35 1090.77 3029.32 1091.8 3024.31 1098.07C3018.48 1105.37 3017.89 1105.37 3017.89 1098.07C3017.89 1093.17 3011.62 1088.78 3001.84 1086.82C2977.89 1082.03 2956.28 1082.94 2956.28 1088.75C2956.28 1091.57 2952.81 1093.88 2948.58 1093.88C2944.34 1093.88 2940.87 1090.72 2940.87 1086.85C2940.87 1082.72 2932.95 1078.51 2921.62 1076.64C2891.74 1071.7 2884.4 1072.68 2884.4 1081.59C2884.4 1087.01 2881.61 1088.77 2876.28 1086.73C2871.81 1085.01 2867.19 1083.61 2866.01 1083.61C2864.83 1083.61 2863.86 1080.15 2863.86 1075.91C2863.86 1070.45 2858.27 1068.19 2844.61 1068.14C2834.02 1068.1 2820.15 1066.68 2813.8 1064.97C2805.31 1062.7 2802.25 1064.08 2802.25 1070.18C2802.25 1075.61 2797.81 1078.48 2789.41 1078.48C2781.94 1078.48 2776.58 1075.53 2776.58 1071.42C2776.58 1064.08 2755.22 1057.94 2729.73 1057.94C2719.7 1057.94 2714.96 1060.54 2714.96 1066.05C2714.96 1072.52 2711.58 1073.43 2698.28 1070.56C2689.1 1068.58 2679.74 1063.78 2677.49 1059.88C2672.67 1051.59 2617.41 1049.8 2617.41 1057.94C2617.41 1060.77 2607.02 1063.08 2594.31 1063.08C2577.19 1063.08 2571.2 1061.08 2571.2 1055.37C2571.2 1049.69 2565.26 1047.67 2548.52 1047.67C2536.04 1047.67 2522.18 1046.27 2517.71 1044.56C2512.38 1042.51 2509.59 1044.28 2509.59 1049.69C2509.59 1056.27 2503.87 1057.94 2481.35 1057.94C2459.67 1057.94 2453.11 1056.15 2453.11 1050.24C2453.11 1044.92 2447.77 1042.54 2435.79 1042.54C2426.25 1042.54 2411.24 1041.09 2402.41 1039.33C2389.28 1036.7 2386.37 1037.77 2386.37 1045.21C2386.37 1053.33 2382.52 1053.97 2350.35 1051.28C2328.05 1049.41 2311.3 1045.21 2306.34 1040.26C2294.78 1028.7 2242.61 1029 2242.61 1040.63C2242.61 1047.93 2237.84 1048.54 2205.38 1045.37C2184.91 1043.38 2167.39 1039.61 2166.45 1037.01C2163.94 1030.07 2093.71 1030.96 2093.71 1037.93C2093.71 1046.24 2005.39 1041.98 2002.57 1033.54C1999.95 1025.68 1929.41 1024.46 1929.41 1032.27C1929.41 1035.37 1908.02 1037.4 1875.5 1037.4C1831 1037.4 1821.59 1036.06 1821.59 1029.7C1821.59 1023.6 1814.21 1022 1785.96 1022C1766.35 1022 1748.89 1024.31 1747.14 1027.14C1745.39 1029.97 1722.38 1032.27 1695.8 1032.27C1669.23 1032.27 1646.21 1029.97 1644.46 1027.14C1640.58 1020.86 1571.55 1020.23 1569.15 1026.44C1566.72 1032.75 1468.29 1037.98 1464.59 1032C1460.16 1024.83 1390.31 1025.76 1390.31 1032.98C1390.31 1037.27 1368.35 1037.85 1308.16 1035.15C1250.59 1032.57 1226.01 1033.13 1226.01 1037.01C1226.01 1040.47 1211.6 1042.54 1187.5 1042.54C1165.25 1042.54 1149 1040.37 1149 1037.4C1149 1029.3 1095.79 1031.28 1084.51 1039.81C1073.45 1048.17 1005.24 1050.94 1005.24 1043.03C1005.24 1037.21 941.691 1042.42 939.345 1048.43C937.24 1053.81 882.008 1054.32 882.018 1048.96C882.018 1043.72 823.661 1047.63 820.246 1053.1C815.747 1060.3 774.19 1065.26 774.19 1058.6C774.19 1049.26 718.061 1051.06 714.434 1060.51C710.943 1069.61 676.638 1071.29 676.638 1062.36C676.638 1055.33 620.282 1059.82 615.506 1067.23C613.83 1069.83 607.26 1073.58 600.907 1075.56C592.073 1078.32 589.355 1077.14 589.355 1070.52C589.355 1064.06 586.435 1062.66 577.803 1064.97C571.449 1066.68 557.586 1068.1 546.997 1068.14C533.336 1068.19 527.743 1070.45 527.743 1075.91C527.743 1080.19 523.179 1083.61 517.474 1083.61C511.826 1083.61 507.206 1081 507.206 1077.82C507.206 1068.82 455.385 1077.37 446.9 1087.76C441.698 1094.14 439.103 1094.74 437.141 1090.03C433.53 1081.36 400.121 1081.95 382.785 1091C375.068 1095.02 367.594 1096.44 366.179 1094.15C362.083 1087.52 315.273 1094.27 308.769 1102.43C304.588 1107.67 302.281 1108.06 300.849 1103.76C297.968 1095.12 234.173 1105.22 121.433 1132.17C91.3986 1139.35 64.2509 1145.22 61.1051 1145.22C57.0552 1145.22 55.7257 1115.62 56.5511 1043.82H56.5324ZM2092.41 1141.41L2052.62 1139.66L2052.61 1120.62V1101.58L2164.29 1102.84C2225.71 1103.54 2288.1 1105.44 2302.92 1107.06C2329.62 1109.99 2329.88 1110.19 2329.88 1127.62V1145.22L2231.04 1144.19C2176.68 1143.62 2114.3 1142.37 2092.41 1141.41H2092.41ZM1380.98 1121.02L1382.59 1101.58L1515.33 1100.21L1648.07 1098.84L1634.02 1115.61C1626.29 1124.84 1614.4 1133.95 1607.6 1135.85C1600.79 1137.76 1546.66 1139.57 1487.3 1139.89L1379.38 1140.46L1380.98 1121.02ZM1790.16 1135.51C1777.89 1133.45 1766.84 1126.72 1757.62 1115.7L1743.65 1099.02H1872.46H2001.28V1119.55V1140.09L1905.01 1139.36C1852.06 1138.96 1800.38 1137.23 1790.16 1135.51ZM91.6115 986.062C91.9292 946.521 94.3043 914.183 96.8849 914.183C99.4929 914.183 101.575 946.097 101.575 986.062C101.575 1031.81 99.6588 1057.94 96.3033 1057.94C92.9204 1057.94 91.2386 1032.19 91.6115 986.062ZM3289.99 986.062C3289.99 939.837 3291.89 914.183 3295.32 914.183C3298.77 914.183 3300.4 939.401 3299.96 986.062C3299.59 1025.6 3297.19 1057.94 3294.64 1057.94C3292.08 1057.94 3289.99 1025.6 3289.99 986.062ZM137.516 973.603C137.516 907.466 136.553 899.257 128.531 896.952C123.588 895.533 126.17 894.786 134.267 895.292L148.989 896.213L148.501 968.092C148.233 1007.63 147.964 1041.7 147.899 1043.82C147.834 1045.94 145.472 1047.67 142.649 1047.67C139.463 1047.67 137.514 1019.56 137.514 973.603H137.516ZM3243.6 1046.39C3243.5 1045.68 3242.93 1010.36 3242.32 967.883L3241.21 890.662L3255.4 892.746C3263.2 893.892 3270.71 896.658 3272.09 898.893C3273.47 901.128 3269.98 901.748 3264.33 900.27C3254.39 897.673 3254.05 900.093 3254.05 972.628C3254.05 1019.23 3252.1 1047.67 3248.92 1047.67C3246.09 1047.67 3243.7 1047.1 3243.6 1046.39V1046.39ZM183.725 955.632C183.725 880.619 182.907 873.07 174.739 872.691C168.974 872.423 171.274 869.841 181.157 865.486C189.629 861.753 197.956 859.558 199.662 860.61C201.369 861.661 202.525 901.258 202.231 948.604C201.749 1026.26 200.815 1034.86 192.71 1036.42C184.453 1038.02 183.725 1031.46 183.725 955.632ZM3189.68 1031.96C3187.83 1028.97 3187.12 988.563 3188.09 942.176C3189.81 860.612 3190.21 857.939 3200.14 860.959C3205.79 862.676 3213.87 866.042 3218.11 868.439C3224.59 872.106 3224.39 872.82 3216.83 872.952C3208.65 873.094 3207.84 880.502 3207.84 955.255C3207.84 1023.36 3206.58 1037.4 3200.44 1037.4C3196.37 1037.4 3191.53 1034.95 3189.68 1031.96ZM235.068 938.038C235.068 856.785 234.208 847.965 226.083 845.842C220.11 844.281 221.488 843.294 230.19 842.898C237.391 842.57 246.108 839.477 249.562 836.024C254.51 831.075 255.543 850.366 254.439 927.09C253.173 1015.07 252.174 1024.6 244.053 1026.16C235.772 1027.75 235.068 1020.84 235.068 938.038V938.038ZM3135.96 929.584C3135.96 840.289 3138.67 820.783 3148.8 837.168C3150.54 839.992 3157.03 842.57 3163.22 842.898C3171.9 843.358 3172.42 844.029 3165.48 845.842C3157.36 847.964 3156.5 856.767 3156.5 937.662C3156.5 1023.71 3156.1 1027.13 3146.23 1027.13C3136.32 1027.13 3135.96 1023.71 3135.96 929.584V929.584ZM291.545 921.883C291.545 826.961 291.541 826.899 279.993 826.373C261.809 825.544 322.276 807.033 344.333 806.676C356.192 806.485 364.843 803.508 366.563 799.026C368.374 794.307 381.018 790.444 402.009 788.196C422.514 786 435.657 782.048 437.379 777.562C439.301 772.553 449.403 770.423 471.247 770.423C493.296 770.423 503.185 768.312 505.153 763.184C507.167 757.934 518.049 755.851 544.765 755.601C573.34 755.334 583.042 753.284 588.03 746.463C593.318 739.23 601.753 737.885 635.54 738.887C668.208 739.856 676.62 738.61 676.62 732.802C676.62 724.58 707.674 716.428 712.219 723.458C716.817 730.57 774.172 724.052 774.172 716.417C774.172 708.833 816.171 703.064 820.858 710.005C824.923 716.024 878.422 708.835 883.122 701.638C885.563 697.901 906.942 696.497 946.018 697.506C995.236 698.777 1005.22 697.768 1005.22 691.526C1005.22 685.871 1013.77 683.539 1039.87 682.078C1058.93 681.011 1076.72 681.969 1079.41 684.207C1087.69 691.119 1137.4 688.85 1145.04 681.211C1152.65 673.604 1225.99 667.061 1225.99 673.989C1225.99 680.226 1289.97 678.722 1296.36 672.335C1304.44 664.255 1390.29 659.392 1390.29 667.015C1390.29 675.499 1460.62 674.961 1463.45 666.455C1466.27 657.987 1569.99 653.77 1569.99 662.123C1569.99 669.306 1640.02 669.759 1644.44 662.604C1646.19 659.772 1669.21 657.47 1695.78 657.47C1722.36 657.47 1745.38 659.772 1747.13 662.604C1751.55 669.758 1821.57 669.306 1821.57 662.123C1821.57 654.544 1923.29 657.936 1928.3 665.682C1933.47 673.658 2001.28 675.222 2001.28 667.366C2001.28 659.327 2086.38 663.505 2094.83 671.959C2101.49 678.62 2165.57 680.459 2165.57 673.989C2165.57 667.061 2238.92 673.604 2246.52 681.211C2254.35 689.041 2304.2 691.057 2312.16 683.866C2314.84 681.44 2332.63 680.554 2351.69 681.896C2378.32 683.772 2386.35 686.158 2386.35 692.197C2386.35 698.971 2393.73 699.579 2439.76 696.603C2482.28 693.854 2494.65 694.621 2500.39 700.363C2509.29 709.267 2571.18 717.377 2571.18 709.64C2571.18 702.52 2608.13 708.165 2614.83 716.306C2621.18 724.032 2677.78 730.445 2680.04 723.694C2682.57 716.102 2714.95 724.55 2714.95 732.802C2714.95 738.61 2723.36 739.856 2756.03 738.887C2789.81 737.885 2798.25 739.23 2803.54 746.463C2808.52 753.284 2818.23 755.333 2846.8 755.601C2873.52 755.851 2884.4 757.934 2886.41 763.184C2888.37 768.283 2898.16 770.423 2919.53 770.423C2939.87 770.423 2951.92 772.895 2956.09 777.922C2959.51 782.046 2976.16 786.987 2993.09 788.903C3011.64 791.001 3024.94 795.162 3026.56 799.374C3028.1 803.409 3037.14 806.495 3047.94 806.676C3069.53 807.038 3129.37 825.561 3111.57 826.373C3100.03 826.899 3100.02 826.961 3100.02 921.883V1016.87H3087.18H3074.35V917.391V817.915L3058.13 814.67C3049.2 812.886 3041.2 812.126 3040.35 812.981C3039.49 813.836 3038.52 857.75 3038.19 910.567L3037.58 1006.6H3022.7H3007.81L3006.42 902.63L3005.03 798.662L2985.78 797.068L2966.53 795.474V897.821V1000.17L2949.84 996.757L2933.15 993.348L2931.77 887.592C2930.4 783.082 2930.25 781.8 2918.93 778.767C2894 772.085 2894.65 769.344 2894.65 882.228V988.899L2874.11 986.941L2853.57 984.982V875.718V766.454L2836.89 763.916C2827.71 762.52 2818.47 762.394 2816.35 763.636C2814.23 764.879 2812.5 813.716 2812.5 872.164V978.433L2789.39 976.596L2766.29 974.758V862.322C2766.29 758.69 2765.59 749.881 2757.3 749.816C2752.36 749.772 2743.12 748.353 2736.77 746.65L2725.21 743.554V855.965V968.376L2698.26 965.666L2671.3 962.956L2669.92 848.72L2668.54 734.483H2648.1H2627.66V844.869V955.255L2605.84 955.185C2557.47 955.029 2560.92 964.312 2560.92 834.002V719.081H2540.38H2519.84V832.034V944.987L2500.59 944.931C2490 944.898 2472.67 943.442 2462.08 941.692L2442.83 938.509V824.223V709.936L2423.57 707.523C2412.98 706.196 2402.59 706.08 2400.47 707.265C2398.35 708.45 2396.62 760.446 2396.62 822.812V936.204L2361.96 932.931C2342.9 931.13 2320.95 929.641 2313.18 929.621L2299.07 929.583V814.662C2299.07 699.824 2299.07 699.738 2287.51 696.645C2256.48 688.328 2257.99 682.538 2257.99 809.671V925.934L2223.33 922.661C2204.27 920.86 2181.17 919.371 2171.99 919.351L2155.3 919.313V803.792V688.272H2132.2H2109.1V801.994V915.716L2062.1 912.38C2036.25 910.545 2008.42 909.044 2000.26 909.044C1991.37 909.044 1985.76 906.472 1986.26 902.626C1986.72 899.097 1986.81 846.98 1986.48 786.811L1985.87 677.414L1964.05 678.992L1942.23 680.571L1940.86 793.524L1939.49 906.477L1875.5 904.902L1811.5 903.326L1810.12 789.382L1808.74 675.437H1785.63H1762.53L1761.15 789.673L1759.77 903.91H1695.78H1631.8L1630.42 789.673L1629.04 675.437H1605.93H1582.83L1581.45 789.673L1580.06 903.91H1516.08H1452.1L1450.72 792.24L1449.33 680.571L1427.51 678.992L1405.69 677.414V790.823C1405.69 877.038 1404.15 904.722 1399.27 906.275C1395.75 907.399 1368.02 909.257 1337.66 910.406L1282.47 912.493V800.383V688.272H1259.36H1236.26V800.528V912.783L1212.44 916.048C1199.34 917.844 1176.23 919.313 1161.1 919.313H1133.57V806.05V692.787L1114.32 694.38L1095.07 695.974L1093.69 809.489L1092.31 923.004L1060.84 926.293C1043.54 928.101 1021.63 929.581 1012.16 929.581H994.948V819.498C994.948 758.953 992.998 708.21 990.615 706.738C988.233 705.265 977.835 705.431 967.51 707.107L948.739 710.153V821.762V933.372L929.485 936.554C918.895 938.304 901.567 939.762 890.978 939.793L871.724 939.849V829.464V719.078H851.187H830.649V831.389V943.7L814.605 946.909C805.78 948.674 790.762 950.118 781.231 950.118H763.903V842.299V734.48H743.366H722.828V844.317C722.828 966.493 724.742 960.386 686.468 960.386H666.351V851.969V743.551L654.799 746.647C648.445 748.35 639.249 749.774 634.363 749.813C626.266 749.876 625.357 759.545 624.094 858.985L622.709 968.088L600.888 969.666L579.067 971.245V868.568C579.067 812.096 577.334 764.875 575.217 763.633C573.099 762.391 563.857 762.517 554.679 763.913L537.993 766.451V873.687V980.923H525.577C518.748 980.923 509.506 982.326 505.04 984.04C497.796 986.82 496.918 975.723 496.918 881.355V775.554L485.366 775.632C461.888 775.792 461.274 778.442 459.807 885.967L458.411 988.211L441.724 991.62L425.038 995.029V895.25V795.471L405.784 797.065L386.53 798.658L385.14 899.488C383.784 997.825 383.477 1000.39 372.697 1003.21C366.618 1004.8 359.673 1004.88 357.265 1003.39C354.857 1001.9 353.119 959.061 353.405 908.185C353.689 857.309 352.762 814.521 351.341 813.1C349.92 811.679 341.66 812.075 332.986 813.98L317.217 817.443V914.037C317.217 1013.77 316.586 1016.86 296.26 1016.86C293.567 1016.86 291.545 976.138 291.545 921.879V921.883ZM47.455 914.413C62.8405 897.413 137.441 850.123 191.426 823.15C425.908 705.991 756.683 643.814 1295.3 615.648C1448.46 607.639 1944.59 607.63 2096.26 615.632C2621.5 643.346 2944.69 702.148 3176.7 812.214C3237.22 840.929 3331.8 899.079 3346.21 916.434C3351.86 923.244 3351.32 924.449 3342.59 924.449C3336.94 924.449 3329.52 921.071 3326.09 916.943C3313.76 902.081 3235.09 855.194 3187.3 834.222C2966.54 737.338 2609.55 675.549 2106.53 647.155C1944.54 638.012 1598.5 635.146 1428.8 641.542C736.134 667.649 279.451 756.821 82.5422 904.41C53.146 926.444 30.8017 932.813 47.455 914.412V914.413ZM19.4262 906.48C19.4262 902.245 17.1156 898.779 14.2918 898.779C6.93949 898.779 7.94103 866.26 15.5754 857.11C40.4639 827.28 184.419 746.347 274.891 711.321C295.382 703.387 311.185 695.935 310.01 694.761C306.875 691.626 211.476 730.835 156.68 757.779C127.551 772.101 115.019 776.557 124.17 769.337C150.309 748.716 229.293 705.067 280.478 682.956C307.744 671.178 356.915 649.215 389.747 634.149C427.876 616.654 453.381 607.788 460.344 609.609C468.137 611.647 471.247 610.093 471.247 604.16C471.247 596.168 479.157 593.654 498.202 595.591C503.143 596.094 507.187 594.131 507.187 591.229C507.187 588.327 511.999 583.377 517.882 580.228C526.297 575.725 530.488 576.234 537.54 582.615C542.469 587.075 549.786 590.563 553.8 590.364C558.176 590.148 557.139 588.453 551.211 586.131C541.625 582.375 541.664 581.919 552.495 571.089C563.988 559.596 579.067 556.08 579.067 564.893C579.067 567.628 582.533 568.536 586.769 566.911C591.005 565.285 594.47 561.007 594.47 557.402C594.47 548.846 616.166 543.219 620.724 550.593C625.36 558.093 640.679 552.01 640.679 542.668C640.679 533.833 667.818 525.818 670.5 533.861C673.503 542.871 685.491 540.145 688.186 529.839C691 519.08 718.905 509.644 721.843 518.459C724.727 527.111 736.281 524.94 744.022 514.292C751.862 503.508 779.306 494.994 779.306 503.346C779.306 511.418 793.665 509.532 798.541 500.818C800.93 496.551 810.265 490.942 819.286 488.354C832.199 484.651 836.632 485.335 840.121 491.57C843.954 498.418 845.946 497.993 854.862 488.423C866.324 476.121 902.53 467.521 902.53 477.101C902.53 480.294 907.15 482.907 912.798 482.907C918.446 482.907 923.067 479.577 923.067 475.508C923.067 465.977 926.242 464.303 952.589 459.943C970.137 457.04 974.41 457.836 974.41 464.005C974.41 469.149 977.794 470.792 984.679 468.991C990.326 467.515 994.948 463.399 994.948 459.845C994.948 456.292 1002.17 451.941 1010.99 450.176C1034.96 445.382 1052.46 446.272 1048.86 452.101C1047.06 455.013 1051.37 457.236 1058.82 457.236C1067 457.236 1071.96 454.366 1071.96 449.632C1071.96 442.026 1080.45 438.969 1111.75 435.299C1123.18 433.96 1128.44 435.491 1128.44 440.155C1128.44 443.998 1134.03 446.967 1141.28 446.967C1148.82 446.967 1154.11 444.021 1154.11 439.815C1154.11 430.123 1165.56 426.43 1195.61 426.43C1213.49 426.43 1220.86 428.471 1220.86 433.42C1220.86 438.106 1225.09 439.601 1233.69 437.955C1240.75 436.606 1246.53 432.594 1246.53 429.04C1246.53 421.728 1269 416.162 1298.51 416.162C1312.78 416.162 1318.41 418.342 1318.41 423.863C1318.41 435.904 1342.34 433.642 1345.57 421.296C1347.96 412.165 1352.57 411.028 1387.24 411.028C1418.48 411.028 1426.23 412.559 1426.23 418.729C1426.23 423.521 1431.08 426.43 1439.07 426.43C1448.48 426.43 1451.9 423.692 1451.9 416.162C1451.9 406.699 1455.32 405.893 1495.54 405.893C1535.76 405.893 1539.19 406.699 1539.19 416.162C1539.19 430.938 1569.77 430.938 1573.64 416.162C1576.07 406.865 1580.64 405.893 1621.93 405.893C1664.63 405.893 1667.54 406.572 1667.54 416.519C1667.54 424.601 1670.31 426.752 1679.1 425.504C1688.54 424.162 1690.65 420.614 1690.65 406.031V388.2L1577.69 389.446C1160.7 394.049 786.36 458.599 499.281 575.406C471.627 586.657 448.192 595.054 447.202 594.064C446.213 593.074 470.739 581.447 501.706 568.227C786.628 446.587 1102.14 384.591 1501.96 371.682L1605.93 368.325V353.917C1605.93 336.205 1614.25 331.386 1659.08 323.126C1678.52 319.543 1691.51 314.857 1688.99 312.334C1686.47 309.812 1668.02 311.581 1646.52 316.407C1600.11 326.823 1588.72 327.755 1585.39 321.407C1581.91 314.74 1644.98 293.246 1668.52 293.076C1678.95 293.001 1689.13 290.27 1691.14 287.006C1694.9 280.922 1653.15 283.41 1627.75 290.784C1610.92 295.671 1613.31 285.906 1634.73 262.187C1645.65 250.109 1661.48 239.212 1673.24 235.688L1693.22 229.704V114.997C1693.22 41.9479 1695.17 0 1695.17 0L1702.83 0.285458C1702.83 0.285458 1703.48 78.1813 1703.48 114.559V228.825L1728.79 240.435C1744.55 247.666 1758.11 258.534 1764.73 269.249C1780.61 294.945 1778.61 298.05 1751.44 289.874C1725.11 281.948 1703.48 280.488 1703.48 286.634C1703.48 288.812 1716.96 293.156 1733.44 296.287C1772.75 303.756 1816.11 322.738 1806.89 328.437C1802.99 330.851 1787.7 328.865 1771.04 323.779C1735.02 312.786 1703.48 307.714 1703.48 312.915C1703.48 315.074 1718.9 319.679 1737.74 323.15C1781.32 331.181 1789.71 335.862 1791.71 353.269C1793.28 366.92 1794.44 367.428 1826.71 368.539C2280.62 384.177 2581.74 439.351 2870.52 559.798C2921.08 580.883 2919.24 586.021 2868.34 565.89C2592.8 456.902 2211.15 392.612 1824.14 389.991C1764.84 389.59 1713.43 389.538 1709.9 389.877C1706.11 390.242 1703.48 397.839 1703.48 408.463C1703.48 423.01 1705.44 426.433 1713.75 426.433C1720.6 426.433 1724.02 423.01 1724.02 416.165C1724.02 406.625 1727.44 405.896 1772.23 405.896C1814.99 405.896 1820.35 406.912 1819.72 414.881C1819.2 421.453 1823.49 424.298 1835.69 425.475C1849.65 426.82 1852.38 425.349 1852.38 416.49C1852.38 406.66 1855.38 405.896 1893.93 405.896C1931.54 405.896 1935.75 406.9 1938.25 416.441C1940.3 424.278 1944.46 426.585 1954.45 425.426C1961.89 424.564 1967.33 420.995 1966.62 417.448C1965.68 412.765 1975.87 411.031 2004.32 411.031C2038.99 411.031 2043.61 412.168 2046 421.299C2049.22 433.645 2073.16 435.907 2073.16 423.866C2073.16 418.345 2078.79 416.165 2093.05 416.165C2122.57 416.165 2145.04 421.731 2145.04 429.043C2145.04 439.088 2169.92 442.021 2171.81 432.199C2174.49 418.279 2237.45 425.391 2237.45 439.615C2237.45 444.038 2242.57 446.97 2250.29 446.97C2258.18 446.97 2263.13 444.052 2263.13 439.397C2263.13 433.706 2267.27 432.514 2279.81 434.601C2314.76 440.417 2319.6 442.247 2319.6 449.635C2319.6 458.657 2343.43 460.197 2346.38 451.366C2349.19 442.925 2396.62 450.624 2396.62 459.522C2396.62 463.255 2401.24 467.518 2406.89 468.994C2413.77 470.795 2417.16 469.152 2417.16 464.008C2417.16 457.839 2421.43 457.043 2438.98 459.947C2465.32 464.306 2468.5 465.98 2468.5 475.511C2468.5 479.58 2473.12 482.91 2478.77 482.91C2484.41 482.91 2489.04 480.297 2489.04 477.104C2489.04 467.669 2522.9 475.704 2535.27 488.073C2544.76 497.563 2547.2 498.08 2552.35 491.698C2559.98 482.23 2591.72 489.749 2591.72 501.026C2591.72 505.181 2596.34 508.581 2601.99 508.581C2607.64 508.581 2612.26 506.226 2612.26 503.349C2612.26 494.997 2639.7 503.511 2647.54 514.295C2655.28 524.943 2666.84 527.114 2669.72 518.462C2672.66 509.648 2700.57 519.083 2703.38 529.842C2706.07 540.148 2718.06 542.875 2721.07 533.865C2723.75 525.821 2750.89 533.832 2750.89 542.671C2750.89 552.013 2766.21 558.097 2770.84 550.596C2775.4 543.222 2797.1 548.849 2797.1 557.405C2797.1 565.657 2811.14 571.416 2815.2 564.833C2820.02 557.036 2826.37 558.99 2841.37 572.895C2850.74 581.583 2856.55 583.951 2858.95 580.066C2863.08 573.384 2884.38 582.415 2884.38 590.848C2884.38 593.54 2888.42 595.403 2893.36 594.989C2912.25 593.406 2920.32 596.154 2920.32 604.163C2920.32 610.046 2923.43 611.648 2931.02 609.665C2937.64 607.933 2960.62 615.691 2991.35 630.033C3018.64 642.774 3060.61 661.368 3084.62 671.353C3138.39 693.721 3179.68 714.254 3223.24 740.293C3277.21 772.546 3285.83 782.958 3239.8 760.295C3160.5 721.249 2995.48 657.616 2989.37 663.727C2988.17 664.925 3000.45 670.015 3016.65 675.037C3138.7 712.865 3318.4 802.815 3370.86 852.336C3382.73 863.544 3387.6 898.782 3377.27 898.782C3374.45 898.782 3372.14 902.248 3372.14 906.483C3372.14 917.357 3364.94 916.067 3348.15 902.188C3250.04 821.098 3066.25 742.291 2868.98 696.727C2597.47 634.019 2277.53 604.127 1808.74 597.669C1148.63 588.576 645.585 641.727 319.784 754.99C250.841 778.958 125.723 842.758 73.3366 880.659C47.9218 899.047 25.3947 914.112 23.2769 914.138C21.1591 914.165 19.4262 910.719 19.4262 906.483V906.48ZM372.844 675.339C391.667 668.755 404.583 663.197 401.548 662.987C394.442 662.495 321.645 687.204 317.668 691.458C314.163 695.207 325.556 691.878 372.844 675.339V675.339ZM520.023 672.873C521.768 670.049 520.748 667.739 517.758 667.739C514.767 667.739 512.321 670.049 512.321 672.873C512.321 675.697 513.339 678.007 514.585 678.007C515.83 678.007 518.278 675.697 520.023 672.873ZM454.453 649.234C452.747 647.528 448.319 647.346 444.612 648.829C440.516 650.468 441.733 651.684 447.714 651.931C453.127 652.154 456.159 650.94 454.453 649.234V649.234ZM625.276 647.202C625.276 644.378 624.258 642.068 623.013 642.068C621.767 642.068 619.32 644.378 617.575 647.202C615.83 650.026 616.848 652.336 619.838 652.336C622.829 652.336 625.276 650.026 625.276 647.202ZM2776.56 650.072C2776.56 648.827 2774.25 646.38 2771.42 644.635C2768.6 642.89 2766.29 643.908 2766.29 646.899C2766.29 649.889 2768.6 652.336 2771.42 652.336C2774.25 652.336 2776.56 651.317 2776.56 650.072ZM2949.73 649.234C2948.03 647.528 2943.6 647.346 2939.89 648.829C2935.8 650.468 2937.01 651.684 2942.99 651.931C2948.41 652.154 2951.44 650.94 2949.73 649.234V649.234ZM484.082 642.068C490.555 639.286 491.504 637.655 486.65 637.655C482.414 637.655 474.327 639.641 468.679 642.068C462.207 644.849 461.258 646.48 466.112 646.48C470.348 646.48 478.435 644.495 484.082 642.068ZM666.351 642.068C666.351 639.244 664.04 636.933 661.217 636.933C658.393 636.933 656.082 639.244 656.082 642.068C656.082 644.892 658.393 647.202 661.217 647.202C664.04 647.202 666.351 644.892 666.351 642.068ZM2735.48 642.068C2735.48 639.244 2733.17 636.933 2730.35 636.933C2727.53 636.933 2725.21 639.244 2725.21 642.068C2725.21 644.892 2727.53 647.202 2730.35 647.202C2733.17 647.202 2735.48 644.892 2735.48 642.068ZM2922.89 642.408C2917.24 640.13 2904.53 636.901 2894.65 635.234C2876.93 632.245 2876.97 632.303 2897.21 639.307C2919.25 646.93 2940.44 649.49 2922.89 642.408ZM440.441 636.933C440.441 634.11 438.266 631.799 435.609 631.799C432.951 631.799 429.35 634.11 427.605 636.933C425.86 639.757 428.031 642.068 432.436 642.068C436.838 642.068 440.441 639.757 440.441 636.933ZM2707.24 636.933C2708.99 634.11 2707.97 631.799 2704.98 631.799C2701.99 631.799 2699.54 634.11 2699.54 636.933C2699.54 639.757 2700.56 642.068 2701.81 642.068C2703.05 642.068 2705.5 639.757 2707.24 636.933ZM2963.96 636.933C2962.22 634.11 2958.61 631.799 2955.96 631.799C2953.3 631.799 2951.12 634.11 2951.12 636.933C2951.12 639.757 2954.73 642.068 2959.13 642.068C2963.53 642.068 2965.71 639.757 2963.96 636.933V636.933ZM476.381 625.688C476.381 618.94 464.712 623.165 462.153 630.84C460.903 634.592 463.25 635.739 468.25 633.821C472.722 632.105 476.381 628.445 476.381 625.688V625.688ZM510.931 633.832C509.225 632.126 504.796 631.943 501.09 633.426C496.994 635.065 498.211 636.282 504.192 636.528C509.604 636.751 512.637 635.538 510.931 633.832V633.832ZM731.47 625.702C729.831 621.607 728.614 622.823 728.368 628.804C728.143 634.217 729.359 637.249 731.065 635.543C732.771 633.837 732.953 629.409 731.47 625.702ZM2661.98 625.702C2660.34 621.607 2659.12 622.823 2658.87 628.804C2658.65 634.217 2659.86 637.249 2661.57 635.543C2663.28 633.837 2663.46 629.409 2661.98 625.702V625.702ZM548.261 626.665C558.426 623.41 558.96 622.555 550.829 622.555C545.181 622.555 534.784 624.404 527.724 626.665C517.56 629.92 517.026 630.776 525.157 630.776C530.805 630.776 541.202 628.926 548.261 626.665ZM748.5 626.665C748.5 623.841 746.19 621.531 743.366 621.531C740.542 621.531 738.231 623.841 738.231 626.665C738.231 629.489 740.542 631.799 743.366 631.799C746.19 631.799 748.5 629.489 748.5 626.665ZM761.336 626.665C763.081 623.841 762.062 621.531 759.071 621.531C756.081 621.531 753.634 623.841 753.634 626.665C753.634 629.489 754.653 631.799 755.898 631.799C757.143 631.799 759.591 629.489 761.336 626.665ZM2637.93 626.665C2637.93 623.841 2635.48 621.531 2632.49 621.531C2629.5 621.531 2628.48 623.841 2630.23 626.665C2631.97 629.489 2634.42 631.799 2635.67 631.799C2636.91 631.799 2637.93 629.489 2637.93 626.665V626.665ZM2653.33 626.665C2653.33 623.841 2651.02 621.531 2648.2 621.531C2645.38 621.531 2643.07 623.841 2643.07 626.665C2643.07 629.489 2645.38 631.799 2648.2 631.799C2651.02 631.799 2653.33 629.489 2653.33 626.665ZM2872.72 628.697C2871.01 626.991 2866.59 626.809 2862.88 628.292C2858.78 629.931 2860 631.148 2865.98 631.394C2871.39 631.617 2874.43 630.403 2872.72 628.697V628.697ZM2928.02 626.665C2926.27 623.841 2922.67 621.531 2920.02 621.531C2917.36 621.531 2915.18 623.841 2915.18 626.665C2915.18 629.489 2918.79 631.799 2923.19 631.799C2927.59 631.799 2929.77 629.489 2928.02 626.665V626.665ZM512.321 616.009C512.321 613.575 508.856 612.914 504.62 614.54C500.384 616.165 496.918 619.486 496.918 621.919C496.918 624.352 500.384 625.013 504.62 623.387C508.856 621.762 512.321 618.442 512.321 616.009ZM2843.3 621.531C2836.24 619.27 2825.85 617.42 2820.2 617.42C2812.07 617.42 2812.6 618.276 2822.77 621.531C2829.83 623.792 2840.22 625.642 2845.87 625.642C2854 625.642 2853.47 624.786 2843.3 621.531ZM2889.51 616.397C2885.44 613.88 2880.95 612.976 2879.54 614.388C2878.13 615.8 2880.31 619.014 2884.38 621.531C2888.45 624.048 2892.94 624.951 2894.35 623.539C2895.76 622.127 2893.59 618.913 2889.51 616.397ZM577.677 618.429C575.971 616.723 571.543 616.54 567.836 618.023C563.74 619.662 564.957 620.879 570.938 621.125C576.351 621.348 579.383 620.135 577.677 618.429V618.429ZM804.978 616.397C804.978 613.573 803.959 611.262 802.714 611.262C801.469 611.262 799.022 613.573 797.276 616.397C795.531 619.22 796.549 621.531 799.54 621.531C802.53 621.531 804.978 619.22 804.978 616.397ZM820.381 616.397C820.381 613.573 818.07 611.262 815.246 611.262C812.423 611.262 810.112 613.573 810.112 616.397C810.112 619.22 812.423 621.531 815.246 621.531C818.07 621.531 820.381 619.22 820.381 616.397ZM833.216 616.397C834.962 613.573 833.942 611.262 830.951 611.262C827.961 611.262 825.515 613.573 825.515 616.397C825.515 619.22 826.533 621.531 827.779 621.531C829.024 621.531 831.472 619.22 833.216 616.397ZM2566.05 616.397C2566.05 613.573 2563.6 611.262 2560.61 611.262C2557.62 611.262 2556.6 613.573 2558.35 616.397C2560.09 619.22 2562.54 621.531 2563.79 621.531C2565.03 621.531 2566.05 619.22 2566.05 616.397V616.397ZM2581.45 616.397C2581.45 613.573 2579.14 611.262 2576.32 611.262C2573.5 611.262 2571.18 613.573 2571.18 616.397C2571.18 619.22 2573.5 621.531 2576.32 621.531C2579.14 621.531 2581.45 619.22 2581.45 616.397ZM2596.86 619.267C2596.86 618.021 2594.55 615.575 2591.72 613.829C2588.9 612.084 2586.59 613.103 2586.59 616.093C2586.59 619.084 2588.9 621.531 2591.72 621.531C2594.55 621.531 2596.86 620.512 2596.86 619.267ZM545.274 613.28C557.063 608.756 555.252 601.47 543.127 604.64C537.479 606.117 532.858 609.367 532.858 611.861C532.858 617.229 534.496 617.416 545.274 613.28ZM600.888 612.996C597.358 611.572 591.583 611.572 588.052 612.996C584.523 614.42 587.41 615.586 594.47 615.586C601.53 615.586 604.418 614.42 600.888 612.996V612.996ZM851.187 614.132C851.187 612.887 848.876 610.44 846.052 608.695C843.229 606.95 840.918 607.968 840.918 610.959C840.918 613.949 843.229 616.396 846.052 616.396C848.876 616.396 851.187 615.377 851.187 614.132ZM875.231 605.165C873.592 601.069 872.375 602.286 872.129 608.267C871.904 613.679 873.12 616.712 874.826 615.006C876.532 613.3 876.714 608.871 875.231 605.165ZM2518.21 605.165C2516.58 601.069 2515.36 602.286 2515.11 608.267C2514.89 613.679 2516.1 616.712 2517.81 615.006C2519.52 613.3 2519.7 608.871 2518.21 605.165V605.165ZM2550.65 611.262C2550.65 608.438 2549.63 606.128 2548.38 606.128C2547.14 606.128 2544.69 608.438 2542.95 611.262C2541.2 614.086 2542.22 616.396 2545.21 616.396C2548.2 616.396 2550.65 614.086 2550.65 611.262V611.262ZM2797.1 611.262C2790.04 609.001 2779.64 607.151 2773.99 607.151C2765.86 607.151 2766.39 608.007 2776.56 611.262C2783.62 613.523 2794.01 615.373 2799.66 615.373C2807.79 615.373 2807.26 614.517 2797.1 611.262ZM2858.71 611.811C2858.71 606.117 2842.91 599.674 2838.87 603.719C2837.23 605.351 2839.3 608.836 2843.45 611.463C2853.05 617.534 2858.71 617.663 2858.71 611.812V611.811ZM653.515 603.863C670.459 600.04 678.545 596.896 671.485 596.878C657.082 596.84 602.965 609.825 615.008 610.428C619.243 610.64 636.572 607.686 653.515 603.863ZM921.44 600.031C919.801 595.935 918.584 597.152 918.338 603.133C918.113 608.545 919.329 611.578 921.035 609.872C922.741 608.165 922.923 603.737 921.44 600.031ZM2472.01 600.031C2470.37 595.935 2469.15 597.152 2468.9 603.133C2468.68 608.545 2469.89 611.578 2471.6 609.872C2473.31 608.165 2473.49 603.737 2472.01 600.031V600.031ZM593.054 597.547C594.328 593.721 591.213 592.538 584.495 594.295C578.685 595.814 573.933 599.267 573.933 601.969C573.933 608.785 590.595 604.932 593.054 597.547ZM967.649 594.897C966.01 590.801 964.793 592.017 964.547 597.999C964.322 603.411 965.538 606.443 967.244 604.737C968.95 603.031 969.132 598.603 967.649 594.897V594.897ZM2425.8 594.897C2424.16 590.801 2422.94 592.017 2422.69 597.999C2422.47 603.411 2423.69 606.443 2425.39 604.737C2427.1 603.031 2427.28 598.603 2425.8 594.897V594.897ZM2748.32 600.994C2739.85 598.838 2727.14 597.074 2720.08 597.074C2708.63 597.074 2708.91 597.498 2722.65 600.994C2731.12 603.149 2743.83 604.913 2750.89 604.913C2762.34 604.913 2762.06 604.49 2748.32 600.994ZM2810.31 598.316C2804.86 594.199 2799.15 592.088 2797.62 593.624C2794.4 596.847 2807.44 606.012 2815.06 605.886C2817.89 605.842 2815.75 602.433 2810.31 598.316ZM1017.83 596.214C1019.46 593.585 1018.44 589.983 1015.57 588.21C1012.7 586.436 1010.35 588.586 1010.35 592.989C1010.35 602.007 1013.43 603.335 1017.83 596.214V596.214ZM2381.21 595.859C2381.21 593.036 2378.77 590.725 2375.78 590.725C2372.79 590.725 2371.77 593.036 2373.51 595.859C2375.26 598.683 2377.71 600.994 2378.95 600.994C2380.2 600.994 2381.21 598.683 2381.21 595.859V595.859ZM639.263 587.278C640.537 583.453 637.422 582.27 630.703 584.027C624.894 585.546 620.142 588.999 620.142 591.7C620.142 598.516 636.804 594.663 639.263 587.278ZM703.575 592.459C700.045 591.035 694.269 591.035 690.739 592.459C687.209 593.883 690.097 595.048 697.157 595.048C704.217 595.048 707.104 593.883 703.575 592.459V592.459ZM1036.02 590.725C1036.02 587.901 1033.71 585.591 1030.89 585.591C1028.06 585.591 1025.75 587.901 1025.75 590.725C1025.75 593.549 1028.06 595.859 1030.89 595.859C1033.71 595.859 1036.02 593.549 1036.02 590.725ZM1051.43 590.725C1051.43 587.901 1049.11 585.591 1046.29 585.591C1043.47 585.591 1041.16 587.901 1041.16 590.725C1041.16 593.549 1043.47 595.859 1046.29 595.859C1049.11 595.859 1051.43 593.549 1051.43 590.725ZM1066.83 590.725C1066.83 587.901 1064.52 585.591 1061.69 585.591C1058.87 585.591 1056.56 587.901 1056.56 590.725C1056.56 593.549 1058.87 595.859 1061.69 595.859C1064.52 595.859 1066.83 593.549 1066.83 590.725ZM1082.23 587.855C1082.23 583.452 1079.88 581.302 1077.01 583.075C1074.14 584.849 1073.12 588.451 1074.75 591.08C1079.15 598.201 1082.23 596.873 1082.23 587.855V587.855ZM2335.01 590.725C2335.01 587.901 2332.7 585.591 2329.87 585.591C2327.05 585.591 2324.74 587.901 2324.74 590.725C2324.74 593.549 2327.05 595.859 2329.87 595.859C2332.7 595.859 2335.01 593.549 2335.01 590.725ZM2350.41 590.725C2350.41 587.901 2348.1 585.591 2345.27 585.591C2342.45 585.591 2340.14 587.901 2340.14 590.725C2340.14 593.549 2342.45 595.859 2345.27 595.859C2348.1 595.859 2350.41 593.549 2350.41 590.725ZM2365.81 590.725C2365.81 587.901 2364.79 585.591 2363.55 585.591C2362.3 585.591 2359.86 587.901 2358.11 590.725C2356.36 593.549 2357.38 595.859 2360.37 595.859C2363.37 595.859 2365.81 593.549 2365.81 590.725V590.725ZM2700.83 592.459C2697.3 591.035 2691.52 591.035 2687.99 592.459C2684.46 593.883 2687.35 595.048 2694.41 595.048C2701.47 595.048 2704.36 593.883 2700.83 592.459ZM2771.42 590.725C2771.42 587.901 2766.67 585.591 2760.85 585.591C2755.04 585.591 2751.71 587.901 2753.45 590.725C2755.2 593.549 2759.96 595.859 2764.02 595.859C2768.09 595.859 2771.42 593.549 2771.42 590.725V590.725ZM734.478 587.357C731.002 585.951 724.071 585.865 719.075 587.167C714.08 588.468 716.924 589.619 725.396 589.724C733.867 589.828 737.954 588.763 734.478 587.357V587.357ZM1097.63 585.591C1097.63 582.767 1096.62 580.457 1095.37 580.457C1094.12 580.457 1091.68 582.767 1089.93 585.591C1088.19 588.415 1089.21 590.725 1092.2 590.725C1095.19 590.725 1097.63 588.415 1097.63 585.591V585.591ZM1118.17 588.461C1118.17 587.216 1115.86 584.769 1113.04 583.024C1110.21 581.279 1107.9 582.297 1107.9 585.288C1107.9 588.278 1110.21 590.725 1113.04 590.725C1115.86 590.725 1118.17 589.706 1118.17 588.461ZM1133.57 585.591C1133.57 582.767 1131.26 580.457 1128.44 580.457C1125.62 580.457 1123.31 582.767 1123.31 585.591C1123.31 588.415 1125.62 590.725 1128.44 590.725C1131.26 590.725 1133.57 588.415 1133.57 585.591ZM1148.98 583.024C1148.98 578.788 1146.67 575.322 1143.84 575.322C1141.02 575.322 1138.71 578.788 1138.71 583.024C1138.71 587.26 1141.02 590.725 1143.84 590.725C1146.67 590.725 1148.98 587.26 1148.98 583.024ZM2252.86 580.153C2252.86 577.496 2250.55 575.322 2247.72 575.322C2244.9 575.322 2242.59 578.924 2242.59 583.327C2242.59 587.729 2244.9 589.903 2247.72 588.158C2250.55 586.413 2252.86 582.811 2252.86 580.153ZM2268.26 585.591C2268.26 582.767 2265.95 580.457 2263.13 580.457C2260.3 580.457 2257.99 582.767 2257.99 585.591C2257.99 588.415 2260.3 590.725 2263.13 590.725C2265.95 590.725 2268.26 588.415 2268.26 585.591ZM2283.66 585.591C2283.66 582.767 2281.35 580.457 2278.53 580.457C2275.7 580.457 2273.39 582.767 2273.39 585.591C2273.39 588.415 2275.7 590.725 2278.53 590.725C2281.35 590.725 2283.66 588.415 2283.66 585.591ZM2304.2 588.461C2304.2 587.216 2301.89 584.769 2299.07 583.024C2296.24 581.279 2293.93 582.297 2293.93 585.288C2293.93 588.278 2296.24 590.725 2299.07 590.725C2301.89 590.725 2304.2 589.706 2304.2 588.461ZM2319.6 588.461C2319.6 587.216 2317.29 584.769 2314.47 583.024C2311.65 581.279 2309.33 582.297 2309.33 585.288C2309.33 588.278 2311.65 590.725 2314.47 590.725C2317.29 590.725 2319.6 589.706 2319.6 588.461ZM2675.25 587.357C2671.78 585.951 2664.85 585.865 2659.85 587.167C2654.85 588.468 2657.7 589.619 2666.17 589.724C2674.64 589.828 2678.73 588.763 2675.25 587.357V587.357ZM2847.05 587.624C2845.34 585.917 2840.91 585.735 2837.21 587.218C2833.11 588.857 2834.33 590.074 2840.31 590.32C2845.72 590.543 2848.75 589.33 2847.05 587.624V587.624ZM657.354 564.647C914.753 506.334 1283.8 467.547 1581.54 467.515C1649.14 467.51 1688.08 465.627 1688.08 462.369C1688.08 455.845 1614.52 455.877 1428.8 462.48C1113.3 473.696 882.343 501.647 668.152 554.533C594.307 572.766 532.538 591.717 576.5 582.651C584.972 580.904 621.356 572.802 657.354 564.647V564.647ZM684.321 580.457C686.066 577.633 682.736 575.322 676.922 575.322C671.107 575.322 666.351 577.633 666.351 580.457C666.351 583.281 669.68 585.591 673.749 585.591C677.818 585.591 682.576 583.281 684.321 580.457ZM765.284 582.223C761.808 580.817 754.877 580.731 749.881 582.033C744.886 583.334 747.73 584.485 756.202 584.59C764.673 584.694 768.76 583.629 765.284 582.223V582.223ZM1164.38 580.457C1164.38 577.633 1162.07 575.322 1159.25 575.322C1156.42 575.322 1154.11 577.633 1154.11 580.457C1154.11 583.281 1156.42 585.591 1159.25 585.591C1162.07 585.591 1164.38 583.281 1164.38 580.457ZM1184.92 580.457C1184.92 577.633 1182.61 575.322 1179.78 575.322C1176.96 575.322 1174.65 577.633 1174.65 580.457C1174.65 583.281 1176.96 585.591 1179.78 585.591C1182.61 585.591 1184.92 583.281 1184.92 580.457ZM1200.32 580.457C1200.32 577.633 1198.01 575.322 1195.19 575.322C1192.36 575.322 1190.05 577.633 1190.05 580.457C1190.05 583.281 1192.36 585.591 1195.19 585.591C1198.01 585.591 1200.32 583.281 1200.32 580.457ZM1215.72 577.587C1215.72 573.184 1213.37 571.033 1210.5 572.807C1207.64 574.581 1206.62 578.183 1208.24 580.812C1212.64 587.933 1215.72 586.605 1215.72 577.587V577.587ZM2183.32 580.812C2184.95 578.183 2183.93 574.581 2181.06 572.807C2178.19 571.033 2175.84 573.184 2175.84 577.587C2175.84 586.605 2178.92 587.933 2183.32 580.812V580.812ZM2201.51 580.457C2201.51 577.633 2199.2 575.322 2196.38 575.322C2193.56 575.322 2191.24 577.633 2191.24 580.457C2191.24 583.281 2193.56 585.591 2196.38 585.591C2199.2 585.591 2201.51 583.281 2201.51 580.457ZM2216.92 580.457C2216.92 577.633 2214.61 575.322 2211.78 575.322C2208.96 575.322 2206.65 577.633 2206.65 580.457C2206.65 583.281 2208.96 585.591 2211.78 585.591C2214.61 585.591 2216.92 583.281 2216.92 580.457ZM2237.45 580.457C2237.45 577.633 2235.14 575.322 2232.32 575.322C2229.5 575.322 2227.19 577.633 2227.19 580.457C2227.19 583.281 2229.5 585.591 2232.32 585.591C2235.14 585.591 2237.45 583.281 2237.45 580.457ZM2644.45 582.223C2640.97 580.817 2634.04 580.731 2629.04 582.033C2624.05 583.334 2626.89 584.485 2635.36 584.589C2643.84 584.694 2647.92 583.629 2644.45 582.223V582.223ZM2725.21 581.055C2725.21 578.561 2720.59 575.312 2714.95 573.835C2704.85 571.195 2701.37 575.437 2708.1 582.168C2713.08 587.149 2725.21 586.36 2725.21 581.055ZM2818.36 580.092C2787.86 567.878 2610.82 527.827 2525.64 513.874C2349.57 485.029 2194.94 470.958 1960.2 462.419C1790.11 456.231 1703.48 455.957 1703.48 461.605C1703.48 464.008 1776.84 467.342 1866.5 469.013C2095.87 473.289 2299.99 490.147 2502.96 521.574C2593.34 535.568 2745.64 565.313 2789.39 577.514C2818.82 585.721 2836.3 587.276 2818.36 580.092V580.092ZM841.572 572.907C1276.14 511.906 2042.38 509.628 2508.86 567.951C2566.36 575.14 2614.33 580.097 2615.46 578.966C2620.41 574.018 2404.75 548.391 2263.13 537.098C2071.97 521.856 1902.38 517.525 1606.54 520.332C1323.52 523.017 1250.2 525.995 1069.39 542.151C976.736 550.431 778.193 574.811 774.6 578.349C770.953 581.941 785.819 580.733 841.572 572.907V572.907ZM1236.26 578.192C1236.26 576.947 1233.95 574.501 1231.13 572.755C1228.3 571.01 1225.99 572.029 1225.99 575.019C1225.99 578.01 1228.3 580.457 1231.13 580.457C1233.95 580.457 1236.26 579.438 1236.26 578.192ZM1251.66 575.322C1251.66 572.499 1249.35 570.188 1246.53 570.188C1243.71 570.188 1241.4 572.499 1241.4 575.322C1241.4 578.146 1243.71 580.457 1246.53 580.457C1249.35 580.457 1251.66 578.146 1251.66 575.322ZM1269.63 575.322C1267.89 572.499 1264.29 570.188 1261.63 570.188C1258.97 570.188 1256.8 572.499 1256.8 575.322C1256.8 578.146 1260.4 580.457 1264.8 580.457C1269.2 580.457 1271.38 578.146 1269.63 575.322V575.322ZM1287.6 575.322C1287.6 572.499 1285.29 570.188 1282.47 570.188C1279.65 570.188 1277.34 572.499 1277.34 575.322C1277.34 578.146 1279.65 580.457 1282.47 580.457C1285.29 580.457 1287.6 578.146 1287.6 575.322ZM1303.01 572.452C1303.01 568.05 1300.66 565.899 1297.79 567.673C1294.92 569.447 1293.9 573.048 1295.52 575.677C1299.93 582.798 1303.01 581.471 1303.01 572.452V572.452ZM1323.54 569.885C1323.54 567.228 1321.23 565.054 1318.41 565.054C1315.59 565.054 1313.28 568.656 1313.28 573.058C1313.28 577.461 1315.59 579.635 1318.41 577.89C1321.23 576.144 1323.54 572.542 1323.54 569.885ZM2076.26 566.445C2071.04 561.226 2066.73 569.083 2071.01 576.011C2074.25 581.245 2075.46 581.25 2077.2 576.033C2078.39 572.466 2077.96 568.152 2076.26 566.446V566.445ZM2098.83 575.625C2098.83 572.968 2096.52 569.366 2093.69 567.621C2090.87 565.876 2088.56 568.05 2088.56 572.452C2088.56 576.855 2090.87 580.457 2093.69 580.457C2096.52 580.457 2098.83 578.282 2098.83 575.625ZM2114.23 575.322C2114.23 572.499 2111.92 570.188 2109.1 570.188C2106.27 570.188 2103.96 572.499 2103.96 575.322C2103.96 578.146 2106.27 580.457 2109.1 580.457C2111.92 580.457 2114.23 578.146 2114.23 575.322ZM2134.77 575.322C2134.77 572.499 2132.46 570.188 2129.63 570.188C2126.81 570.188 2124.5 572.499 2124.5 575.322C2124.5 578.146 2126.81 580.457 2129.63 580.457C2132.46 580.457 2134.77 578.146 2134.77 575.322ZM2150.17 575.322C2150.17 572.499 2147.86 570.188 2145.04 570.188C2142.21 570.188 2139.9 572.499 2139.9 575.322C2139.9 578.146 2142.21 580.457 2145.04 580.457C2147.86 580.457 2150.17 578.146 2150.17 575.322ZM2165.57 575.322C2165.57 572.499 2163.26 570.188 2160.44 570.188C2157.62 570.188 2155.3 572.499 2155.3 575.322C2155.3 578.146 2157.62 580.457 2160.44 580.457C2163.26 580.457 2165.57 578.146 2165.57 575.322ZM738.231 568.102C738.231 563.409 734.637 561.821 727.963 563.567C722.315 565.043 717.694 568.293 717.694 570.787C717.694 573.282 722.315 575.322 727.963 575.322C733.61 575.322 738.231 572.073 738.231 568.102ZM1338.95 570.188C1338.95 567.364 1336.64 565.054 1333.81 565.054C1330.99 565.054 1328.68 567.364 1328.68 570.188C1328.68 573.012 1330.99 575.322 1333.81 575.322C1336.64 575.322 1338.95 573.012 1338.95 570.188ZM1359.48 570.188C1359.48 567.364 1357.17 565.054 1354.35 565.054C1351.53 565.054 1349.22 567.364 1349.22 570.188C1349.22 573.012 1351.53 575.322 1354.35 575.322C1357.17 575.322 1359.48 573.012 1359.48 570.188ZM1377.45 570.188C1379.2 567.364 1377.03 565.054 1372.62 565.054C1368.22 565.054 1364.62 567.364 1364.62 570.188C1364.62 573.012 1366.79 575.322 1369.45 575.322C1372.11 575.322 1375.71 573.012 1377.45 570.188V570.188ZM1395.42 570.188C1395.42 567.364 1393.11 565.054 1390.29 565.054C1387.47 565.054 1385.16 567.364 1385.16 570.188C1385.16 573.012 1387.47 575.322 1390.29 575.322C1393.11 575.322 1395.42 573.012 1395.42 570.188ZM1415.96 570.188C1415.96 567.364 1412.36 565.054 1407.96 565.054C1403.56 565.054 1401.38 567.364 1403.13 570.188C1404.87 573.012 1408.47 575.322 1411.13 575.322C1413.79 575.322 1415.96 573.012 1415.96 570.188ZM1431.37 567.318C1431.37 562.916 1429.05 560.742 1426.23 562.487C1423.41 564.232 1421.1 567.834 1421.1 570.491C1421.1 573.149 1423.41 575.322 1426.23 575.322C1429.05 575.322 1431.37 571.721 1431.37 567.318ZM1451.9 564.751C1451.9 562.094 1449.59 559.92 1446.77 559.92C1443.94 559.92 1441.63 563.522 1441.63 567.924C1441.63 572.327 1443.94 574.501 1446.77 572.755C1449.59 571.01 1451.9 567.408 1451.9 564.751ZM1947.9 561.31C1942.68 556.091 1938.37 563.949 1942.66 570.877C1945.89 576.111 1947.1 576.115 1948.84 570.899C1950.03 567.332 1949.61 563.018 1947.9 561.312V561.31ZM1970.47 570.491C1970.47 567.834 1968.16 564.232 1965.33 562.487C1962.51 560.742 1960.2 562.916 1960.2 567.318C1960.2 571.721 1962.51 575.322 1965.33 575.322C1968.16 575.322 1970.47 573.149 1970.47 570.491ZM1988.44 570.189C1990.18 567.365 1988.01 565.054 1983.61 565.054C1979.21 565.054 1975.6 567.365 1975.6 570.189C1975.6 573.012 1977.78 575.323 1980.43 575.323C1983.09 575.323 1986.69 573.012 1988.44 570.189V570.189ZM2006.41 570.189C2006.41 567.365 2004.1 565.054 2001.28 565.054C1998.45 565.054 1996.14 567.365 1996.14 570.189C1996.14 573.012 1998.45 575.323 2001.28 575.323C2004.1 575.323 2006.41 573.012 2006.41 570.189ZM2026.95 570.189C2026.95 567.365 2023.48 565.054 2019.24 565.054C2015.01 565.054 2011.54 567.365 2011.54 570.189C2011.54 573.012 2015.01 575.323 2019.24 575.323C2023.48 575.323 2026.95 573.012 2026.95 570.189ZM2042.35 570.189C2042.35 567.365 2040.04 565.054 2037.22 565.054C2034.39 565.054 2032.08 567.365 2032.08 570.189C2032.08 573.012 2034.39 575.323 2037.22 575.323C2040.04 575.323 2042.35 573.012 2042.35 570.189ZM2062.89 570.189C2062.89 567.365 2060.58 565.054 2057.75 565.054C2054.93 565.054 2052.62 567.365 2052.62 570.189C2052.62 573.012 2054.93 575.323 2057.75 575.323C2060.58 575.323 2062.89 573.012 2062.89 570.189ZM2673.87 570.787C2673.87 568.293 2669.25 565.043 2663.6 563.567C2656.93 561.821 2653.33 563.409 2653.33 568.102C2653.33 572.073 2657.95 575.323 2663.6 575.323C2669.25 575.323 2673.87 573.282 2673.87 570.787ZM1472.44 565.054C1472.44 562.231 1470.27 559.92 1467.61 559.92C1464.95 559.92 1461.35 562.231 1459.6 565.054C1457.86 567.878 1460.03 570.189 1464.43 570.189C1468.84 570.189 1472.44 567.878 1472.44 565.054ZM1487.84 565.054C1487.84 562.231 1485.53 559.92 1482.71 559.92C1479.88 559.92 1477.57 562.231 1477.57 565.054C1477.57 567.878 1479.88 570.189 1482.71 570.189C1485.53 570.189 1487.84 567.878 1487.84 565.054ZM1508.38 565.054C1508.38 562.231 1506.07 559.92 1503.25 559.92C1500.42 559.92 1498.11 562.231 1498.11 565.054C1498.11 567.878 1500.42 570.189 1503.25 570.189C1506.07 570.189 1508.38 567.878 1508.38 565.054ZM1528.92 565.054C1528.92 562.231 1526.61 559.92 1523.78 559.92C1520.96 559.92 1518.65 562.231 1518.65 565.054C1518.65 567.878 1520.96 570.189 1523.78 570.189C1526.61 570.189 1528.92 567.878 1528.92 565.054ZM1549.45 565.054C1549.45 562.231 1545.99 559.92 1541.75 559.92C1537.52 559.92 1534.05 562.231 1534.05 565.054C1534.05 567.878 1537.52 570.189 1541.75 570.189C1545.99 570.189 1549.45 567.878 1549.45 565.054ZM1569.99 565.054C1569.99 562.231 1566.53 559.92 1562.29 559.92C1558.05 559.92 1554.59 562.231 1554.59 565.054C1554.59 567.878 1558.05 570.189 1562.29 570.189C1566.53 570.189 1569.99 567.878 1569.99 565.054ZM1585.39 565.054C1585.39 562.231 1583.08 559.92 1580.26 559.92C1577.44 559.92 1575.13 562.231 1575.13 565.054C1575.13 567.878 1577.44 570.189 1580.26 570.189C1583.08 570.189 1585.39 567.878 1585.39 565.054ZM1605.93 562.487C1605.93 558.251 1603.62 554.786 1600.8 554.786C1597.97 554.786 1595.66 558.251 1595.66 562.487C1595.66 566.723 1597.97 570.189 1600.8 570.189C1603.62 570.189 1605.93 566.723 1605.93 562.487ZM1626.47 562.487C1626.47 558.251 1624.16 554.786 1621.34 554.786C1618.51 554.786 1616.2 558.251 1616.2 562.487C1616.2 566.723 1618.51 570.189 1621.34 570.189C1624.16 570.189 1626.47 566.723 1626.47 562.487ZM1647.01 562.487C1647.01 558.251 1644.7 554.786 1641.87 554.786C1639.05 554.786 1636.74 558.251 1636.74 562.487C1636.74 566.723 1639.05 570.189 1641.87 570.189C1644.7 570.189 1647.01 566.723 1647.01 562.487ZM1665.51 556.176C1660.29 550.957 1655.99 558.815 1660.27 565.743C1663.5 570.977 1664.71 570.981 1666.45 565.765C1667.64 562.198 1667.22 557.883 1665.51 556.177V556.176ZM1734.29 559.617C1734.29 556.96 1731.98 554.786 1729.16 554.786C1726.33 554.786 1724.02 558.388 1724.02 562.79C1724.02 567.192 1726.33 569.367 1729.16 567.621C1731.98 565.876 1734.29 562.274 1734.29 559.617ZM1754.83 562.487C1754.83 558.251 1752.52 554.786 1749.69 554.786C1746.87 554.786 1744.56 558.251 1744.56 562.487C1744.56 566.723 1746.87 570.189 1749.69 570.189C1752.52 570.189 1754.83 566.723 1754.83 562.487ZM1775.36 562.487C1775.36 558.251 1773.05 554.786 1770.23 554.786C1767.41 554.786 1765.1 558.251 1765.1 562.487C1765.1 566.723 1767.41 570.189 1770.23 570.189C1773.05 570.189 1775.36 566.723 1775.36 562.487ZM1795.9 562.487C1795.9 558.251 1793.59 554.786 1790.77 554.786C1787.94 554.786 1785.63 558.251 1785.63 562.487C1785.63 566.723 1787.94 570.189 1790.77 570.189C1793.59 570.189 1795.9 566.723 1795.9 562.487ZM1816.44 565.054C1816.44 562.231 1814.13 559.92 1811.31 559.92C1808.48 559.92 1806.17 562.231 1806.17 565.054C1806.17 567.878 1808.48 570.189 1811.31 570.189C1814.13 570.189 1816.44 567.878 1816.44 565.054ZM1836.98 565.054C1836.98 562.231 1833.51 559.92 1829.27 559.92C1825.04 559.92 1821.57 562.231 1821.57 565.054C1821.57 567.878 1825.04 570.189 1829.27 570.189C1833.51 570.189 1836.98 567.878 1836.98 565.054ZM1857.51 565.054C1857.51 562.231 1854.05 559.92 1849.81 559.92C1845.58 559.92 1842.11 562.231 1842.11 565.054C1842.11 567.878 1845.58 570.189 1849.81 570.189C1854.05 570.189 1857.51 567.878 1857.51 565.054ZM1872.92 565.054C1872.92 562.231 1870.61 559.92 1867.78 559.92C1864.96 559.92 1862.65 562.231 1862.65 565.054C1862.65 567.878 1864.96 570.189 1867.78 570.189C1870.61 570.189 1872.92 567.878 1872.92 565.054ZM1893.45 565.054C1893.45 562.231 1891.14 559.92 1888.32 559.92C1885.5 559.92 1883.19 562.231 1883.19 565.054C1883.19 567.878 1885.5 570.189 1888.32 570.189C1891.14 570.189 1893.45 567.878 1893.45 565.054ZM1913.99 565.054C1913.99 562.231 1911.68 559.92 1908.86 559.92C1906.03 559.92 1903.72 562.231 1903.72 565.054C1903.72 567.878 1906.03 570.189 1908.86 570.189C1911.68 570.189 1913.99 567.878 1913.99 565.054ZM1929.39 565.054C1929.39 562.231 1927.08 559.92 1924.26 559.92C1921.44 559.92 1919.13 562.231 1919.13 565.054C1919.13 567.878 1921.44 570.189 1924.26 570.189C1927.08 570.189 1929.39 567.878 1929.39 565.054ZM792.142 559.92C793.887 557.096 790.557 554.786 784.743 554.786C778.928 554.786 774.172 557.096 774.172 559.92C774.172 562.744 777.501 565.054 781.57 565.054C785.639 565.054 790.397 562.744 792.142 559.92ZM1688.08 559.92C1688.08 557.096 1685.77 554.786 1682.95 554.786C1680.12 554.786 1677.81 557.096 1677.81 559.92C1677.81 562.744 1680.12 565.054 1682.95 565.054C1685.77 565.054 1688.08 562.744 1688.08 559.92ZM1713.75 559.92C1713.75 557.096 1711.44 554.786 1708.62 554.786C1705.79 554.786 1703.48 557.096 1703.48 559.92C1703.48 562.744 1705.79 565.054 1708.62 565.054C1711.44 565.054 1713.75 562.744 1713.75 559.92ZM2617.39 559.92C2617.39 557.096 2612.64 554.786 2606.82 554.786C2601.01 554.786 2597.68 557.096 2599.42 559.92C2601.17 562.744 2605.93 565.054 2610 565.054C2614.06 565.054 2617.39 562.744 2617.39 559.92V559.92ZM851.187 549.652C851.187 546.828 846.565 544.517 840.918 544.517C835.27 544.517 830.649 546.828 830.649 549.652C830.649 552.475 835.27 554.786 840.918 554.786C846.565 554.786 851.187 552.475 851.187 549.652ZM2560.92 549.652C2560.92 546.828 2556.3 544.517 2550.65 544.517C2545 544.517 2540.38 546.828 2540.38 549.652C2540.38 552.475 2545 554.786 2550.65 554.786C2556.3 554.786 2560.92 552.475 2560.92 549.652ZM917.933 539.383C917.933 536.559 913.447 534.249 907.966 534.249C902.485 534.249 896.574 536.559 894.828 539.383C893.029 542.295 897.342 544.517 904.793 544.517C912.02 544.517 917.933 542.207 917.933 539.383ZM2496.74 539.383C2494.99 536.559 2489.08 534.249 2483.6 534.249C2478.12 534.249 2473.63 536.559 2473.63 539.383C2473.63 542.207 2479.55 544.517 2486.77 544.517C2494.22 544.517 2498.54 542.295 2496.74 539.383V539.383ZM989.813 528.516C989.813 526.021 984.037 523.981 976.977 523.981C969.571 523.981 964.142 526.937 964.142 530.97C964.142 535.657 968.37 537.151 976.977 535.505C984.037 534.156 989.813 531.011 989.813 528.516ZM2427.42 531.682C2427.42 527.403 2422.86 523.981 2417.16 523.981C2404.51 523.981 2403.57 532.63 2415.87 535.844C2420.81 537.135 2425.43 538.46 2426.14 538.788C2426.85 539.115 2427.42 535.918 2427.42 531.682ZM1060.41 520.13C1061.67 516.366 1058.13 513.712 1051.85 513.712C1045.55 513.712 1041.16 517.027 1041.16 521.79C1041.16 531.226 1057.18 529.845 1060.41 520.13V520.13ZM2350.88 521.413C2350.83 518.59 2346.1 515.541 2340.34 514.639C2330.02 513.021 2326.45 518.849 2333.47 525.869C2338.46 530.862 2350.97 527.662 2350.88 521.413ZM1143.84 511.857C1143.84 507.17 1139.61 505.676 1131.01 507.321C1123.95 508.671 1118.17 511.816 1118.17 514.31C1118.17 516.805 1123.95 518.846 1131.01 518.846C1138.41 518.846 1143.84 515.889 1143.84 511.857ZM2273.39 513.712C2273.39 510.888 2271.27 508.578 2268.68 508.578C2266.09 508.578 2260.31 507.176 2255.84 505.462C2250.51 503.416 2247.72 505.182 2247.72 510.596C2247.72 515.974 2252.19 518.846 2260.56 518.846C2267.62 518.846 2273.39 516.536 2273.39 513.712ZM1235 504.727C1236.33 500.704 1232.17 498.309 1223.85 498.309C1215.22 498.309 1210.59 501.126 1210.59 506.368C1210.59 516.023 1231.75 514.601 1235 504.727V504.727ZM2180.98 506.011C2180.98 501.219 2176.13 498.309 2168.14 498.309C2155.67 498.309 2151.75 503.309 2158.73 510.289C2165.19 516.748 2180.98 513.712 2180.98 506.011ZM1333.81 498.309C1333.81 495.486 1328.04 493.175 1320.98 493.175C1313.92 493.175 1308.14 495.486 1308.14 498.309C1308.14 501.133 1313.92 503.444 1320.98 503.444C1328.04 503.444 1333.81 501.133 1333.81 498.309ZM1446.77 492.576C1446.77 490.082 1439.84 488.041 1431.37 488.041C1417.2 488.041 1412 492.639 1418.65 499.286C1422.79 503.424 1446.77 497.702 1446.77 492.576ZM1975.6 492.872C1975.6 490.215 1968.67 488.041 1960.2 488.041C1942.28 488.041 1939.37 496.7 1956.35 499.499C1969.73 501.705 1975.6 499.684 1975.6 492.872V492.872ZM2083.42 498.309C2083.42 495.486 2077.65 493.175 2070.59 493.175C2063.53 493.175 2057.75 495.486 2057.75 498.309C2057.75 501.133 2063.53 503.444 2070.59 503.444C2077.65 503.444 2083.42 501.133 2083.42 498.309ZM1568.74 489.324C1570.12 485.122 1565.38 482.907 1555.02 482.907C1544.07 482.907 1539.19 485.388 1539.19 490.949C1539.19 500.733 1565.47 499.288 1568.74 489.324V489.324ZM1693.22 490.608C1693.22 486.33 1688.65 482.907 1682.95 482.907C1677.24 482.907 1672.68 486.33 1672.68 490.608C1672.68 494.887 1677.24 498.309 1682.95 498.309C1688.65 498.309 1693.22 494.887 1693.22 490.608ZM1718.89 490.608C1718.89 486.372 1715.42 482.907 1711.19 482.907C1706.95 482.907 1703.48 486.372 1703.48 490.608C1703.48 494.844 1706.95 498.309 1711.19 498.309C1715.42 498.309 1718.89 494.844 1718.89 490.608ZM1852.38 490.608C1852.38 485.474 1847.25 482.907 1836.98 482.907C1822.26 482.907 1817.64 487.526 1825 494.887C1831.72 501.607 1852.38 498.379 1852.38 490.608ZM1629.55 351.471C1627.06 344.994 1624.59 344.106 1620.48 348.213C1617.38 351.319 1616.37 357.868 1618.25 362.766C1620.74 369.242 1623.21 370.131 1627.32 366.023C1630.43 362.917 1631.43 356.368 1629.55 351.471ZM1662.41 354.551C1662.41 342.571 1660.13 339.148 1652.14 339.148C1644.15 339.148 1641.87 342.571 1641.87 354.551C1641.87 366.531 1644.15 369.954 1652.14 369.954C1660.13 369.954 1662.41 366.531 1662.41 354.551ZM1692.26 350.305C1693.45 338.267 1691.77 334.014 1685.84 334.014C1680.05 334.014 1677.81 339.15 1677.81 352.412C1677.81 375.61 1689.93 373.842 1692.26 350.305ZM1713.75 351.984C1713.75 342.101 1711.44 334.014 1708.62 334.014C1705.79 334.014 1703.48 342.101 1703.48 351.984C1703.48 361.867 1705.79 369.954 1708.62 369.954C1711.44 369.954 1713.75 361.867 1713.75 351.984ZM1749.69 354.174C1749.69 342.244 1747.62 338.8 1741.19 340.056C1732.83 341.689 1727.32 357.699 1732.33 365.81C1738.86 376.371 1749.69 369.111 1749.69 354.174V354.174ZM1775.36 359.988C1775.36 354.507 1773.05 348.595 1770.23 346.85C1767.32 345.05 1765.1 349.363 1765.1 356.815C1765.1 364.041 1767.41 369.954 1770.23 369.954C1773.05 369.954 1775.36 365.469 1775.36 359.988ZM2920.32 585.591C2916.08 582.854 2914.93 580.614 2917.75 580.614C2920.58 580.614 2926.35 582.854 2930.59 585.591C2934.82 588.329 2935.98 590.568 2933.15 590.568C2930.33 590.568 2924.55 588.329 2920.32 585.591Z" fill="#C6C6C6"/>
<path fill-rule="evenodd" clip-rule="evenodd" d="M1703.25 120.343C1705.63 106.96 1706.22 93.5774 1703.2 80.1943C1734.19 85.319 1781.47 70.6132 1787.71 105.878C1823.47 88.8598 1863.95 91.4772 1863.9 98.2313L1863.99 136.552C1836.42 122.834 1808.57 134.855 1781.81 139.729C1765.34 112.439 1726.9 119.885 1703.23 120.345L1703.25 120.343Z" fill="#409F11"/>
<path fill-rule="evenodd" clip-rule="evenodd" d="M1703.25 79.9318C1705.63 66.5487 1706.22 53.1658 1703.2 39.7827C1734.19 44.9074 1781.47 30.2016 1787.71 65.4667C1823.48 45.4829 1863.73 53.1767 1863.89 57.5264L1864.11 98.0441C1865 93.1016 1820.03 89.2037 1787.67 106.07C1782.02 69.1486 1723.13 86.7467 1703.21 80.2545L1703.25 79.9318Z" fill="white"/>
<path fill-rule="evenodd" clip-rule="evenodd" d="M1703.25 40.1496C1705.63 26.7665 1706.22 13.3835 1703.2 0.000488281C1734.19 5.12518 1783.87 -9.58061 1790.11 25.6845C1822.47 13.2837 1863.39 17.8027 1863.91 19.1191V58.0035C1863.97 48.7768 1796.54 56.829 1787.36 65.9362C1782.52 30.2597 1731.18 44.4827 1703.23 40.1514L1703.25 40.1496Z" fill="#DB861C"/>
<path d="M1783.66 86.3906C1788.59 86.3906 1792.58 82.396 1792.58 77.4685C1792.58 72.541 1788.59 68.5464 1783.66 68.5464C1778.73 68.5464 1774.74 72.541 1774.74 77.4685C1774.74 82.396 1778.73 86.3906 1783.66 86.3906Z" fill="#000088"/>
<path d="M1783.66 85.2753C1787.97 85.2753 1791.47 81.7801 1791.47 77.4685C1791.47 73.1569 1787.97 69.6616 1783.66 69.6616C1779.35 69.6616 1775.86 73.1569 1775.86 77.4685C1775.86 81.7801 1779.35 85.2753 1783.66 85.2753Z" fill="white"/>
<path d="M1783.66 79.03C1784.53 79.03 1785.22 78.3309 1785.22 77.4686C1785.22 76.6063 1784.53 75.9072 1783.66 75.9072C1782.8 75.9072 1782.1 76.6063 1782.1 77.4686C1782.1 78.3309 1782.8 79.03 1783.66 79.03Z" fill="#000088"/>
<path d="M1791.35 78.8748C1791.57 78.9029 1791.76 78.7524 1791.79 78.5387C1791.82 78.325 1791.67 78.1289 1791.45 78.1008C1791.24 78.0726 1791.04 78.2231 1791.02 78.4368C1790.99 78.6505 1791.14 78.8466 1791.35 78.8748Z" fill="#000088"/>
<path d="M1783.66 85.2755L1783.93 80.5914L1783.66 78.3608L1783.39 80.5914L1783.66 85.2755Z" fill="#000088"/>
</svg>
