<svg width="3393" height="1427" fill="none" xmlns="http://www.w3.org/2000/svg"><path d="M581.635 1422.17c-67.774-1.89-145.037-3.76-171.698-4.14-41.439-.59-47.134-1.67-39.234-7.45 11.132-8.14 8.948-25.82-3.485-28.22-7.045-1.35-8.927 1.91-8.927 15.48 0 16.67-.594 17.16-19.253 15.98-10.59-.67-63.137-3.86-116.773-7.09-110.469-6.65-216.487-16.73-220.754-21-4.648-4.65 1.946-16.91 12.705-23.63 15.07-9.41 344.075-2.44 344.075 7.29 0 9.41 10.402 8.65 17.676-1.3 4.724-6.46 11.017-7.41 30.09-4.55 13.264 1.99 24.115 5.67 24.115 8.17 0 6.03 14.068 5.88 16.259-.18 5.151-14.25 1741.099-19.7 2321.139-7.29l157.88 3.37v22.3c0 19.27 1.47 22.29 10.85 22.29 9.96 0 10.57-1.91 7.39-23.1l-3.46-23.11H2997.96l-3.46 23.11c-3.17 21.12-2.55 23.1 7.27 23.1 9.44 0 10.62-2.77 9.75-22.85-.55-12.57.08-23.8 1.39-24.96 1.32-1.16 82.3-3.53 179.96-5.28 173.27-3.1 177.83-2.92 188.68 7.19 23.35 21.75 20.61 22.62-101.83 32.67-141.62 11.62-269.06 17.88-477.49 23.45-205.28 5.48-2022.44 5.28-2220.595-.25Zm-141.194-17.25c0-4 1.402-10.94 3.116-15.4 2.234-5.82.055-8.12-7.701-8.12-8.597 0-10.818 3.16-10.818 15.4 0 10.27 2.567 15.4 7.701 15.4 4.236 0 7.702-3.28 7.702-7.28Zm-264.418-54.61c-62.125-1.95-116.998-3.85-121.94-4.2-7.796-.57-8.985-6.39-8.985-43.98v-43.33l21.82-2.86c28.178-3.69 262.786-18.3 293.958-18.3h23.832l-10.642 13.53c-5.852 7.44-10.64 16.68-10.64 20.53 0 3.86-2.311 7.01-5.135 7.01-2.823 0-5.134 2.31-5.134 5.14 0 12.06 18.569 3.62 25.672-11.67 5.53-11.9 11.715-17.03 21.936-18.21 12.102-1.39 15.38 1.11 21.889 16.69 4.21 10.08 11.09 18.32 15.288 18.32s7.633-1.25 7.633-2.77c0-7.83-21.569-43.5-28.728-47.51-8.497-4.76 21.161-6.57 270.041-16.51 187.562-7.5 571.152-15.27 756.032-15.31l163.01-.05v92.42H1636.74V1179.54l-306.78 3.5c-513.36 5.86-950.347 23.3-1243.22 49.62-52.407 4.71-68.332 4.14-61.752-2.23 4.412-4.26 96.411-13.28 104.365-10.23 4.561 1.75 11.152.85 14.646-2 3.494-2.85 29.457-6.7 57.696-8.56 28.239-1.85 67.516-5.6 87.283-8.33 19.767-2.73 56.735-5.83 82.149-6.89 25.416-1.07 72.779-4.56 105.254-7.77 32.475-3.21 71.175-4.34 86-2.5 16.67 2.06 26.955 1.38 26.955-1.78 0-7.98 167.77-14.12 176.982-6.47 7.27 6.03 28.303 2.79 33.525-5.17 4.456-6.79 215.637-12.33 215.637-5.65 0 3.36 8.67 5.81 20.54 5.81 14.83 0 20.54-2.14 20.54-7.7 0-6.52 12.42-7.7 80.86-7.72 44.48-.02 106.86-1.53 138.63-3.36 51.64-2.97 57.76-2.42 57.76 5.16 0 6.64 5.04 8.49 23.11 8.49 17.11 0 23.1-2 23.1-7.7 0-6.51 13.58-7.87 87.29-8.73 48-.57 95.94-1.14 106.53-1.29 16.15-.21 19.52 1.61 20.9 11.3 1.37 9.7 4.81 11.55 21.41 11.55 17.6 0 20.13-1.62 23.01-14.76 3.82-17.38 19.81-33.62 41.02-41.66 12.09-4.58 19.64-4.06 36.91 2.54 18.14 6.92 23.15 12.04 30.43 31.09 8.18 21.43 9.86 22.79 28.19 22.79 16.29 0 19.75-1.89 21.12-11.55l1.64-11.55 100.12 1.95c77.76 1.52 101.03 3.52 104.22 8.98 5.93 10.15 49.81 9.61 49.81-.61 0-6.66 17.41-7.25 134.77-4.52 105.58 2.44 136.01 4.66 140.48 10.21 6.87 8.55 43.08 9.59 43.08 1.23 0-6.76 211.15-1.25 215.62 5.63 5.22 8.04 26.24 11.3 33.59 5.2 8.98-7.45 170.08-1.63 175 6.33 1.77 2.86 15.36 3.7 32.03 1.96 15.92-1.66 54.36-.64 85.43 2.27 31.06 2.91 79.46 6.35 107.55 7.65 28.09 1.29 63.81 4.7 79.38 7.58 15.56 2.88 52.2 6.32 81.42 7.65 29.21 1.33 55.82 4.09 59.14 6.13 3.31 2.05 19.93 4.11 36.93 4.59 46.86 1.3 89.97 7.9 89.97 13.78 0 3.31-9.98 4.09-26.96 2.12-27.94-3.25-280.84-21.12-370.96-26.22-252.64-14.27-521.45-22.16-907.49-26.63l-306.77-3.55V1299.25h30.8v-92.42l157.88.06c285.61.11 1008.82 19.97 1016.77 27.92 1.1 1.1-3.01 4.67-9.12 7.94-6.11 3.27-13.47 12.7-16.35 20.96-2.87 8.25-7.31 15-9.86 15s-4.63 3.47-4.63 7.7c0 4.24 4.44 7.7 9.86 7.7 6.79 0 10.92-4.81 13.25-15.44 6.83-31.08 38.85-32.58 48.85-2.28 5.32 16.12 20.46 25.25 20.46 12.33 0-9.96-16.42-38.17-27.51-47.28-10.84-8.89-10.7-8.99 9.54-6.61 11.29 1.33 48.26 3.67 82.15 5.21 82.32 3.73 220.63 12.7 247.73 16.06l21.82 2.7v85.7l-47.5 2.9c-26.12 1.59-101.08 4.26-166.58 5.93l-119.1 3.03-1.56-26.87c-2.22-38.28-14.4-40.34-14.4-2.43v28.66h-56.47v-28.23c0-21.68-1.79-28.24-7.71-28.24-5.93 0-7.7 6.65-7.7 29.08v29.07l-284.95-3.4-569.91-6.82-284.96-3.4v-19.7c0-18.15-1.13-19.7-14.37-19.7-18.25 0-26.7 8.46-26.7 26.7v14.38H1647.01v-14.38c0-18.24-8.46-26.7-26.7-26.7-13.28 0-14.38 1.53-14.38 19.92v19.92l-373.52 4.47c-205.44 2.46-467.095 4.47-581.462 4.47h-207.94l.718-26.96c.531-19.93-1.141-26.95-6.418-26.95-5.227 0-7.136 7.55-7.136 28.24v28.23h-56.478v-28.23c0-21.68-1.788-28.24-7.701-28.24-5.912 0-7.702 6.56-7.702 28.24v28.23l-34.656-.93c-19.062-.51-85.486-2.53-147.612-4.48ZM30.496 1245.39c7.202-7.2 440.128-34.13 697.467-43.38 329.217-11.84 877.967-18.77 877.967-11.09 0 3.84-24.17 5.67-75.73 5.74-149.78.19-674.216 10.06-812.506 15.29-183.086 6.92-415.633 18.83-554.037 28.38-119.177 8.21-136.991 8.89-133.161 5.06Zm3228.684-2.92c-248.98-20.4-725.32-37.63-1206.56-43.63-145.43-1.82-265.38-4.23-266.56-5.36-1.18-1.13-.76-3.42.92-5.1 4.03-4.03 713.36 6.78 884.32 13.48 250.73 9.82 598 31.09 664.9 40.73l28.24 4.06-28.24-.09c-15.53-.05-50.19-1.89-77.02-4.09ZM45.098 1212.6c0-8.24 12.581-14.6 35.94-18.15 12.707-1.93 28.303-4.81 34.657-6.39 9.635-2.4 11.552-.78 11.552 9.78 0 11.73-2.327 12.91-31.559 15.96-41.853 4.38-50.59 4.17-50.59-1.2Zm3252.592 1.04c-31.88-3.98-38.51-6.94-38.51-17.17 0-13.13 5.03-12.94 80.87 3 6.35 1.33 11.55 5.85 11.55 10.03 0 7.63-16.06 8.86-53.91 4.14Zm-3149.906-18.61c0-11.78 2.581-13 38.718-18.38 55.565-8.26 58.834-7.89 58.834 6.67 0 13.92-4.797 15.53-62.895 21.04-34.278 3.25-34.657 3.15-34.657-9.33Zm3072.896 9.21c-2.83-.98-23.04-3.31-44.93-5.17l-39.79-3.38v-15.37c0-14.01 1.26-15.14 14.12-12.68 7.77 1.49 24.52 4.11 37.22 5.82 48.3 6.52 51.35 7.76 51.35 20.94 0 11.51-5.11 14.3-17.97 9.84Zm-2949.672-22.32c0-12.62 2.508-15.86 14.119-18.22 11.088-2.26 96.295-13.34 102.552-13.34.78 0 1.418 7.81 1.418 17.36v17.35l-50.059 3.51c-27.533 1.93-54.103 4.67-59.045 6.09-7.129 2.05-8.985-.58-8.985-12.75Zm-223.343 5.33c2.824-2.92 35.17-11.21 71.88-18.43 36.711-7.22 78.299-15.41 92.418-18.2l25.672-5.08-28.239 2.74c-26.917 2.61-139.864 24.19-159.925 30.56-12.069 3.83-12.488-6.02-.525-12.31 10.014-5.26 128.866-27.13 211.791-38.97 552.481-78.87 1425.573-103.42 2197.493-61.78 316.42 17.06 569.18 41.71 762.44 74.34 118.09 19.93 139.88 25.06 143.18 33.68 1.56 4.05.46 7.36-2.45 7.36-2.9 0-3.84 2.31-2.1 5.14 4.64 7.5-5.6 6.53-83.59-7.94-272.65-50.57-712.75-80.15-1309.09-87.97-206-2.7-252.87-4.59-252.87-10.18 0-5.61 39.27-7.02 214.36-7.71l214.36-.83-221.82-4.65c-132.43-2.78-309.33-2.77-438.99 0l-217.16 4.65 206.65.84c179.9.72 206.66 1.83 206.66 8.53 0 6.65-17.85 7.71-129.64 7.75-147.81.04-457.21 7.59-635.374 15.51-324.085 14.39-579.113 37.94-759.88 70.17-100.276 17.87-111.51 19.23-105.254 12.78h.003Zm3303.335-8.4c-3.46-3.46-130.11-28.57-141.24-28-5.29.27 20.41 6.85 57.13 14.63 67.36 14.27 88.34 17.6 84.11 13.37Zm-189.37-36.43c-21.18-3.65-54.68-7.89-74.45-9.44-26.74-2.08-20.83-.39 23.11 6.61 32.47 5.17 65.97 9.42 74.45 9.44 8.47.02-1.93-2.95-23.11-6.61Zm-2852.115-5.06 46.209-6.97-38.507 2.74c-21.179 1.51-47.749 4.58-59.045 6.82-33.965 6.76 1.142 4.99 51.343-2.59Zm202.318-20.41c77.925-7.08 167.097-15.03 198.16-17.67l56.477-4.81-59.044 2.35c-64.727 2.59-345.251 27.4-348.699 30.85-3.361 3.36 2.86 2.93 153.106-10.72Zm2527.857 9.25c-6.35-1.23-16.75-1.23-23.1 0-6.36 1.22-1.16 2.22 11.55 2.22s17.91-1 11.55-2.22Zm-65.46-6.89c-16.94-2.22-53.91-5.21-82.15-6.65l-51.34-2.62 59.04 6.57c67.75 7.53 128.14 9.72 74.45 2.7Zm-147.52-13.7c-7.72-1.17-21.58-1.19-30.81-.05-9.22 1.14-2.91 2.1 14.03 2.13 16.94.03 24.49-.91 16.78-2.08Zm-64.27-5.18c-9.18-1.14-24.2-1.14-33.38 0-9.17 1.14-1.66 2.07 16.69 2.07 18.36 0 25.87-.93 16.69-2.07Zm-69.43-5.16c-10.65-1.11-26.83-1.1-35.94.04-9.11 1.13-.4 2.04 19.37 2.02 19.77-.02 27.22-.95 16.57-2.06Zm-1861.077-5.15c-12.002-1.08-31.64-1.08-43.642 0-12.001 1.08-2.182 1.97 21.821 1.97s33.822-.89 21.821-1.97Zm1784.177.02c-10.59-1.11-27.92-1.11-38.51 0-10.59 1.11-1.92 2.02 19.26 2.02s29.84-.91 19.25-2.02Zm-1689.192-5.17c-13.413-1.05-35.363-1.05-48.776 0-13.414 1.06-2.439 1.93 24.388 1.93 26.826 0 37.801-.87 24.388-1.93Zm1602.082.01c-13.32-1.05-36.42-1.07-51.34-.03-14.92 1.04-4.03 1.9 24.21 1.92 28.24.01 40.45-.84 27.13-1.89Zm-1483.99-5.16c-16.24-1.02-42.81-1.02-59.047 0-16.238 1.02-2.953 1.85 29.517 1.85 32.48 0 45.76-.83 29.53-1.85Zm1370.86 0c-16.24-1.02-42.81-1.02-59.04 0-16.24 1.02-2.96 1.85 29.52 1.85 32.47 0 45.76-.83 29.52-1.85Zm-1198.86-5.16c-23.3-.95-61.42-.95-84.72 0-23.3.95-4.23 1.73 42.36 1.73s65.65-.78 42.36-1.73Zm1057.67 0c-23.3-.95-61.42-.95-84.72 0-23.3.95-4.23 1.73 42.36 1.73s65.65-.78 42.36-1.73Zm756.03 112.06c-30.58-2.97-30.82-3.12-32.47-20.39l-1.66-17.4 24.76 3.15c13.62 1.73 40.37 4.68 59.43 6.55 33.91 3.34 34.65 3.73 34.65 18.11 0 14.41-.51 14.67-26.95 13.83-14.83-.48-40.82-2.21-57.76-3.85Zm-2615.03-21.61c1.846-19.31-2.923-18.06 103.059-27.16l39.791-3.42v17.6c0 16.82-.96 17.73-21.821 20.52-12.001 1.61-44.515 4.47-72.253 6.35l-50.433 3.44 1.657-17.33Zm2512.34 13.05c-5.65-.88-30.49-3.08-55.19-4.89l-44.93-3.3v-36.43l39.79 3.38c101.85 8.67 97.62 7.53 99.88 26.88 1.93 16.49 1.25 17.33-13.63 16.66-8.61-.38-20.27-1.42-25.92-2.3Zm-2337.741-26.01 1.624-19.76 48.776-3.48c26.827-1.91 65.527-4.77 86-6.35l37.224-2.88v39.8l-68.03 3.35c-37.416 1.84-76.847 4.64-87.624 6.22l-19.594 2.86 1.624-19.76Zm2115.681 11.7-83.43-4.59v-40.08l47.49 3.35c128.44 9.05 124.32 8.25 126.19 24.6.93 8.11-.23 16.22-2.56 18.03-2.34 1.8-41.8 1.21-87.69-1.31Zm-1906.117-25.92v-17.56l32.09-2.83c17.649-1.55 66.168-4.24 107.821-5.97l75.726-3.15v40.33l-77.827 3.37c-42.807 1.86-91.326 3.37-107.821 3.37h-29.989v-17.56Zm1626.297 13.73-55.19-1.65v-41.9l83.43 3.33c45.89 1.83 94.41 4.62 107.82 6.2 23.76 2.8 24.39 3.33 24.39 20.36v17.49l-52.63-1.09c-28.94-.6-77.46-1.83-107.82-2.74Zm-1367.46-6.01c-1.16-1.18-2.12-9.52-2.12-18.54 0-15.95.74-16.48 26.95-19.63 14.83-1.78 77.21-3.26 138.63-3.29l111.67-.04v17.97c0 17.23-.79 18-19.25 18.6-130.64 4.26-254.18 6.64-255.88 4.93ZM56.532 1043.82l1.166-101.399 1.513 98.899 1.512 98.91 14.008-3.36c19.037-4.57 18.602-3.68 17.159-34.85-.717-15.47 1.133-29.13 4.202-31.03 3.628-2.24 5.483 5.98 5.483 24.3 0 15.23 1.142 28.83 2.538 30.22 1.396 1.4 9.483 1.52 17.97.28 15.306-2.25 15.433-2.54 15.433-35.06 0-37.76 9.952-45.45 10.875-8.4.334 13.41.334 26.12 0 28.24-.334 2.11 7.48 3.85 17.363 3.85h17.971v-33.75c0-29.38 1.163-33.53 8.985-32.02 7.067 1.37 9.056 7.2 9.319 27.34.323 24.81.793 25.59 15.403 25.59 14.812 0 15.095-.52 16.642-30.68 1.417-27.6 6.332-38.32 17.68-38.55 2.118-.05 3.851 13.78 3.851 30.73v30.8h35.94v-29.78c0-29.26 5.792-42.1 18.997-42.1 4.728 0 6.675 8.9 6.675 30.5 0 16.78 1.746 31.59 3.88 32.9 2.134 1.32 10.221 1.19 17.97-.29 13.582-2.6 14.09-3.86 14.09-34.92 0-24.65 1.909-32.96 8.121-35.34 20.013-7.68 22.685-4.12 22.685 30.26 0 35.73 1.794 37.56 29.522 30.13 10.562-2.83 11.553-6.12 11.553-38.43v-35.35h35.94v67.4l16.687-1.61 16.686-1.61 1.508-37.22 1.508-37.224h40.626v67.364l19.254-1.59 19.253-1.6 1.508-37.22 1.509-37.222h14.758c8.117 0 18.413-1.402 22.88-3.116 6.967-2.674 8.121 2.435 8.121 35.938 0 41.97 1.192 43.41 29.523 35.82 10.657-2.85 11.552-6.03 11.552-41v-37.91l16.686-.07c9.178-.039 21.886-1.464 28.239-3.166 11.24-3.013 11.552-2.039 11.552 36.006v39.11h41.075v-82.149l14.119-.056c7.766-.033 22.784-1.489 33.374-3.239l19.253-3.183v83.487h41.075v-43.636c0-41.822.482-43.643 11.552-43.686 6.354-.027 23.682-1.501 38.508-3.282l26.955-3.238v89.302l21.821-1.58 21.82-1.58 1.473-44.21 1.474-44.213 31.373-3.278c17.25-1.803 39.11-3.279 48.58-3.279h17.22v46.757c0 40.523 1.08 46.343 8.12 43.643 4.47-1.72 13.71-3.12 20.54-3.12 12.21 0 12.41-.76 12.41-46.206v-46.208l16.69-.038c9.18-.022 32.28-1.51 51.34-3.31l34.66-3.273V1022h45.84l1.47-50.058 1.47-50.059 60.33-1.447 60.32-1.446v97.88h46.21V914.768l64.19-1.577 64.19-1.576V1011.73h51.34V909.047h128.36v102.683h51.34v-97.548h128.36V1016.87h46.21v-97.554l26.96.038c14.82.022 42.55 1.509 61.61 3.31l34.65 3.273V1022h46.21v-92.414h27.53c15.13 0 38.24 1.469 51.34 3.265l23.82 3.265v84.804l20.54 1.96 20.53 1.96V939.854h24.96c13.72 0 35.59 1.458 48.58 3.238l23.62 3.238 1.48 41.687 1.48 41.683 21.82 1.58 21.83 1.58v-41.368c0-46.868-3.2-44.439 50.05-38.042l26.96 3.237v80.713h41.07v-78.352l19.26 3.182c10.59 1.75 25.61 3.208 33.37 3.239l14.12.057v77.014h41.08V1006c0-35.386.36-36.44 11.55-33.442 6.35 1.703 19.06 3.127 28.24 3.166l16.68.07v35.336c0 32.31 1 35.61 11.56 38.44 27.88 7.47 29.52 5.73 29.52-31.46v-34.689l23.1 1.838 23.11 1.837v70.844h41.07V993.492l20.32 1.937 20.31 1.938 1.51 34.133 1.5 34.14 16.69 1.61 16.69 1.61v-62.26h35.94v32.77c0 29.65 1.1 33.07 11.55 35.87 27.44 7.36 29.52 5.39 29.52-27.91 0-30.95.09-31.13 14.12-29.52 13.5 1.55 14.19 3.01 15.64 33.17 1.46 30.6 1.96 31.6 16.71 33.77 8.36 1.22 16.34 1.09 17.74-.31 1.4-1.4 2.54-15.02 2.54-30.28 0-25.83.79-27.63 11.55-26.1 10.38 1.48 11.71 4.91 13.08 33.73l1.53 32.09h16.81c16.69 0 16.81-.19 18.03-26.83 1.39-30.35 2.21-32.1 13.23-27.87 5.81 2.23 7.92 10.57 7.92 31.34 0 26.04 1.04 28.56 13.07 31.58 17.48 4.39 19.79 1.01 19.79-28.93 0-21.13 1.58-25.5 9.24-25.5 7.95 0 9.24 4.66 9.24 33.38v33.37h34.43l-.3-26.61c-.19-16.43 2.06-27.39 5.89-28.66 4.4-1.47 6.19 7.51 6.19 31.15 0 33 .1 33.24 15.43 35.49 8.49 1.24 16.57 1.12 17.97-.28 1.4-1.39 2.54-14.86 2.54-29.92 0-15.06 2.31-27.38 5.13-27.38 2.9 0 5.14 14.55 5.14 33.37 0 25.39 1.74 33.37 7.28 33.37 4 0 10.88 1.39 15.29 3.08 7.05 2.7 8.19-8.77 9.52-96.27l1.52-99.339 1.16 101.399c.83 71.8-.5 101.4-4.55 101.4-3.15 0-29.14-5.51-57.76-12.24-112.69-26.51-179.27-37.35-181.86-29.61-2.64 7.93-11.72 7.6-10.09-.36.8-3.94-8.25-7.51-24.39-9.62-20.05-2.62-27.08-1.59-32.09 4.68-5.83 7.3-6.42 7.3-6.42 0 0-4.9-6.27-9.29-16.05-11.25-23.95-4.79-45.56-3.88-45.56 1.93 0 2.82-3.47 5.13-7.7 5.13-4.24 0-7.71-3.16-7.71-7.03 0-4.13-7.92-8.34-19.25-10.21-29.88-4.94-37.22-3.96-37.22 4.95 0 5.42-2.79 7.18-8.12 5.14-4.47-1.72-9.09-3.12-10.27-3.12-1.18 0-2.15-3.46-2.15-7.7 0-5.46-5.59-7.72-19.25-7.77-10.59-.04-24.46-1.46-30.81-3.17-8.49-2.27-11.55-.89-11.55 5.21 0 5.43-4.44 8.3-12.84 8.3-7.47 0-12.83-2.95-12.83-7.06 0-7.34-21.36-13.48-46.85-13.48-10.03 0-14.77 2.6-14.77 8.11 0 6.47-3.38 7.38-16.68 4.51-9.18-1.98-18.54-6.78-20.79-10.68-4.82-8.29-60.08-10.08-60.08-1.94 0 2.83-10.39 5.14-23.1 5.14-17.12 0-23.11-2-23.11-7.71 0-5.68-5.94-7.7-22.68-7.7-12.48 0-26.34-1.4-30.81-3.11-5.33-2.05-8.12-.28-8.12 5.13 0 6.58-5.72 8.25-28.24 8.25-21.68 0-28.24-1.79-28.24-7.7 0-5.32-5.34-7.7-17.32-7.7-9.54 0-24.55-1.45-33.38-3.21-13.13-2.63-16.04-1.56-16.04 5.88 0 8.12-3.85 8.76-36.02 6.07-22.3-1.87-39.05-6.07-44.01-11.02-11.56-11.56-63.73-11.26-63.73.37 0 7.3-4.77 7.91-37.23 4.74-20.47-1.99-37.99-5.76-38.93-8.36-2.51-6.94-72.74-6.05-72.74.92 0 8.31-88.32 4.05-91.14-4.39-2.62-7.86-73.16-9.08-73.16-1.27 0 3.1-21.39 5.13-53.91 5.13-44.5 0-53.91-1.34-53.91-7.7 0-6.1-7.38-7.7-35.63-7.7-19.61 0-37.07 2.31-38.82 5.14-1.75 2.83-24.76 5.13-51.34 5.13-26.57 0-49.59-2.3-51.34-5.13-3.88-6.28-72.91-6.91-75.31-.7-2.43 6.31-100.86 11.54-104.56 5.56-4.43-7.17-74.28-6.24-74.28.98 0 4.29-21.96 4.87-82.15 2.17-57.57-2.58-82.15-2.02-82.15 1.86 0 3.46-14.41 5.53-38.51 5.53-22.25 0-38.5-2.17-38.5-5.14 0-8.1-53.21-6.12-64.49 2.41-11.06 8.36-79.27 11.13-79.27 3.22 0-5.82-63.549-.61-65.895 5.4-2.105 5.38-57.337 5.89-57.327.53 0-5.24-58.357-1.33-61.772 4.14-4.499 7.2-46.056 12.16-46.056 5.5 0-9.34-56.129-7.54-59.756 1.91-3.491 9.1-37.796 10.78-37.796 1.85 0-7.03-56.356-2.54-61.132 4.87-1.676 2.6-8.246 6.35-14.599 8.33-8.834 2.76-11.552 1.58-11.552-5.04 0-6.46-2.92-7.86-11.552-5.55-6.354 1.71-20.217 3.13-30.806 3.17-13.661.05-19.254 2.31-19.254 7.77 0 4.28-4.564 7.7-10.269 7.7-5.648 0-10.268-2.61-10.268-5.79 0-9-51.821-.45-60.306 9.94-5.202 6.38-7.797 6.98-9.759 2.27-3.611-8.67-37.02-8.08-54.356.97-7.717 4.02-15.191 5.44-16.606 3.15-4.096-6.63-50.906.12-57.41 8.28-4.181 5.24-6.488 5.63-7.92 1.33-2.881-8.64-66.676 1.46-179.416 28.41-30.034 7.18-57.182 13.05-60.328 13.05-4.05 0-5.38-29.6-4.554-101.4h-.019Zm2035.878 97.59-39.79-1.75-.01-19.04v-19.04l111.68 1.26c61.42.7 123.81 2.6 138.63 4.22 26.7 2.93 26.96 3.13 26.96 20.56v17.6l-98.84-1.03c-54.36-.57-116.74-1.82-138.63-2.78Zm-711.43-20.39 1.61-19.44 132.74-1.37 132.74-1.37-14.05 16.77c-7.73 9.23-19.62 18.34-26.42 20.24-6.81 1.91-60.94 3.72-120.3 4.04l-107.92.57 1.6-19.44Zm409.18 14.49c-12.27-2.06-23.32-8.79-32.54-19.81l-13.97-16.68h257.63v41.07l-96.27-.73c-52.95-.4-104.63-2.13-114.85-3.85ZM91.611 986.062c.318-39.541 2.693-71.879 5.274-71.879 2.608 0 4.69 31.914 4.69 71.879 0 45.748-1.916 71.878-5.272 71.878-3.383 0-5.064-25.75-4.691-71.878Zm3198.379 0c0-46.225 1.9-71.879 5.33-71.879 3.45 0 5.08 25.218 4.64 71.879-.37 39.538-2.77 71.878-5.32 71.878-2.56 0-4.65-32.34-4.65-71.878ZM137.516 973.603c0-66.137-.963-74.346-8.985-76.651-4.943-1.419-2.361-2.166 5.736-1.66l14.722.921-.488 71.879c-.268 39.538-.537 73.608-.602 75.728-.065 2.12-2.427 3.85-5.25 3.85-3.186 0-5.135-28.11-5.135-74.067h.002ZM3243.6 1046.39c-.1-.71-.67-36.03-1.28-78.507l-1.11-77.221 14.19 2.084c7.8 1.146 15.31 3.912 16.69 6.147 1.38 2.235-2.11 2.855-7.76 1.377-9.94-2.597-10.28-.177-10.28 72.358 0 46.602-1.95 75.042-5.13 75.042-2.83 0-5.22-.57-5.32-1.28ZM183.725 955.632c0-75.013-.818-82.562-8.986-82.941-5.765-.268-3.465-2.85 6.418-7.205 8.472-3.733 16.799-5.928 18.505-4.876 1.707 1.051 2.863 40.648 2.569 87.994-.482 77.656-1.416 86.256-9.521 87.816-8.257 1.6-8.985-4.96-8.985-80.788Zm3005.955 76.328c-1.85-2.99-2.56-43.397-1.59-89.784 1.72-81.564 2.12-84.237 12.05-81.217 5.65 1.717 13.73 5.083 17.97 7.48 6.48 3.667 6.28 4.381-1.28 4.513-8.18.142-8.99 7.55-8.99 82.303 0 68.105-1.26 82.145-7.4 82.145-4.07 0-8.91-2.45-10.76-5.44ZM235.068 938.038c0-81.253-.86-90.073-8.985-92.196-5.973-1.561-4.595-2.548 4.107-2.944 7.201-.328 15.918-3.421 19.372-6.874 4.948-4.949 5.981 14.342 4.877 91.066-1.266 87.98-2.265 97.51-10.386 99.07-8.281 1.59-8.985-5.32-8.985-88.122Zm2900.892-8.454c0-89.295 2.71-108.801 12.84-92.416 1.74 2.824 8.23 5.402 14.42 5.73 8.68.46 9.2 1.131 2.26 2.944-8.12 2.122-8.98 10.925-8.98 91.82 0 86.048-.4 89.468-10.27 89.468-9.91 0-10.27-3.42-10.27-97.546Zm-2844.415-7.701c0-94.922-.004-94.984-11.552-95.51-18.184-.829 42.283-19.34 64.34-19.697 11.859-.191 20.51-3.168 22.23-7.65 1.811-4.719 14.455-8.582 35.446-10.83 20.505-2.196 33.648-6.148 35.37-10.634 1.922-5.009 12.024-7.139 33.868-7.139 22.049 0 31.938-2.111 33.906-7.239 2.014-5.25 12.896-7.333 39.612-7.583 28.575-.267 38.277-2.317 43.265-9.138 5.288-7.233 13.723-8.578 47.51-7.576 32.668.969 41.08-.277 41.08-6.085 0-8.222 31.054-16.374 35.599-9.344 4.598 7.112 61.953.594 61.953-7.041 0-7.584 41.999-13.353 46.686-6.412 4.065 6.019 57.564-1.17 62.264-8.367 2.441-3.737 23.82-5.141 62.896-4.132 49.218 1.271 59.202.262 59.202-5.98 0-5.655 8.55-7.987 34.65-9.448 19.06-1.067 36.85-.109 39.54 2.129 8.28 6.912 57.99 4.643 65.63-2.996 7.61-7.607 80.95-14.15 80.95-7.222 0 6.237 63.98 4.733 70.37-1.654 8.08-8.08 93.93-12.943 93.93-5.32 0 8.484 70.33 7.946 73.16-.56 2.82-8.468 106.54-12.685 106.54-4.332 0 7.183 70.03 7.636 74.45.481 1.75-2.832 24.77-5.134 51.34-5.134 26.58 0 49.6 2.302 51.35 5.134 4.42 7.154 74.44 6.702 74.44-.481 0-7.579 101.72-4.187 106.73 3.559 5.17 7.976 72.98 9.54 72.98 1.684 0-8.039 85.1-3.861 93.55 4.593 6.66 6.661 70.74 8.5 70.74 2.03 0-6.928 73.35-.385 80.95 7.222 7.83 7.83 57.68 9.846 65.64 2.655 2.68-2.426 20.47-3.312 39.53-1.97 26.63 1.876 34.66 4.262 34.66 10.301 0 6.774 7.38 7.382 53.41 4.406 42.52-2.749 54.89-1.982 60.63 3.76 8.9 8.904 70.79 17.014 70.79 9.277 0-7.12 36.95-1.475 43.65 6.666 6.35 7.726 62.95 14.139 65.21 7.388 2.53-7.592 34.91.856 34.91 9.108 0 5.808 8.41 7.054 41.08 6.085 33.78-1.002 42.22.343 47.51 7.576 4.98 6.821 14.69 8.87 43.26 9.138 26.72.25 37.6 2.333 39.61 7.583 1.96 5.099 11.75 7.239 33.12 7.239 20.34 0 32.39 2.472 36.56 7.499 3.42 4.124 20.07 9.065 37 10.981 18.55 2.098 31.85 6.259 33.47 10.471 1.54 4.035 10.58 7.121 21.38 7.302 21.59.362 81.43 18.885 63.63 19.697-11.54.526-11.55.588-11.55 95.51v94.987h-25.67V817.915l-16.22-3.245c-8.93-1.784-16.93-2.544-17.78-1.689-.86.855-1.83 44.769-2.16 97.586l-.61 96.033H3007.81l-1.39-103.97-1.39-103.968-19.25-1.594-19.25-1.594v204.696l-16.69-3.413-16.69-3.409-1.38-105.756c-1.37-104.51-1.52-105.792-12.84-108.825-24.93-6.682-24.28-9.423-24.28 103.461v106.671l-20.54-1.958-20.54-1.959V766.454l-16.68-2.538c-9.18-1.396-18.42-1.522-20.54-.28-2.12 1.243-3.85 50.08-3.85 108.528v106.269l-23.11-1.837-23.1-1.838V862.322c0-103.632-.7-112.441-8.99-112.506-4.94-.044-14.18-1.463-20.53-3.166l-11.56-3.096v224.822l-26.95-2.71-26.96-2.71-1.38-114.236-1.38-114.237h-40.88v220.772l-21.82-.07c-48.37-.156-44.92 9.127-44.92-121.183V719.081h-41.08v225.906l-19.25-.056c-10.59-.033-27.92-1.489-38.51-3.239l-19.25-3.183V709.936l-19.26-2.413c-10.59-1.327-20.98-1.443-23.1-.258-2.12 1.185-3.85 53.181-3.85 115.547v113.392l-34.66-3.273c-19.06-1.801-41.01-3.29-48.78-3.31l-14.11-.038V814.662c0-114.838 0-114.924-11.56-118.017-31.03-8.317-29.52-14.107-29.52 113.026v116.263l-34.66-3.273c-19.06-1.801-42.16-3.29-51.34-3.31l-16.69-.038V688.272h-46.2v227.444l-47-3.336c-25.85-1.835-53.68-3.336-61.84-3.336-8.89 0-14.5-2.572-14-6.418.46-3.529.55-55.646.22-115.815l-.61-109.397-21.82 1.578-21.82 1.579-1.37 112.953-1.37 112.953-63.99-1.575-64-1.576-1.38-113.944-1.38-113.945h-46.21l-1.38 114.236-1.38 114.237H1631.8l-1.38-114.237-1.38-114.236h-46.21l-1.38 114.236-1.39 114.237H1452.1l-1.38-111.67-1.39-111.669-21.82-1.579-21.82-1.578v113.409c0 86.215-1.54 113.899-6.42 115.452-3.52 1.124-31.25 2.982-61.61 4.131l-55.19 2.087V688.272h-46.21v224.511l-23.82 3.265c-13.1 1.796-36.21 3.265-51.34 3.265h-27.53V692.787l-19.25 1.593-19.25 1.594-1.38 113.515-1.38 113.515-31.47 3.289c-17.3 1.808-39.21 3.288-48.68 3.288h-17.212V819.498c0-60.545-1.95-111.288-4.333-112.76-2.382-1.473-12.78-1.307-23.105.369l-18.771 3.046v223.219l-19.254 3.182c-10.59 1.75-27.918 3.208-38.507 3.239l-19.254.056V719.078h-41.075V943.7l-16.044 3.209c-8.825 1.765-23.843 3.209-33.374 3.209h-17.328V734.48h-41.075v109.837c0 122.176 1.914 116.069-36.36 116.069h-20.117V743.551l-11.552 3.096c-6.354 1.703-15.55 3.127-20.436 3.166-8.097.063-9.006 9.732-10.269 109.172l-1.385 109.103-21.821 1.578-21.821 1.579V868.568c0-56.472-1.733-103.693-3.85-104.935-2.118-1.242-11.36-1.116-20.538.28l-16.686 2.538v214.472h-12.416c-6.829 0-16.071 1.403-20.537 3.117-7.244 2.78-8.122-8.317-8.122-102.685V775.554l-11.552.078c-23.478.16-24.092 2.81-25.559 110.335l-1.396 102.244-16.687 3.409-16.686 3.409V795.471l-19.254 1.594-19.254 1.593-1.39 100.83c-1.356 98.337-1.663 100.902-12.443 103.722-6.079 1.59-13.024 1.67-15.432.18-2.408-1.49-4.146-44.329-3.86-95.205.284-50.876-.643-93.664-2.064-95.085-1.421-1.421-9.681-1.025-18.355.88l-15.769 3.463v96.594c0 99.733-.631 102.823-20.957 102.823-2.693 0-4.715-40.722-4.715-94.981v.004Zm-244.09-7.47c15.386-17 89.986-64.29 143.971-91.263C425.908 705.991 756.683 643.814 1295.3 615.648c153.16-8.009 649.29-8.018 800.96-.016 525.24 27.714 848.43 86.516 1080.44 196.582 60.52 28.715 155.1 86.865 169.51 104.22 5.65 6.81 5.11 8.015-3.62 8.015-5.65 0-13.07-3.378-16.5-7.506-12.33-14.862-91-61.749-138.79-82.721-220.76-96.884-577.75-158.673-1080.77-187.067-161.99-9.143-508.03-12.009-677.73-5.613C736.134 667.649 279.451 756.821 82.542 904.41c-29.396 22.034-51.74 28.403-35.087 10.002v.001Zm-28.029-7.933c0-4.235-2.31-7.701-5.134-7.701-7.353 0-6.351-32.519 1.283-41.669 24.889-29.83 168.844-110.763 259.316-145.789 20.491-7.934 36.294-15.386 35.119-16.56-3.135-3.135-98.534 36.074-153.33 63.018-29.129 14.322-41.661 18.778-32.51 11.558 26.139-20.621 105.123-64.27 156.308-86.381 27.266-11.778 76.437-33.741 109.269-48.807 38.129-17.495 63.634-26.361 70.597-24.54 7.793 2.038 10.903.484 10.903-5.449 0-7.992 7.91-10.506 26.955-8.569 4.941.503 8.985-1.46 8.985-4.362s4.812-7.852 10.695-11.001c8.415-4.503 12.606-3.994 19.658 2.387 4.929 4.46 12.246 7.948 16.26 7.749 4.376-.216 3.339-1.911-2.589-4.233-9.586-3.756-9.547-4.212 1.284-15.042 11.493-11.493 26.572-15.009 26.572-6.196 0 2.735 3.466 3.643 7.702 2.018 4.236-1.626 7.701-5.904 7.701-9.509 0-8.556 21.696-14.183 26.254-6.809 4.636 7.5 19.955 1.417 19.955-7.925 0-8.835 27.139-16.85 29.821-8.807 3.003 9.01 14.991 6.284 17.686-4.022 2.814-10.759 30.719-20.195 33.657-11.38 2.884 8.652 14.438 6.481 22.179-4.167 7.84-10.784 35.284-19.298 35.284-10.946 0 8.072 14.359 6.186 19.235-2.528 2.389-4.267 11.724-9.876 20.745-12.464 12.913-3.703 17.346-3.019 20.835 3.216 3.833 6.848 5.825 6.423 14.741-3.147 11.462-12.302 47.668-20.902 47.668-11.322 0 3.193 4.62 5.806 10.268 5.806 5.648 0 10.269-3.33 10.269-7.399 0-9.531 3.175-11.205 29.522-15.565 17.548-2.903 21.821-2.107 21.821 4.062 0 5.144 3.384 6.787 10.269 4.986 5.647-1.476 10.269-5.592 10.269-9.146 0-3.553 7.222-7.904 16.042-9.669 23.97-4.794 41.47-3.904 37.87 1.925-1.8 2.912 2.51 5.135 9.96 5.135 8.18 0 13.14-2.87 13.14-7.604 0-7.606 8.49-10.663 39.79-14.333 11.43-1.339 16.69.192 16.69 4.856 0 3.843 5.59 6.812 12.84 6.812 7.54 0 12.83-2.946 12.83-7.152 0-9.692 11.45-13.385 41.5-13.385 17.88 0 25.25 2.041 25.25 6.99 0 4.686 4.23 6.181 12.83 4.535 7.06-1.349 12.84-5.361 12.84-8.915 0-7.312 22.47-12.878 51.98-12.878 14.27 0 19.9 2.18 19.9 7.701 0 12.041 23.93 9.779 27.16-2.567 2.39-9.131 7-10.268 41.67-10.268 31.24 0 38.99 1.531 38.99 7.701 0 4.792 4.85 7.701 12.84 7.701 9.41 0 12.83-2.738 12.83-10.268 0-9.463 3.42-10.269 43.64-10.269s43.65.806 43.65 10.269c0 14.776 30.58 14.776 34.45 0 2.43-9.297 7-10.269 48.29-10.269 42.7 0 45.61.679 45.61 10.626 0 8.082 2.77 10.233 11.56 8.985 9.44-1.342 11.55-4.89 11.55-19.473V388.2l-112.96 1.246c-416.99 4.603-791.33 69.153-1078.409 185.96-27.654 11.251-51.089 19.648-52.079 18.658-.989-.99 23.537-12.617 54.504-25.837 284.922-121.64 600.434-183.636 1000.254-196.545l103.97-3.357v-14.408c0-17.712 8.32-22.531 53.15-30.791 19.44-3.583 32.43-8.269 29.91-10.792-2.52-2.522-20.97-.753-42.47 4.073-46.41 10.416-57.8 11.348-61.13 5-3.48-6.667 59.59-28.161 83.13-28.331 10.43-.075 20.61-2.806 22.62-6.07 3.76-6.084-37.99-3.596-63.39 3.778-16.83 4.887-14.44-4.878 6.98-28.597 10.92-12.078 26.75-22.975 38.51-26.499l19.98-5.984V114.997c0-73.05 1.95-114.997 1.95-114.997l7.66.285s.65 77.896.65 114.274v114.266l25.31 11.61c15.76 7.231 29.32 18.099 35.94 28.814 15.88 25.696 13.88 28.801-13.29 20.625-26.33-7.926-47.96-9.386-47.96-3.24 0 2.178 13.48 6.522 29.96 9.653 39.31 7.469 82.67 26.451 73.45 32.15-3.9 2.414-19.19.428-35.85-4.658-36.02-10.993-67.56-16.065-67.56-10.864 0 2.159 15.42 6.764 34.26 10.235 43.58 8.031 51.97 12.712 53.97 30.119 1.57 13.651 2.73 14.159 35 15.27 453.91 15.638 755.03 70.812 1043.81 191.259 50.56 21.085 48.72 26.223-2.18 6.092-275.54-108.988-657.19-173.278-1044.2-175.899-59.3-.401-110.71-.453-114.24-.114-3.79.365-6.42 7.962-6.42 18.586 0 14.547 1.96 17.97 10.27 17.97 6.85 0 10.27-3.423 10.27-10.268 0-9.54 3.42-10.269 48.21-10.269 42.76 0 48.12 1.016 47.49 8.985-.52 6.572 3.77 9.417 15.97 10.594 13.96 1.345 16.69-.126 16.69-8.985 0-9.83 3-10.594 41.55-10.594 37.61 0 41.82 1.004 44.32 10.545 2.05 7.837 6.21 10.144 16.2 8.985 7.44-.862 12.88-4.431 12.17-7.978-.94-4.683 9.25-6.417 37.7-6.417 34.67 0 39.29 1.137 41.68 10.268 3.22 12.346 27.16 14.608 27.16 2.567 0-5.521 5.63-7.701 19.89-7.701 29.52 0 51.99 5.566 51.99 12.878 0 10.045 24.88 12.978 26.77 3.156 2.68-13.92 65.64-6.808 65.64 7.416 0 4.423 5.12 7.355 12.84 7.355 7.89 0 12.84-2.918 12.84-7.573 0-5.691 4.14-6.883 16.68-4.796 34.95 5.816 39.79 7.646 39.79 15.034 0 9.022 23.83 10.562 26.78 1.731 2.81-8.441 50.24-.742 50.24 8.156 0 3.733 4.62 7.996 10.27 9.472 6.88 1.801 10.27.158 10.27-4.986 0-6.169 4.27-6.965 21.82-4.061 26.34 4.359 29.52 6.033 29.52 15.564 0 4.069 4.62 7.399 10.27 7.399 5.64 0 10.27-2.613 10.27-5.806 0-9.435 33.86-1.4 46.23 10.969 9.49 9.49 11.93 10.007 17.08 3.625 7.63-9.468 39.37-1.949 39.37 9.328 0 4.155 4.62 7.555 10.27 7.555 5.65 0 10.27-2.355 10.27-5.232 0-8.352 27.44.162 35.28 10.946 7.74 10.648 19.3 12.819 22.18 4.167 2.94-8.814 30.85.621 33.66 11.38 2.69 10.306 14.68 13.033 17.69 4.023 2.68-8.044 29.82-.033 29.82 8.806 0 9.342 15.32 15.426 19.95 7.925 4.56-7.374 26.26-1.747 26.26 6.809 0 8.252 14.04 14.011 18.1 7.428 4.82-7.797 11.17-5.843 26.17 8.062 9.37 8.688 15.18 11.056 17.58 7.171 4.13-6.682 25.43 2.349 25.43 10.782 0 2.692 4.04 4.555 8.98 4.141 18.89-1.583 26.96 1.165 26.96 9.174 0 5.883 3.11 7.485 10.7 5.502 6.62-1.732 29.6 6.026 60.33 20.368 27.29 12.741 69.26 31.335 93.27 41.32 53.77 22.368 95.06 42.901 138.62 68.94 53.97 32.253 62.59 42.665 16.56 20.002-79.3-39.046-244.32-102.679-250.43-96.568-1.2 1.198 11.08 6.288 27.28 11.31 122.05 37.828 301.75 127.778 354.21 177.299 11.87 11.208 16.74 46.446 6.41 46.446-2.82 0-5.13 3.466-5.13 7.701 0 10.874-7.2 9.584-23.99-4.295-98.11-81.09-281.9-159.897-479.17-205.461-271.51-62.708-591.45-92.6-1060.24-99.058-660.11-9.093-1163.155 44.058-1488.956 157.321-68.943 23.968-194.061 87.768-246.447 125.669-25.415 18.388-47.942 33.453-50.06 33.479-2.118.027-3.85-3.419-3.85-7.655v-.003Zm353.418-231.141c18.823-6.584 31.739-12.142 28.704-12.352-7.106-.492-79.903 24.217-83.88 28.471-3.505 3.749 7.888.42 55.176-16.119Zm147.179-2.466c1.745-2.824.725-5.134-2.265-5.134-2.991 0-5.437 2.31-5.437 5.134 0 2.824 1.018 5.134 2.264 5.134 1.245 0 3.693-2.31 5.438-5.134Zm-65.57-23.639c-1.706-1.706-6.134-1.888-9.841-.405-4.096 1.639-2.879 2.855 3.102 3.102 5.413.223 8.445-.991 6.739-2.697Zm170.823-2.032c0-2.824-1.018-5.134-2.263-5.134-1.246 0-3.693 2.31-5.438 5.134-1.745 2.824-.727 5.134 2.263 5.134 2.991 0 5.438-2.31 5.438-5.134Zm2151.284 2.87c0-1.245-2.31-3.692-5.14-5.437-2.82-1.745-5.13-.727-5.13 2.264 0 2.99 2.31 5.437 5.13 5.437 2.83 0 5.14-1.019 5.14-2.264Zm173.17-.838c-1.7-1.706-6.13-1.888-9.84-.405-4.09 1.639-2.88 2.855 3.1 3.102 5.42.223 8.45-.991 6.74-2.697Zm-2465.648-7.166c6.473-2.782 7.422-4.413 2.568-4.413-4.236 0-12.323 1.986-17.971 4.413-6.472 2.781-7.421 4.412-2.567 4.412 4.236 0 12.323-1.985 17.97-4.412Zm182.269 0c0-2.824-2.311-5.135-5.134-5.135-2.824 0-5.135 2.311-5.135 5.135s2.311 5.134 5.135 5.134c2.823 0 5.134-2.31 5.134-5.134Zm2069.129 0c0-2.824-2.31-5.135-5.13-5.135s-5.14 2.311-5.14 5.135 2.32 5.134 5.14 5.134 5.13-2.31 5.13-5.134Zm187.41.34c-5.65-2.278-18.36-5.507-28.24-7.174-17.72-2.989-17.68-2.931 2.56 4.073 22.04 7.623 43.23 10.183 25.68 3.101Zm-2482.449-5.475c0-2.823-2.175-5.134-4.832-5.134-2.658 0-6.259 2.311-8.004 5.134-1.745 2.824.426 5.135 4.831 5.135 4.402 0 8.005-2.311 8.005-5.135Zm2266.799 0c1.75-2.823.73-5.134-2.26-5.134-2.99 0-5.44 2.311-5.44 5.134 0 2.824 1.02 5.135 2.27 5.135 1.24 0 3.69-2.311 5.43-5.135Zm256.72 0c-1.74-2.823-5.35-5.134-8-5.134-2.66 0-4.84 2.311-4.84 5.134 0 2.824 3.61 5.135 8.01 5.135s6.58-2.311 4.83-5.135ZM476.381 625.688c0-6.748-11.669-2.523-14.228 5.152-1.25 3.752 1.097 4.899 6.097 2.981 4.472-1.716 8.131-5.376 8.131-8.133Zm34.55 8.144c-1.706-1.706-6.135-1.889-9.841-.406-4.096 1.639-2.879 2.856 3.102 3.102 5.412.223 8.445-.99 6.739-2.696Zm220.539-8.13c-1.639-4.095-2.856-2.879-3.102 3.102-.225 5.413.991 8.445 2.697 6.739 1.706-1.706 1.888-6.134.405-9.841Zm1930.51 0c-1.64-4.095-2.86-2.879-3.11 3.102-.22 5.413.99 8.445 2.7 6.739 1.71-1.706 1.89-6.134.41-9.841Zm-2113.719.963c10.165-3.255 10.699-4.11 2.568-4.11-5.648 0-16.045 1.849-23.105 4.11-10.164 3.255-10.698 4.111-2.567 4.111 5.648 0 16.045-1.85 23.104-4.111Zm200.239 0c0-2.824-2.31-5.134-5.134-5.134-2.824 0-5.135 2.31-5.135 5.134 0 2.824 2.311 5.134 5.135 5.134s5.134-2.31 5.134-5.134Zm12.836 0c1.745-2.824.726-5.134-2.265-5.134-2.99 0-5.437 2.31-5.437 5.134 0 2.824 1.019 5.134 2.264 5.134 1.245 0 3.693-2.31 5.438-5.134Zm1876.594 0c0-2.824-2.45-5.134-5.44-5.134s-4.01 2.31-2.26 5.134c1.74 2.824 4.19 5.134 5.44 5.134 1.24 0 2.26-2.31 2.26-5.134Zm15.4 0c0-2.824-2.31-5.134-5.13-5.134s-5.13 2.31-5.13 5.134c0 2.824 2.31 5.134 5.13 5.134s5.13-2.31 5.13-5.134Zm219.39 2.032c-1.71-1.706-6.13-1.888-9.84-.405-4.1 1.639-2.88 2.856 3.1 3.102 5.41.223 8.45-.991 6.74-2.697Zm55.3-2.032c-1.75-2.824-5.35-5.134-8-5.134-2.66 0-4.84 2.31-4.84 5.134 0 2.824 3.61 5.134 8.01 5.134s6.58-2.31 4.83-5.134ZM512.321 616.009c0-2.434-3.465-3.095-7.701-1.469-4.236 1.625-7.702 4.946-7.702 7.379s3.466 3.094 7.702 1.468c4.236-1.625 7.701-4.945 7.701-7.378Zm2330.979 5.522c-7.06-2.261-17.45-4.111-23.1-4.111-8.13 0-7.6.856 2.57 4.111 7.06 2.261 17.45 4.111 23.1 4.111 8.13 0 7.6-.856-2.57-4.111Zm46.21-5.134c-4.07-2.517-8.56-3.421-9.97-2.009-1.41 1.412.77 4.626 4.84 7.143 4.07 2.517 8.56 3.42 9.97 2.008 1.41-1.412-.76-4.626-4.84-7.142Zm-2311.833 2.032c-1.706-1.706-6.134-1.889-9.841-.406-4.096 1.639-2.879 2.856 3.102 3.102 5.413.223 8.445-.99 6.739-2.696Zm227.301-2.032c0-2.824-1.019-5.135-2.264-5.135-1.245 0-3.692 2.311-5.438 5.135-1.745 2.823-.727 5.134 2.264 5.134 2.99 0 5.438-2.311 5.438-5.134Zm15.403 0c0-2.824-2.311-5.135-5.135-5.135-2.823 0-5.134 2.311-5.134 5.135 0 2.823 2.311 5.134 5.134 5.134 2.824 0 5.135-2.311 5.135-5.134Zm12.835 0c1.746-2.824.726-5.135-2.265-5.135-2.99 0-5.436 2.311-5.436 5.135 0 2.823 1.018 5.134 2.264 5.134 1.245 0 3.693-2.311 5.437-5.134Zm1732.834 0c0-2.824-2.45-5.135-5.44-5.135s-4.01 2.311-2.26 5.135c1.74 2.823 4.19 5.134 5.44 5.134 1.24 0 2.26-2.311 2.26-5.134Zm15.4 0c0-2.824-2.31-5.135-5.13-5.135s-5.14 2.311-5.14 5.135c0 2.823 2.32 5.134 5.14 5.134s5.13-2.311 5.13-5.134Zm15.41 2.87c0-1.246-2.31-3.692-5.14-5.438-2.82-1.745-5.13-.726-5.13 2.264 0 2.991 2.31 5.438 5.13 5.438 2.83 0 5.14-1.019 5.14-2.264ZM545.274 613.28c11.789-4.524 9.978-11.81-2.147-8.64-5.648 1.477-10.269 4.727-10.269 7.221 0 5.368 1.638 5.555 12.416 1.419Zm55.614-.284c-3.53-1.424-9.305-1.424-12.836 0-3.529 1.424-.642 2.59 6.418 2.59 7.06 0 9.948-1.166 6.418-2.59Zm250.299 1.136c0-1.245-2.311-3.692-5.135-5.437-2.823-1.745-5.134-.727-5.134 2.264 0 2.99 2.311 5.437 5.134 5.437 2.824 0 5.135-1.019 5.135-2.264Zm24.044-8.967c-1.639-4.096-2.856-2.879-3.102 3.102-.225 5.412.991 8.445 2.697 6.739 1.706-1.706 1.888-6.135.405-9.841Zm1642.979 0c-1.63-4.096-2.85-2.879-3.1 3.102-.22 5.412.99 8.445 2.7 6.739 1.71-1.706 1.89-6.135.4-9.841Zm32.44 6.097c0-2.824-1.02-5.134-2.27-5.134-1.24 0-3.69 2.31-5.43 5.134-1.75 2.824-.73 5.134 2.26 5.134 2.99 0 5.44-2.31 5.44-5.134Zm246.45 0c-7.06-2.261-17.46-4.111-23.11-4.111-8.13 0-7.6.856 2.57 4.111 7.06 2.261 17.45 4.111 23.1 4.111 8.13 0 7.6-.856-2.56-4.111Zm61.61.549c0-5.694-15.8-12.137-19.84-8.092-1.64 1.632.43 5.117 4.58 7.744 9.6 6.071 15.26 6.2 15.26.349v-.001Zm-2205.195-7.948c16.944-3.823 25.03-6.967 17.97-6.985-14.403-.038-68.52 12.947-56.477 13.55 4.235.212 21.564-2.742 38.507-6.565Zm267.925-3.832c-1.639-4.096-2.856-2.879-3.102 3.102-.225 5.412.991 8.445 2.697 6.739 1.706-1.707 1.888-6.135.405-9.841Zm1550.57 0c-1.64-4.096-2.86-2.879-3.11 3.102-.22 5.412.99 8.445 2.7 6.739 1.71-1.707 1.89-6.135.41-9.841Zm-1878.956-2.484c1.274-3.826-1.841-5.009-8.559-3.252-5.81 1.519-10.562 4.972-10.562 7.674 0 6.816 16.662 2.963 19.121-4.422Zm374.595-2.65c-1.639-4.096-2.856-2.88-3.102 3.102-.225 5.412.991 8.444 2.697 6.738 1.706-1.706 1.888-6.134.405-9.84Zm1458.151 0c-1.64-4.096-2.86-2.88-3.11 3.102-.22 5.412 1 8.444 2.7 6.738 1.71-1.706 1.89-6.134.41-9.84Zm322.52 6.097c-8.47-2.156-21.18-3.92-28.24-3.92-11.45 0-11.17.424 2.57 3.92 8.47 2.155 21.18 3.919 28.24 3.919 11.45 0 11.17-.423-2.57-3.919Zm61.99-2.678c-5.45-4.117-11.16-6.228-12.69-4.692-3.22 3.223 9.82 12.388 17.44 12.262 2.83-.044.69-3.453-4.75-7.57Zm-1792.48-2.102c1.63-2.629.61-6.231-2.26-8.004-2.87-1.774-5.22.376-5.22 4.779 0 9.018 3.08 10.346 7.48 3.225Zm1363.38-.355c0-2.823-2.44-5.134-5.43-5.134-2.99 0-4.01 2.311-2.27 5.134 1.75 2.824 4.2 5.135 5.44 5.135 1.25 0 2.26-2.311 2.26-5.135Zm-1741.947-8.581c1.274-3.825-1.841-5.008-8.56-3.251-5.809 1.519-10.561 4.972-10.561 7.673 0 6.816 16.662 2.963 19.121-4.422Zm64.312 5.181c-3.53-1.424-9.306-1.424-12.836 0-3.53 1.424-.642 2.589 6.418 2.589 7.06 0 9.947-1.165 6.418-2.589Zm332.445-1.734c0-2.824-2.31-5.134-5.13-5.134-2.83 0-5.14 2.31-5.14 5.134 0 2.824 2.31 5.134 5.14 5.134 2.82 0 5.13-2.31 5.13-5.134Zm15.41 0c0-2.824-2.32-5.134-5.14-5.134s-5.13 2.31-5.13 5.134c0 2.824 2.31 5.134 5.13 5.134s5.14-2.31 5.14-5.134Zm15.4 0c0-2.824-2.31-5.134-5.14-5.134-2.82 0-5.13 2.31-5.13 5.134 0 2.824 2.31 5.134 5.13 5.134 2.83 0 5.14-2.31 5.14-5.134Zm15.4-2.87c0-4.403-2.35-6.553-5.22-4.78-2.87 1.774-3.89 5.376-2.26 8.005 4.4 7.121 7.48 5.793 7.48-3.225Zm1252.78 2.87c0-2.824-2.31-5.134-5.14-5.134-2.82 0-5.13 2.31-5.13 5.134 0 2.824 2.31 5.134 5.13 5.134 2.83 0 5.14-2.31 5.14-5.134Zm15.4 0c0-2.824-2.31-5.134-5.14-5.134-2.82 0-5.13 2.31-5.13 5.134 0 2.824 2.31 5.134 5.13 5.134 2.83 0 5.14-2.31 5.14-5.134Zm15.4 0c0-2.824-1.02-5.134-2.26-5.134-1.25 0-3.69 2.31-5.44 5.134-1.75 2.824-.73 5.134 2.26 5.134 3 0 5.44-2.31 5.44-5.134Zm335.02 1.734c-3.53-1.424-9.31-1.424-12.84 0-3.53 1.424-.64 2.589 6.42 2.589s9.95-1.165 6.42-2.589Zm70.59-1.734c0-2.824-4.75-5.134-10.57-5.134-5.81 0-9.14 2.31-7.4 5.134 1.75 2.824 6.51 5.134 10.57 5.134 4.07 0 7.4-2.31 7.4-5.134Zm-2036.942-3.368c-3.476-1.406-10.407-1.492-15.403-.19-4.995 1.301-2.151 2.452 6.321 2.557 8.471.104 12.558-.961 9.082-2.367Zm363.152-1.766c0-2.824-1.01-5.134-2.26-5.134-1.25 0-3.69 2.31-5.44 5.134-1.74 2.824-.72 5.134 2.27 5.134s5.43-2.31 5.43-5.134Zm20.54 2.87c0-1.245-2.31-3.692-5.13-5.437-2.83-1.745-5.14-.727-5.14 2.264 0 2.99 2.31 5.437 5.14 5.437 2.82 0 5.13-1.019 5.13-2.264Zm15.4-2.87c0-2.824-2.31-5.134-5.13-5.134s-5.13 2.31-5.13 5.134c0 2.824 2.31 5.134 5.13 5.134s5.13-2.31 5.13-5.134Zm15.41-2.567c0-4.236-2.31-7.702-5.14-7.702-2.82 0-5.13 3.466-5.13 7.702s2.31 7.701 5.13 7.701c2.83 0 5.14-3.465 5.14-7.701Zm1103.88-2.871c0-2.657-2.31-4.831-5.14-4.831-2.82 0-5.13 3.602-5.13 8.005 0 4.402 2.31 6.576 5.13 4.831 2.83-1.745 5.14-5.347 5.14-8.005Zm15.4 5.438c0-2.824-2.31-5.134-5.13-5.134-2.83 0-5.14 2.31-5.14 5.134 0 2.824 2.31 5.134 5.14 5.134 2.82 0 5.13-2.31 5.13-5.134Zm15.4 0c0-2.824-2.31-5.134-5.13-5.134-2.83 0-5.14 2.31-5.14 5.134 0 2.824 2.31 5.134 5.14 5.134 2.82 0 5.13-2.31 5.13-5.134Zm20.54 2.87c0-1.245-2.31-3.692-5.13-5.437-2.83-1.745-5.14-.727-5.14 2.264 0 2.99 2.31 5.437 5.14 5.437 2.82 0 5.13-1.019 5.13-2.264Zm15.4 0c0-1.245-2.31-3.692-5.13-5.437s-5.14-.727-5.14 2.264c0 2.99 2.32 5.437 5.14 5.437s5.13-1.019 5.13-2.264Zm355.65-1.104c-3.47-1.406-10.4-1.492-15.4-.19-5 1.301-2.15 2.452 6.32 2.557 8.47.104 12.56-.961 9.08-2.367Zm171.8.267c-1.71-1.707-6.14-1.889-9.84-.406-4.1 1.639-2.88 2.856 3.1 3.102 5.41.223 8.44-.99 6.74-2.696ZM657.354 564.647c257.399-58.313 626.446-97.1 924.186-97.132 67.6-.005 106.54-1.888 106.54-5.146 0-6.524-73.56-6.492-259.28.111-315.5 11.216-546.457 39.167-760.648 92.053-73.845 18.233-135.614 37.184-91.652 28.118 8.472-1.747 44.856-9.849 80.854-18.004Zm26.967 15.81c1.745-2.824-1.585-5.135-7.399-5.135-5.815 0-10.571 2.311-10.571 5.135s3.329 5.134 7.398 5.134c4.069 0 8.827-2.31 10.572-5.134Zm80.963 1.766c-3.476-1.406-10.407-1.492-15.403-.19-4.995 1.301-2.151 2.452 6.321 2.557 8.471.104 12.558-.961 9.082-2.367Zm399.096-1.766c0-2.824-2.31-5.135-5.13-5.135-2.83 0-5.14 2.311-5.14 5.135s2.31 5.134 5.14 5.134c2.82 0 5.13-2.31 5.13-5.134Zm20.54 0c0-2.824-2.31-5.135-5.14-5.135-2.82 0-5.13 2.311-5.13 5.135s2.31 5.134 5.13 5.134c2.83 0 5.14-2.31 5.14-5.134Zm15.4 0c0-2.824-2.31-5.135-5.13-5.135-2.83 0-5.14 2.311-5.14 5.135s2.31 5.134 5.14 5.134c2.82 0 5.13-2.31 5.13-5.134Zm15.4-2.87c0-4.403-2.35-6.554-5.22-4.78-2.86 1.774-3.88 5.376-2.26 8.005 4.4 7.121 7.48 5.793 7.48-3.225Zm967.6 3.225c1.63-2.629.61-6.231-2.26-8.005-2.87-1.774-5.22.377-5.22 4.78 0 9.018 3.08 10.346 7.48 3.225Zm18.19-.355c0-2.824-2.31-5.135-5.13-5.135s-5.14 2.311-5.14 5.135 2.32 5.134 5.14 5.134 5.13-2.31 5.13-5.134Zm15.41 0c0-2.824-2.31-5.135-5.14-5.135-2.82 0-5.13 2.311-5.13 5.135s2.31 5.134 5.13 5.134c2.83 0 5.14-2.31 5.14-5.134Zm20.53 0c0-2.824-2.31-5.135-5.13-5.135s-5.13 2.311-5.13 5.135 2.31 5.134 5.13 5.134 5.13-2.31 5.13-5.134Zm407 1.766c-3.48-1.406-10.41-1.492-15.41-.19-4.99 1.301-2.15 2.452 6.32 2.556 8.48.105 12.56-.96 9.09-2.366Zm80.76-1.168c0-2.494-4.62-5.743-10.26-7.22-10.1-2.64-13.58 1.602-6.85 8.333 4.98 4.981 17.11 4.192 17.11-1.113Zm93.15-.963c-30.5-12.214-207.54-52.265-292.72-66.218-176.07-28.845-330.7-42.916-565.44-51.455-170.09-6.188-256.72-6.462-256.72-.814 0 2.403 73.36 5.737 163.02 7.408 229.37 4.276 433.49 21.134 636.46 52.561 90.38 13.994 242.68 43.739 286.43 55.94 29.43 8.207 46.91 9.762 28.97 2.578Zm-1976.788-7.185c434.568-61.001 1200.808-63.279 1667.288-4.956 57.5 7.189 105.47 12.146 106.6 11.015 4.95-4.948-210.71-30.575-352.33-41.868-191.16-15.242-360.75-19.573-656.59-16.766-283.02 2.685-356.34 5.663-537.15 21.819-92.654 8.28-291.197 32.66-294.79 36.198-3.647 3.592 11.219 2.384 66.972-5.442Zm394.688 5.285c0-1.245-2.31-3.691-5.13-5.437-2.83-1.745-5.14-.726-5.14 2.264 0 2.991 2.31 5.438 5.14 5.438 2.82 0 5.13-1.019 5.13-2.265Zm15.4-2.87c0-2.823-2.31-5.134-5.13-5.134s-5.13 2.311-5.13 5.134c0 2.824 2.31 5.135 5.13 5.135s5.13-2.311 5.13-5.135Zm17.97 0c-1.74-2.823-5.34-5.134-8-5.134s-4.83 2.311-4.83 5.134c0 2.824 3.6 5.135 8 5.135s6.58-2.311 4.83-5.135Zm17.97 0c0-2.823-2.31-5.134-5.13-5.134s-5.13 2.311-5.13 5.134c0 2.824 2.31 5.135 5.13 5.135s5.13-2.311 5.13-5.135Zm15.41-2.87c0-4.402-2.35-6.553-5.22-4.779-2.87 1.774-3.89 5.375-2.27 8.004 4.41 7.121 7.49 5.794 7.49-3.225Zm20.53-2.567c0-2.657-2.31-4.831-5.13-4.831s-5.13 3.602-5.13 8.004c0 4.403 2.31 6.577 5.13 4.832 2.82-1.746 5.13-5.348 5.13-8.005Zm752.72-3.44c-5.22-5.219-9.53 2.638-5.25 9.566 3.24 5.234 4.45 5.239 6.19.022 1.19-3.567.76-7.881-.94-9.587v-.001Zm22.57 9.18c0-2.657-2.31-6.259-5.14-8.004-2.82-1.745-5.13.429-5.13 4.831 0 4.403 2.31 8.005 5.13 8.005 2.83 0 5.14-2.175 5.14-4.832Zm15.4-.303c0-2.823-2.31-5.134-5.13-5.134-2.83 0-5.14 2.311-5.14 5.134 0 2.824 2.31 5.135 5.14 5.135 2.82 0 5.13-2.311 5.13-5.135Zm20.54 0c0-2.823-2.31-5.134-5.14-5.134-2.82 0-5.13 2.311-5.13 5.134 0 2.824 2.31 5.135 5.13 5.135 2.83 0 5.14-2.311 5.14-5.135Zm15.4 0c0-2.823-2.31-5.134-5.13-5.134-2.83 0-5.14 2.311-5.14 5.134 0 2.824 2.31 5.135 5.14 5.135 2.82 0 5.13-2.311 5.13-5.135Zm15.4 0c0-2.823-2.31-5.134-5.13-5.134s-5.14 2.311-5.14 5.134c0 2.824 2.32 5.135 5.14 5.135s5.13-2.311 5.13-5.135Zm-1427.339-7.22c0-4.693-3.594-6.281-10.268-4.535-5.648 1.476-10.269 4.726-10.269 7.22 0 2.495 4.621 4.535 10.269 4.535 5.647 0 10.268-3.249 10.268-7.22Zm600.719 2.086c0-2.824-2.31-5.134-5.14-5.134-2.82 0-5.13 2.31-5.13 5.134 0 2.824 2.31 5.134 5.13 5.134 2.83 0 5.14-2.31 5.14-5.134Zm20.53 0c0-2.824-2.31-5.134-5.13-5.134s-5.13 2.31-5.13 5.134c0 2.824 2.31 5.134 5.13 5.134s5.13-2.31 5.13-5.134Zm17.97 0c1.75-2.824-.42-5.134-4.83-5.134-4.4 0-8 2.31-8 5.134 0 2.824 2.17 5.134 4.83 5.134s6.26-2.31 8-5.134Zm17.97 0c0-2.824-2.31-5.134-5.13-5.134s-5.13 2.31-5.13 5.134c0 2.824 2.31 5.134 5.13 5.134s5.13-2.31 5.13-5.134Zm20.54 0c0-2.824-3.6-5.134-8-5.134s-6.58 2.31-4.83 5.134c1.74 2.824 5.34 5.134 8 5.134s4.83-2.31 4.83-5.134Zm15.41-2.87c0-4.402-2.32-6.576-5.14-4.831-2.82 1.745-5.13 5.347-5.13 8.004 0 2.658 2.31 4.831 5.13 4.831s5.14-3.601 5.14-8.004Zm20.53-2.567c0-2.657-2.31-4.831-5.13-4.831-2.83 0-5.14 3.602-5.14 8.004 0 4.403 2.31 6.577 5.14 4.831 2.82-1.745 5.13-5.347 5.13-8.004Zm496-3.441c-5.22-5.219-9.53 2.639-5.24 9.567 3.23 5.234 4.44 5.238 6.18.022 1.19-3.567.77-7.881-.94-9.587v-.002Zm22.57 9.181c0-2.657-2.31-6.259-5.14-8.004-2.82-1.745-5.13.429-5.13 4.831 0 4.403 2.31 8.004 5.13 8.004 2.83 0 5.14-2.173 5.14-4.831Zm17.97-.302c1.74-2.824-.43-5.135-4.83-5.135s-8.01 2.311-8.01 5.135c0 2.823 2.18 5.134 4.83 5.134 2.66 0 6.26-2.311 8.01-5.134Zm17.97 0c0-2.824-2.31-5.135-5.13-5.135-2.83 0-5.14 2.311-5.14 5.135 0 2.823 2.31 5.134 5.14 5.134 2.82 0 5.13-2.311 5.13-5.134Zm20.54 0c0-2.824-3.47-5.135-7.71-5.135-4.23 0-7.7 2.311-7.7 5.135 0 2.823 3.47 5.134 7.7 5.134 4.24 0 7.71-2.311 7.71-5.134Zm15.4 0c0-2.824-2.31-5.135-5.13-5.135-2.83 0-5.14 2.311-5.14 5.135 0 2.823 2.31 5.134 5.14 5.134 2.82 0 5.13-2.311 5.13-5.134Zm20.54 0c0-2.824-2.31-5.135-5.14-5.135-2.82 0-5.13 2.311-5.13 5.135 0 2.823 2.31 5.134 5.13 5.134 2.83 0 5.14-2.311 5.14-5.134Zm610.98.598c0-2.494-4.62-5.744-10.27-7.22-6.67-1.746-10.27-.158-10.27 4.535 0 3.971 4.62 7.221 10.27 7.221 5.65 0 10.27-2.041 10.27-4.536Zm-1201.43-5.733c0-2.823-2.17-5.134-4.83-5.134s-6.26 2.311-8.01 5.134c-1.74 2.824.43 5.135 4.83 5.135 4.41 0 8.01-2.311 8.01-5.135Zm15.4 0c0-2.823-2.31-5.134-5.13-5.134-2.83 0-5.14 2.311-5.14 5.134 0 2.824 2.31 5.135 5.14 5.135 2.82 0 5.13-2.311 5.13-5.135Zm20.54 0c0-2.823-2.31-5.134-5.13-5.134-2.83 0-5.14 2.311-5.14 5.134 0 2.824 2.31 5.135 5.14 5.135 2.82 0 5.13-2.311 5.13-5.135Zm20.54 0c0-2.823-2.31-5.134-5.14-5.134-2.82 0-5.13 2.311-5.13 5.134 0 2.824 2.31 5.135 5.13 5.135 2.83 0 5.14-2.311 5.14-5.135Zm20.53 0c0-2.823-3.46-5.134-7.7-5.134-4.23 0-7.7 2.311-7.7 5.134 0 2.824 3.47 5.135 7.7 5.135 4.24 0 7.7-2.311 7.7-5.135Zm20.54 0c0-2.823-3.46-5.134-7.7-5.134s-7.7 2.311-7.7 5.134c0 2.824 3.46 5.135 7.7 5.135s7.7-2.311 7.7-5.135Zm15.4 0c0-2.823-2.31-5.134-5.13-5.134s-5.13 2.311-5.13 5.134c0 2.824 2.31 5.135 5.13 5.135s5.13-2.311 5.13-5.135Zm20.54-2.567c0-4.236-2.31-7.701-5.13-7.701-2.83 0-5.14 3.465-5.14 7.701s2.31 7.702 5.14 7.702c2.82 0 5.13-3.466 5.13-7.702Zm20.54 0c0-4.236-2.31-7.701-5.13-7.701-2.83 0-5.14 3.465-5.14 7.701s2.31 7.702 5.14 7.702c2.82 0 5.13-3.466 5.13-7.702Zm20.54 0c0-4.236-2.31-7.701-5.14-7.701-2.82 0-5.13 3.465-5.13 7.701s2.31 7.702 5.13 7.702c2.83 0 5.14-3.466 5.14-7.702Zm18.5-6.311c-5.22-5.219-9.52 2.639-5.24 9.567 3.23 5.234 4.44 5.238 6.18.022 1.19-3.567.77-7.882-.94-9.588v-.001Zm68.78 3.441c0-2.657-2.31-4.831-5.13-4.831-2.83 0-5.14 3.602-5.14 8.004 0 4.402 2.31 6.577 5.14 4.831 2.82-1.745 5.13-5.347 5.13-8.004Zm20.54 2.87c0-4.236-2.31-7.701-5.14-7.701-2.82 0-5.13 3.465-5.13 7.701s2.31 7.702 5.13 7.702c2.83 0 5.14-3.466 5.14-7.702Zm20.53 0c0-4.236-2.31-7.701-5.13-7.701s-5.13 3.465-5.13 7.701 2.31 7.702 5.13 7.702 5.13-3.466 5.13-7.702Zm20.54 0c0-4.236-2.31-7.701-5.13-7.701-2.83 0-5.14 3.465-5.14 7.701s2.31 7.702 5.14 7.702c2.82 0 5.13-3.466 5.13-7.702Zm20.54 2.567c0-2.823-2.31-5.134-5.13-5.134-2.83 0-5.14 2.311-5.14 5.134 0 2.824 2.31 5.135 5.14 5.135 2.82 0 5.13-2.311 5.13-5.135Zm20.54 0c0-2.823-3.47-5.134-7.71-5.134-4.23 0-7.7 2.311-7.7 5.134 0 2.824 3.47 5.135 7.7 5.135 4.24 0 7.71-2.311 7.71-5.135Zm20.53 0c0-2.823-3.46-5.134-7.7-5.134-4.23 0-7.7 2.311-7.7 5.134 0 2.824 3.47 5.135 7.7 5.135 4.24 0 7.7-2.311 7.7-5.135Zm15.41 0c0-2.823-2.31-5.134-5.14-5.134-2.82 0-5.13 2.311-5.13 5.134 0 2.824 2.31 5.135 5.13 5.135 2.83 0 5.14-2.311 5.14-5.135Zm20.53 0c0-2.823-2.31-5.134-5.13-5.134s-5.13 2.311-5.13 5.134c0 2.824 2.31 5.135 5.13 5.135s5.13-2.311 5.13-5.135Zm20.54 0c0-2.823-2.31-5.134-5.13-5.134-2.83 0-5.14 2.311-5.14 5.134 0 2.824 2.31 5.135 5.14 5.135 2.82 0 5.13-2.311 5.13-5.135Zm15.4 0c0-2.823-2.31-5.134-5.13-5.134s-5.13 2.311-5.13 5.134c0 2.824 2.31 5.135 5.13 5.135s5.13-2.311 5.13-5.135ZM792.142 559.92c1.745-2.824-1.585-5.134-7.399-5.134-5.815 0-10.571 2.31-10.571 5.134 0 2.824 3.329 5.134 7.398 5.134 4.069 0 8.827-2.31 10.572-5.134Zm895.938 0c0-2.824-2.31-5.134-5.13-5.134-2.83 0-5.14 2.31-5.14 5.134 0 2.824 2.31 5.134 5.14 5.134 2.82 0 5.13-2.31 5.13-5.134Zm25.67 0c0-2.824-2.31-5.134-5.13-5.134-2.83 0-5.14 2.31-5.14 5.134 0 2.824 2.31 5.134 5.14 5.134 2.82 0 5.13-2.31 5.13-5.134Zm903.64 0c0-2.824-4.75-5.134-10.57-5.134-5.81 0-9.14 2.31-7.4 5.134 1.75 2.824 6.51 5.134 10.58 5.134 4.06 0 7.39-2.31 7.39-5.134ZM851.187 549.652c0-2.824-4.622-5.135-10.269-5.135-5.648 0-10.269 2.311-10.269 5.135 0 2.823 4.621 5.134 10.269 5.134 5.647 0 10.269-2.311 10.269-5.134Zm1709.733 0c0-2.824-4.62-5.135-10.27-5.135-5.65 0-10.27 2.311-10.27 5.135 0 2.823 4.62 5.134 10.27 5.134 5.65 0 10.27-2.311 10.27-5.134ZM917.933 539.383c0-2.824-4.486-5.134-9.967-5.134-5.481 0-11.392 2.31-13.138 5.134-1.799 2.912 2.514 5.134 9.965 5.134 7.227 0 13.14-2.31 13.14-5.134Zm1578.807 0c-1.75-2.824-7.66-5.134-13.14-5.134s-9.97 2.31-9.97 5.134c0 2.824 5.92 5.134 13.14 5.134 7.45 0 11.77-2.222 9.97-5.134ZM989.813 528.516c0-2.495-5.776-4.535-12.836-4.535-7.406 0-12.835 2.956-12.835 6.989 0 4.687 4.228 6.181 12.835 4.535 7.06-1.349 12.836-4.494 12.836-6.989Zm1437.607 3.166c0-4.279-4.56-7.701-10.26-7.701-12.65 0-13.59 8.649-1.29 11.863 4.94 1.291 9.56 2.616 10.27 2.944.71.327 1.28-2.87 1.28-7.106ZM1060.41 520.13c1.26-3.764-2.28-6.418-8.56-6.418-6.3 0-10.69 3.315-10.69 8.078 0 9.436 16.02 8.055 19.25-1.66Zm1290.47 1.283c-.05-2.823-4.78-5.872-10.54-6.774-10.32-1.618-13.89 4.21-6.87 11.23 4.99 4.993 17.5 1.793 17.41-4.456Zm-1207.04-9.556c0-4.687-4.23-6.181-12.83-4.536-7.06 1.35-12.84 4.495-12.84 6.989 0 2.495 5.78 4.536 12.84 4.536 7.4 0 12.83-2.957 12.83-6.989Zm1129.55 1.855c0-2.824-2.12-5.134-4.71-5.134s-8.37-1.402-12.84-3.116c-5.33-2.046-8.12-.28-8.12 5.134 0 5.378 4.47 8.25 12.84 8.25 7.06 0 12.83-2.31 12.83-5.134ZM1235 504.727c1.33-4.023-2.83-6.418-11.15-6.418-8.63 0-13.26 2.817-13.26 8.059 0 9.655 21.16 8.233 24.41-1.641Zm945.98 1.284c0-4.792-4.85-7.702-12.84-7.702-12.47 0-16.39 5-9.41 11.98 6.46 6.459 22.25 3.423 22.25-4.278Zm-847.17-7.702c0-2.823-5.77-5.134-12.83-5.134-7.06 0-12.84 2.311-12.84 5.134 0 2.824 5.78 5.135 12.84 5.135s12.83-2.311 12.83-5.135Zm112.96-5.733c0-2.494-6.93-4.535-15.4-4.535-14.17 0-19.37 4.598-12.72 11.245 4.14 4.138 28.12-1.584 28.12-6.71Zm528.83.296c0-2.657-6.93-4.831-15.4-4.831-17.92 0-20.83 8.659-3.85 11.458 13.38 2.206 19.25.185 19.25-6.627Zm107.82 5.437c0-2.823-5.77-5.134-12.83-5.134-7.06 0-12.84 2.311-12.84 5.134 0 2.824 5.78 5.135 12.84 5.135s12.83-2.311 12.83-5.135Zm-514.68-8.985c1.38-4.202-3.36-6.417-13.72-6.417-10.95 0-15.83 2.481-15.83 8.042 0 9.784 26.28 8.339 29.55-1.625Zm124.48 1.284c0-4.278-4.57-7.701-10.27-7.701-5.71 0-10.27 3.423-10.27 7.701 0 4.279 4.56 7.701 10.27 7.701 5.7 0 10.27-3.422 10.27-7.701Zm25.67 0c0-4.236-3.47-7.701-7.7-7.701-4.24 0-7.71 3.465-7.71 7.701s3.47 7.701 7.71 7.701c4.23 0 7.7-3.465 7.7-7.701Zm133.49 0c0-5.134-5.13-7.701-15.4-7.701-14.72 0-19.34 4.619-11.98 11.98 6.72 6.72 27.38 3.492 27.38-4.279Zm-222.83-139.137c-2.49-6.477-4.96-7.365-9.07-3.258-3.1 3.106-4.11 9.655-2.23 14.553 2.49 6.476 4.96 7.365 9.07 3.257 3.11-3.106 4.11-9.655 2.23-14.552Zm32.86 3.08c0-11.98-2.28-15.403-10.27-15.403s-10.27 3.423-10.27 15.403 2.28 15.403 10.27 15.403 10.27-3.423 10.27-15.403Zm29.85-4.246c1.19-12.038-.49-16.291-6.42-16.291-5.79 0-8.03 5.136-8.03 18.398 0 23.198 12.12 21.43 14.45-2.107Zm21.49 1.679c0-9.883-2.31-17.97-5.13-17.97-2.83 0-5.14 8.087-5.14 17.97s2.31 17.97 5.14 17.97c2.82 0 5.13-8.087 5.13-17.97Zm35.94 2.19c0-11.93-2.07-15.374-8.5-14.118-8.36 1.633-13.87 17.643-8.86 25.754 6.53 10.561 17.36 3.301 17.36-11.636Zm25.67 5.814c0-5.481-2.31-11.393-5.13-13.138-2.91-1.8-5.13 2.513-5.13 9.965 0 7.226 2.31 13.139 5.13 13.139s5.13-4.485 5.13-9.966Zm1144.96 225.603c-4.24-2.737-5.39-4.977-2.57-4.977 2.83 0 8.6 2.24 12.84 4.977 4.23 2.738 5.39 4.977 2.56 4.977-2.82 0-8.6-2.239-12.83-4.977Z" fill="#C6C6C6"/><path fill-rule="evenodd" clip-rule="evenodd" d="M1703.25 120.343c2.38-13.383 2.97-26.766-.05-40.149 30.99 5.125 78.27-9.58 84.51 25.684 35.76-17.018 76.24-14.4 76.19-7.647l.09 38.321c-27.57-13.718-55.42-1.697-82.18 3.177-16.47-27.29-54.91-19.844-78.58-19.384l.02-.002Z" fill="#409F11"/><path fill-rule="evenodd" clip-rule="evenodd" d="M1703.25 79.932c2.38-13.383 2.97-26.766-.05-40.15 30.99 5.125 78.27-9.58 84.51 25.685 35.77-19.984 76.02-12.29 76.18-7.94l.22 40.517c.89-4.942-44.08-8.84-76.44 8.026-5.65-36.921-64.54-19.323-84.46-25.816l.04-.322Z" fill="#fff"/><path fill-rule="evenodd" clip-rule="evenodd" d="M1703.25 40.15c2.38-13.383 2.97-26.767-.05-40.15 30.99 5.125 80.67-9.58 86.91 25.684 32.36-12.4 73.28-7.881 73.8-6.565v38.885c.06-9.227-67.37-1.175-76.55 7.932-4.84-35.676-56.18-21.453-84.13-25.785l.02-.001Z" fill="#DB861C"/><path d="M1783.66 86.39c4.93 0 8.92-3.994 8.92-8.921a8.919 8.919 0 0 0-8.92-8.923 8.919 8.919 0 0 0-8.92 8.922 8.919 8.919 0 0 0 8.92 8.923Z" fill="#008"/><path d="M1783.66 85.275c4.31 0 7.81-3.495 7.81-7.806 0-4.312-3.5-7.807-7.81-7.807s-7.8 3.495-7.8 7.806c0 4.312 3.49 7.807 7.8 7.807Z" fill="#fff"/><path d="M1783.66 79.03c.87 0 1.56-.7 1.56-1.561 0-.863-.69-1.562-1.56-1.562a1.562 1.562 0 0 0 0 3.123ZM1791.35 78.875a.39.39 0 1 0 .1-.774.38.38 0 0 0-.43.336c-.03.213.12.41.33.438Z" fill="#008"/><path d="m1783.66 85.275.27-4.684-.27-2.23-.27 2.23.27 4.684Z" fill="#008"/></svg>