<svg width="692" height="322" fill="none" xmlns="http://www.w3.org/2000/svg"><circle opacity=".1" cx="152" cy="100" r="100" fill="#F2A413"/><path d="M152 0a99.997 99.997 0 0 1 95.798 71.317 99.993 99.993 0 0 1-80.341 127.48 99.996 99.996 0 0 1-42.268-2.458L152 100V0Z" fill="#F2A413"/><path d="M113.999 109.9c0-.96.194-1.793.58-2.5.387-.72.907-1.28 1.56-1.68.667-.4 1.394-.6 2.18-.6 1.2 0 2.06.373 2.58 1.12.52.747.614 1.72.28 2.92l-.32 1.18c-.266.947-.253 1.667.04 2.16.294.493.807.74 1.54.74.494 0 .974-.173 1.44-.52.48-.36.934-.947 1.36-1.76.44-.827.84-1.933 1.2-3.32.6-2.32.674-4.027.22-5.12-.44-1.093-1.233-1.64-2.38-1.64-.373 0-.8.073-1.28.22-.48.133-1.013.353-1.6.66-.573.307-1.2.713-1.88 1.22-.386.227-.693.393-.92.5-.226.093-.466.14-.72.14-.306 0-.533-.093-.68-.28-.133-.2-.153-.48-.06-.84l3.72-14.28c.147-.533.374-.94.68-1.22.307-.293.734-.44 1.28-.44.227 0 .467.027.72.08.267.053.547.127.84.22.694.24 1.414.473 2.16.7.747.227 1.507.413 2.28.56.774.147 1.554.22 2.34.22 1.36 0 2.547-.113 3.56-.34 1.027-.24 1.9-.647 2.62-1.22.254-.147.46-.26.62-.34a.947.947 0 0 1 .48-.1c.174.013.307.113.4.3.107.173.08.493-.08.96-.973 2.84-2.306 4.853-4 6.04-1.693 1.187-3.86 1.78-6.5 1.78-1.64 0-3.166-.207-4.58-.62-1.413-.413-2.56-.887-3.44-1.42l2.1-2.06-2.74 10.38-.88-.42c1.067-.813 2.04-1.453 2.92-1.92.894-.48 1.794-.82 2.7-1.02.92-.2 1.954-.3 3.1-.3 1.92 0 3.527.373 4.82 1.12 1.294.747 2.18 1.793 2.66 3.14.494 1.333.494 2.913 0 4.74-.466 1.76-1.3 3.267-2.5 4.52-1.2 1.24-2.673 2.193-4.42 2.86-1.746.653-3.7.98-5.86.98-1.866 0-3.406-.253-4.62-.76-1.2-.52-2.086-1.193-2.66-2.02-.573-.84-.86-1.747-.86-2.72Zm34.38-6.62a2.74 2.74 0 0 1 .36-.82c.146-.213.333-.407.56-.58l7.32-5.72c.346-.267.613-.44.8-.52.186-.08.366-.12.54-.12.213 0 .366.073.46.22.093.147.1.38.02.7l-3.84 14.8c-.094.387-.107.687-.04.9.08.213.286.36.62.44l1.28.26c.306.067.513.187.62.36.12.16.18.36.18.6 0 .373-.12.667-.36.88-.24.2-.56.3-.96.3h-12.5c-.387 0-.667-.087-.84-.26-.16-.187-.24-.44-.24-.76 0-.293.08-.54.24-.74a1.14 1.14 0 0 1 .72-.4l1.8-.3c.293-.053.526-.187.7-.4.186-.227.333-.56.44-1l2.12-7.84Zm-2.98-3.86c.786-.613 1.38-1.147 1.78-1.6.4-.467.666-.967.8-1.5.12-.413.14-.833.06-1.26-.067-.44-.16-.893-.28-1.36-.12-.48-.2-.993-.24-1.54-.04-.56.02-1.16.18-1.8.333-1.293 1-2.313 2-3.06 1.013-.747 2.273-1.12 3.78-1.12 1.266 0 2.246.28 2.94.84.706.56 1.06 1.327 1.06 2.3 0 .707-.167 1.433-.5 2.18-.334.733-.9 1.533-1.7 2.4-.8.853-1.907 1.827-3.32 2.92l-13.56 10.7-.2-1.34h20.4c.306 0 .546.08.72.24.186.16.273.4.26.72 0 .373-.127.7-.38.98-.24.28-.587.42-1.04.42h-20.94c-.334 0-.587-.093-.76-.28-.174-.2-.26-.447-.26-.74 0-.333.1-.64.3-.92.186-.28.506-.587.96-.92l7.94-6.26ZM173.27 86.5c2.16 0 3.734.66 4.72 1.98 1 1.32 1.2 3.133.6 5.44-.44 1.72-1.14 3.18-2.1 4.38-.96 1.187-2.08 2.087-3.36 2.7a9.024 9.024 0 0 1-3.98.92c-2.373 0-4.04-.667-5-2s-1.12-3.26-.48-5.78c.4-1.533 1.06-2.873 1.98-4.02a9.51 9.51 0 0 1 3.34-2.66c1.307-.64 2.734-.96 4.28-.96Zm-.5 7.76c.614-2.347.894-3.987.84-4.92-.053-.933-.34-1.4-.86-1.4-.573 0-1.126.48-1.66 1.44-.533.947-1.073 2.447-1.62 4.5-.626 2.48-.913 4.2-.86 5.16.054.947.367 1.42.94 1.42.307 0 .627-.173.96-.52.334-.36.687-.987 1.06-1.88.387-.907.787-2.173 1.2-3.8Zm5.24 6.06c-.333.267-.593.433-.78.5-.173.067-.333.033-.48-.1-.133-.12-.166-.267-.1-.44.067-.187.24-.427.52-.72l1.46-1.62a445.99 445.99 0 0 1 2.1-2.26l2.36-2.52a738.93 738.93 0 0 1 2.32-2.46c.734-.773 1.374-1.44 1.92-2 .56-.573.967-.98 1.22-1.22.547-.507 1.054-.827 1.52-.96.48-.147.88-.067 1.2.24.32.28.407.647.26 1.1-.133.44-.466.9-1 1.38-.253.227-.673.607-1.26 1.14-.586.533-1.28 1.16-2.08 1.88-.8.707-1.646 1.46-2.54 2.26-.88.787-1.746 1.56-2.6 2.32-.853.747-1.633 1.427-2.34 2.04a70.431 70.431 0 0 1-1.7 1.44Zm-3.62 1.88c.32-.267.58-.433.78-.5.214-.08.394-.06.54.06.134.12.16.28.08.48-.08.187-.266.433-.56.74l-1.36 1.48a314.23 314.23 0 0 1-4.22 4.6 1071.6 1071.6 0 0 0-2.2 2.36c-.693.733-1.3 1.373-1.82 1.92-.506.533-.873.907-1.1 1.12-.52.493-1.026.8-1.52.92-.48.133-.88.06-1.2-.22-.32-.267-.406-.62-.26-1.06.16-.453.514-.933 1.06-1.44.214-.213.594-.567 1.14-1.06.56-.507 1.22-1.1 1.98-1.78.774-.68 1.58-1.4 2.42-2.16.854-.76 1.687-1.493 2.5-2.2.814-.72 1.547-1.367 2.2-1.94a70.372 70.372 0 0 1 1.54-1.32Zm9.1-2.06c2.16 0 3.734.66 4.72 1.98 1 1.32 1.2 3.133.6 5.44-.44 1.72-1.14 3.18-2.1 4.38-.96 1.187-2.08 2.087-3.36 2.7a9.024 9.024 0 0 1-3.98.92c-2.373 0-4.04-.667-5-2s-1.12-3.26-.48-5.78c.4-1.533 1.06-2.873 1.98-4.02a9.51 9.51 0 0 1 3.34-2.66c1.307-.64 2.734-.96 4.28-.96Zm-.5 7.76c.614-2.347.894-3.987.84-4.92-.053-.933-.34-1.4-.86-1.4-.573 0-1.126.48-1.66 1.44-.533.947-1.073 2.447-1.62 4.5-.626 2.48-.913 4.2-.86 5.16.054.947.367 1.42.94 1.42.307 0 .627-.173.96-.52.334-.36.687-.987 1.06-1.88.387-.907.787-2.173 1.2-3.8Z" fill="#352508"/><path d="m28.77 251.344-1.163.396 4.464-11.484c.152-.4.328-.676.528-.828.208-.152.488-.228.84-.228h3.492c.24 0 .416.048.528.144.12.088.18.216.18.384 0 .144-.04.264-.12.36-.072.096-.196.168-.372.216l-.636.168c-.264.072-.444.18-.54.324-.088.136-.124.364-.108.684l.924 12.42c.016.272.072.464.168.576.096.104.26.188.492.252l.624.168c.16.048.276.12.348.216.072.088.108.2.108.336 0 .16-.056.292-.168.396-.112.104-.288.156-.528.156h-5.796c-.248 0-.432-.048-.552-.144a.48.48 0 0 1-.168-.384c0-.136.036-.252.108-.348.08-.096.212-.172.396-.228l.624-.168c.28-.072.464-.168.552-.288.096-.12.14-.3.132-.54l-.996-12.708 1.056-.072-5.1 13.236c-.136.376-.28.62-.432.732a.858.858 0 0 1-.516.156c-.144 0-.276-.02-.396-.06a.746.746 0 0 1-.336-.252 2.738 2.738 0 0 1-.324-.624l-5.208-12.84 1.032-.384-1.044 12.432c-.032.344.04.604.216.78.176.176.42.328.732.456l.612.204c.12.048.216.112.288.192a.405.405 0 0 1 .108.3c0 .168-.06.304-.18.408-.112.096-.288.144-.528.144h-3.852c-.232 0-.408-.048-.528-.144a.48.48 0 0 1-.168-.384.48.48 0 0 1 .144-.372c.104-.088.236-.164.396-.228l.492-.156c.28-.096.5-.236.66-.42.168-.184.268-.448.3-.792l.996-11.772c.032-.384-.008-.672-.12-.864-.104-.192-.292-.324-.564-.396l-.6-.144a.969.969 0 0 1-.396-.216.562.562 0 0 1-.12-.372c0-.36.24-.54.72-.54h3.456c.328 0 .592.068.792.204.208.128.388.396.54.804l4.512 11.136Zm17.518-6.936c1.224 0 2.3.252 3.228.756a5.487 5.487 0 0 1 2.172 2.1c.528.896.792 1.932.792 3.108 0 1.128-.268 2.14-.804 3.036-.536.888-1.28 1.592-2.232 2.112-.944.512-2.036.768-3.276.768-1.224 0-2.3-.252-3.228-.756a5.57 5.57 0 0 1-2.184-2.1c-.52-.904-.78-1.94-.78-3.108 0-1.136.268-2.148.804-3.036a5.699 5.699 0 0 1 2.22-2.112c.952-.512 2.048-.768 3.288-.768Zm.84 10.692c.544-.088.98-.34 1.308-.756.328-.416.536-.992.624-1.728.096-.744.048-1.636-.144-2.676-.176-1.04-.44-1.896-.792-2.568-.344-.672-.756-1.156-1.236-1.452a2.174 2.174 0 0 0-1.56-.324c-.544.088-.98.344-1.308.768-.328.416-.536.992-.624 1.728-.088.736-.04 1.628.144 2.676.184 1.032.448 1.884.792 2.556.352.672.764 1.16 1.236 1.464.48.296 1 .4 1.56.312Zm11.372-5.436c0-1.16.164-2.128.492-2.904.328-.784.756-1.372 1.284-1.764.536-.392 1.108-.588 1.716-.588.76 0 1.344.216 1.752.648.408.424.612 1.04.612 1.848 0 .704-.148 1.232-.444 1.584a1.422 1.422 0 0 1-1.14.528c-.472 0-.832-.128-1.08-.384-.248-.256-.372-.608-.372-1.056v-.444c-.008-.248-.068-.432-.18-.552-.112-.128-.292-.192-.54-.192-.28 0-.552.116-.816.348-.256.232-.464.584-.624 1.056-.16.472-.24 1.076-.24 1.812l-.42.06Zm.228-4.464.192 2.796v6.144c0 .216.04.38.12.492.088.104.252.176.492.216l1.032.156c.176.032.308.088.396.168.088.08.132.196.132.348a.433.433 0 0 1-.168.36c-.104.08-.26.12-.468.12h-5.592c-.208 0-.364-.04-.468-.12a.447.447 0 0 1-.156-.36c0-.112.036-.208.108-.288a.742.742 0 0 1 .324-.192l.48-.132a.492.492 0 0 0 .312-.228c.072-.112.108-.288.108-.528v-6.96c0-.2-.032-.34-.096-.42-.056-.088-.152-.144-.288-.168l-.636-.048a.63.63 0 0 1-.312-.144.417.417 0 0 1-.084-.264c0-.128.036-.232.108-.312.08-.08.22-.156.42-.228l2.256-.792c.376-.144.652-.236.828-.276.176-.048.312-.072.408-.072.168 0 .292.056.372.168.088.112.148.3.18.564Zm17.823 3.756c0 .408-.116.72-.348.936-.232.216-.568.324-1.008.324h-7.488v-.876h4.896c.392 0 .588-.176.588-.528 0-1.08-.192-1.896-.576-2.448-.384-.552-.896-.828-1.536-.828-.496 0-.936.152-1.32.456-.376.296-.672.732-.888 1.308-.216.568-.324 1.252-.324 2.052 0 1.56.36 2.728 1.08 3.504.728.776 1.692 1.164 2.892 1.164.712 0 1.336-.144 1.872-.432a2.987 2.987 0 0 0 1.224-1.236 2.16 2.16 0 0 1 .324-.312.433.433 0 0 1 .252-.084c.12 0 .208.056.264.168.056.112.08.244.072.396-.032.68-.272 1.308-.72 1.884-.44.576-1.04 1.036-1.8 1.38-.752.336-1.62.504-2.604.504-1.144 0-2.16-.236-3.048-.708a5.215 5.215 0 0 1-2.088-1.992c-.504-.856-.756-1.856-.756-3 0-1.208.24-2.276.72-3.204a5.405 5.405 0 0 1 2.076-2.184c.896-.536 1.968-.804 3.216-.804 1.056 0 1.96.196 2.712.588.752.392 1.324.932 1.716 1.62.4.68.6 1.464.6 2.352Zm7.48-3.144-.588-.168c-.184-.056-.312-.124-.384-.204a.416.416 0 0 1-.108-.288c0-.152.052-.268.156-.348a.65.65 0 0 1 .408-.12h.756c.176 0 .328-.032.456-.096.128-.072.256-.2.384-.384l1.356-1.848c.16-.2.312-.348.456-.444a.848.848 0 0 1 .456-.144.46.46 0 0 1 .372.156c.088.104.132.252.132.444v10.248c0 .568.108 1 .324 1.296.224.296.536.444.936.444.288 0 .512-.056.672-.168.16-.112.288-.24.384-.384.104-.152.2-.288.288-.408a.563.563 0 0 1 .348-.216c.12 0 .212.04.276.12.064.072.096.196.096.372a2.15 2.15 0 0 1-.456 1.284c-.288.384-.688.696-1.2.936-.504.24-1.084.36-1.74.36-1.016 0-1.816-.256-2.4-.768-.576-.512-.864-1.284-.864-2.316v-6.672c0-.2-.04-.348-.12-.444-.08-.096-.212-.176-.396-.24Zm2.544 0 .012-1.128h3.948c.176 0 .316.036.42.108a.356.356 0 0 1 .156.312c0 .2-.1.368-.3.504-.2.136-.524.204-.972.204h-3.264Zm10.76-6.924v15.252c0 .24.031.416.095.528a.592.592 0 0 0 .312.24l.456.132c.24.096.36.248.36.456 0 .336-.212.504-.636.504h-4.644c-.216 0-.376-.04-.48-.12a.464.464 0 0 1-.144-.36c0-.112.032-.208.096-.288a.745.745 0 0 1 .336-.192l.48-.132a.554.554 0 0 0 .312-.228c.072-.112.108-.288.108-.528v-13.284c0-.2-.032-.34-.096-.42-.056-.088-.152-.144-.288-.168l-.636-.048c-.144-.024-.248-.072-.312-.144a.417.417 0 0 1-.084-.264c0-.128.036-.228.108-.3.08-.08.22-.16.42-.24l2.304-.816a7.41 7.41 0 0 1 .696-.24c.176-.048.344-.072.504-.072.24 0 .42.068.54.204a.74.74 0 0 1 .192.528Zm-.373 8.964-.516-.54.468-.42c.992-.896 1.844-1.532 2.556-1.908.712-.384 1.388-.576 2.028-.576.976 0 1.732.324 2.268.972.536.648.86 1.516.972 2.604l.684 6.132c.032.248.076.432.132.552.064.12.172.204.324.252l.432.12a.653.653 0 0 1 .312.192c.072.08.108.176.108.288a.464.464 0 0 1-.144.36c-.096.08-.256.12-.48.12h-4.692c-.424 0-.636-.168-.636-.504 0-.208.12-.36.36-.456l.468-.132a.656.656 0 0 0 .36-.24c.08-.12.104-.304.072-.552l-.636-5.652c-.08-.696-.256-1.216-.528-1.56-.272-.352-.676-.528-1.212-.528-.328 0-.68.088-1.056.264-.368.176-.756.44-1.164.792l-.48.42Zm18.116 6.648v-.24l-.228-.048v-7.188c0-.568-.144-1.004-.432-1.308-.28-.312-.676-.468-1.188-.468-.48 0-.848.104-1.104.312-.248.208-.372.456-.372.744v1.056c0 .48-.16.852-.48 1.116-.32.256-.768.384-1.344.384-.488 0-.86-.116-1.116-.348-.248-.232-.372-.556-.372-.972 0-.496.204-.984.612-1.464.416-.48 1.024-.876 1.824-1.188.8-.312 1.784-.468 2.952-.468 1.464 0 2.552.296 3.264.888.712.592 1.068 1.396 1.068 2.412v6.24c0 .224.044.392.132.504a.494.494 0 0 0 .396.168c.176 0 .308-.04.396-.12.088-.088.164-.176.228-.264.04-.056.084-.1.132-.132a.254.254 0 0 1 .168-.06c.096 0 .164.036.204.108a.488.488 0 0 1 .072.276c0 .264-.096.54-.288.828-.184.28-.46.52-.828.72-.368.2-.828.3-1.38.3-.712 0-1.276-.16-1.692-.48-.416-.32-.624-.756-.624-1.308Zm-7.152-1.008c0-.984.44-1.78 1.32-2.388.888-.616 2.132-.924 3.732-.924.52 0 .984.044 1.392.132.416.088.776.208 1.08.36l-.252.732a4.574 4.574 0 0 0-.84-.3 3.707 3.707 0 0 0-.924-.108c-.656 0-1.168.172-1.536.516-.368.344-.552.82-.552 1.428s.156 1.072.468 1.392c.32.32.732.48 1.236.48a2.75 2.75 0 0 0 1.224-.288c.392-.2.724-.472.996-.816l.252.648c-.432.616-1.016 1.092-1.752 1.428a5.569 5.569 0 0 1-2.34.504c-1.04 0-1.884-.256-2.532-.768-.648-.512-.972-1.188-.972-2.028Zm17.908-8.304v8.952c0 .24.032.416.096.528a.592.592 0 0 0 .312.24l.456.132c.24.096.36.248.36.456 0 .336-.212.504-.636.504h-4.644c-.216 0-.376-.04-.48-.12a.464.464 0 0 1-.144-.36c0-.112.032-.208.096-.288a.745.745 0 0 1 .336-.192l.48-.132a.554.554 0 0 0 .312-.228c.072-.112.108-.288.108-.528v-6.984c0-.2-.032-.34-.096-.42-.056-.088-.152-.144-.288-.168l-.636-.048c-.144-.024-.248-.072-.312-.144a.417.417 0 0 1-.084-.264c0-.128.036-.228.108-.3.08-.08.22-.16.42-.24l2.304-.816a7.41 7.41 0 0 1 .696-.24c.176-.048.344-.072.504-.072.24 0 .42.068.54.204a.74.74 0 0 1 .192.528Zm-.372 2.664-.516-.54.468-.42c.992-.896 1.844-1.532 2.556-1.908.712-.384 1.388-.576 2.028-.576.968 0 1.72.324 2.256.972.544.648.872 1.516.984 2.604l.684 6.132c.032.248.076.432.132.552.064.12.172.204.324.252l.432.12a.653.653 0 0 1 .312.192c.072.08.108.176.108.288a.464.464 0 0 1-.144.36c-.096.08-.256.12-.48.12h-4.692c-.424 0-.636-.168-.636-.504 0-.208.12-.36.36-.456l.468-.132a.656.656 0 0 0 .36-.24c.08-.12.104-.304.072-.552l-.636-5.652c-.08-.696-.256-1.216-.528-1.56-.272-.352-.676-.528-1.212-.528-.328 0-.68.088-1.056.264-.368.176-.756.44-1.164.792l-.48.42Zm16.349 4.764c0-.576.176-1.048.528-1.416.352-.376.796-.564 1.332-.564s.94.16 1.212.48c.28.312.42.72.42 1.224v1.38c0 .512.184.94.552 1.284.368.344.908.516 1.62.516.744 0 1.364-.34 1.86-1.02.496-.688.744-1.74.744-3.156 0-1.456-.276-2.536-.828-3.24-.544-.704-1.264-1.056-2.16-1.056-.368 0-.72.064-1.056.192-.328.12-.644.3-.948.54-.304.232-.6.524-.888.876-.16.152-.308.26-.444.324a.926.926 0 0 1-.42.096.758.758 0 0 1-.468-.144c-.12-.104-.18-.256-.18-.456V239.8c0-.28.08-.5.24-.66.16-.168.408-.252.744-.252.16 0 .328.024.504.072.184.048.432.148.744.3.376.152.784.292 1.224.42.44.128.912.228 1.416.3.512.072 1.048.108 1.608.108.864 0 1.568-.1 2.112-.3.544-.208.956-.492 1.236-.852.184-.16.336-.256.456-.288a.597.597 0 0 1 .336 0c.088.024.16.088.216.192.056.096.064.244.024.444-.144.896-.432 1.628-.865 2.196a3.655 3.655 0 0 1-1.691 1.248c-.696.264-1.528.396-2.496.396-.648 0-1.292-.056-1.933-.168a12.356 12.356 0 0 1-1.799-.456 8.476 8.476 0 0 1-1.536-.684l.708-.84v7.152l-.468-.06c.4-.488.828-.892 1.284-1.212a4.934 4.934 0 0 1 1.5-.732 6.212 6.212 0 0 1 1.836-.252c1.112 0 2.08.212 2.904.636.832.416 1.476 1.004 1.932 1.764.464.76.696 1.644.696 2.652 0 1.136-.264 2.112-.792 2.928-.528.816-1.268 1.44-2.22 1.872-.952.432-2.06.648-3.324.648-1.168 0-2.16-.168-2.976-.504-.816-.336-1.436-.784-1.86-1.344a3.112 3.112 0 0 1-.636-1.908Zm20.915-13.776c1.504 0 2.784.348 3.84 1.044 1.056.688 1.86 1.688 2.412 3 .56 1.312.84 2.896.84 4.752 0 1.8-.296 3.356-.888 4.668-.592 1.304-1.432 2.308-2.52 3.012-1.08.704-2.352 1.056-3.816 1.056-1.504 0-2.784-.344-3.84-1.032-1.056-.696-1.864-1.7-2.424-3.012-.552-1.32-.828-2.912-.828-4.776 0-1.792.296-3.34.888-4.644.6-1.304 1.44-2.308 2.52-3.012 1.088-.704 2.36-1.056 3.816-1.056Zm3.324 9.288c0-1.976-.132-3.572-.396-4.788-.264-1.216-.652-2.104-1.164-2.664-.512-.568-1.144-.852-1.896-.852-.696 0-1.292.264-1.788.792-.496.52-.876 1.316-1.14 2.388-.256 1.064-.384 2.42-.384 4.068 0 1.976.132 3.576.396 4.8.264 1.216.652 2.104 1.164 2.664.512.56 1.14.84 1.884.84.704 0 1.304-.256 1.8-.768.496-.52.872-1.316 1.128-2.388.264-1.072.396-2.436.396-4.092Zm9.621-9.252c1.232 0 2.216.392 2.952 1.176.744.776 1.116 1.836 1.116 3.18 0 .976-.176 1.808-.528 2.496-.352.688-.84 1.212-1.464 1.572-.616.36-1.332.54-2.148.54-1.32 0-2.344-.392-3.072-1.176-.72-.792-1.08-1.9-1.08-3.324 0-1.352.376-2.432 1.128-3.24.752-.816 1.784-1.224 3.096-1.224Zm1.512 4.524c0-1.352-.14-2.316-.42-2.892-.272-.584-.66-.876-1.164-.876-.528 0-.928.292-1.2.876-.264.584-.396 1.488-.396 2.712 0 1.4.14 2.392.42 2.976.28.584.68.876 1.2.876.32 0 .596-.116.828-.348.232-.232.412-.616.54-1.152.128-.536.192-1.26.192-2.172Zm3.936 3.24c-.128.152-.244.248-.348.288-.096.04-.212.024-.348-.048-.12-.064-.188-.152-.204-.264-.008-.112.028-.252.108-.42.12-.232.272-.532.456-.9.192-.368.4-.772.624-1.212.224-.44.456-.888.696-1.344l.696-1.344c.224-.432.428-.82.612-1.164.192-.344.348-.616.468-.816.168-.272.376-.444.624-.516.248-.08.516-.04.804.12.264.152.42.348.468.588.048.232-.016.484-.192.756-.104.176-.268.424-.492.744-.216.312-.464.668-.744 1.068-.28.392-.576.804-.888 1.236-.304.432-.604.856-.9 1.272-.296.408-.572.78-.828 1.116-.248.336-.452.616-.612.84Zm-2.22 1.908c.128-.152.244-.248.348-.288.104-.048.224-.036.36.036.128.072.196.164.204.276.008.112-.032.252-.12.42l-.468.9-.612 1.224c-.224.44-.456.892-.696 1.356-.232.464-.464.912-.696 1.344-.224.432-.432.82-.624 1.164-.184.344-.336.612-.456.804-.168.264-.38.432-.636.504-.248.08-.508.044-.78-.108-.272-.144-.432-.332-.48-.564-.048-.24.016-.496.192-.768.112-.184.276-.432.492-.744.216-.32.464-.68.744-1.08l.876-1.248.912-1.26c.304-.416.58-.792.828-1.128.248-.344.452-.624.612-.84Zm5.568-1.164c1.232 0 2.216.392 2.952 1.176.744.776 1.116 1.836 1.116 3.18 0 .976-.176 1.808-.528 2.496-.352.688-.84 1.212-1.464 1.572-.616.36-1.332.54-2.148.54-1.32 0-2.344-.392-3.072-1.176-.72-.792-1.08-1.9-1.08-3.324 0-1.352.376-2.432 1.128-3.24.752-.816 1.784-1.224 3.096-1.224Zm1.512 4.524c0-1.352-.14-2.316-.42-2.892-.272-.584-.66-.876-1.164-.876-.528 0-.928.292-1.2.876-.264.584-.396 1.488-.396 2.712 0 1.4.14 2.392.42 2.976.28.584.68.876 1.2.876.32 0 .596-.116.828-.348.232-.232.412-.616.54-1.152.128-.536.192-1.26.192-2.172Zm20.143-.564-1.164.396 4.464-11.484c.152-.4.328-.676.528-.828.208-.152.488-.228.84-.228h3.492c.24 0 .416.048.528.144.12.088.18.216.18.384 0 .144-.04.264-.12.36-.072.096-.196.168-.372.216l-.636.168c-.264.072-.444.18-.54.324-.088.136-.124.364-.108.684l.924 12.42c.016.272.072.464.168.576.096.104.26.188.492.252l.624.168c.16.048.276.12.348.216.072.088.108.2.108.336 0 .16-.056.292-.168.396-.112.104-.288.156-.528.156h-5.796c-.248 0-.432-.048-.552-.144a.48.48 0 0 1-.168-.384c0-.136.036-.252.108-.348.08-.096.212-.172.396-.228l.624-.168c.28-.072.464-.168.552-.288.096-.12.14-.3.132-.54l-.996-12.708 1.056-.072-5.1 13.236c-.136.376-.28.62-.432.732a.858.858 0 0 1-.516.156c-.144 0-.276-.02-.396-.06a.746.746 0 0 1-.336-.252 2.738 2.738 0 0 1-.324-.624l-5.208-12.84 1.032-.384-1.044 12.432c-.032.344.04.604.216.78.176.176.42.328.732.456l.612.204c.12.048.216.112.288.192a.405.405 0 0 1 .108.3c0 .168-.06.304-.18.408-.112.096-.288.144-.528.144h-3.852c-.232 0-.408-.048-.528-.144a.48.48 0 0 1-.168-.384.48.48 0 0 1 .144-.372c.104-.088.236-.164.396-.228l.492-.156c.28-.096.5-.236.66-.42.168-.184.268-.448.3-.792l.996-11.772c.032-.384-.008-.672-.12-.864-.104-.192-.292-.324-.564-.396l-.6-.144a.969.969 0 0 1-.396-.216.562.562 0 0 1-.12-.372c0-.36.24-.54.72-.54h3.456c.328 0 .592.068.792.204.208.128.388.396.54.804l4.512 11.136Zm26.362-6.012c0 1.04-.268 1.94-.804 2.7-.528.76-1.276 1.352-2.244 1.776-.968.416-2.108.624-3.42.624a9.84 9.84 0 0 1-2.412-.276c-.72-.184-1.348-.448-1.884-.792l.156-1.02c.296.2.612.368.948.504.336.136.688.24 1.056.312.376.064.764.096 1.164.096.736 0 1.388-.156 1.956-.468a3.335 3.335 0 0 0 1.356-1.368c.336-.6.504-1.328.504-2.184 0-1-.196-1.864-.588-2.592a4.167 4.167 0 0 0-1.644-1.704c-.704-.4-1.532-.6-2.484-.6h-.948v13.728c0 .176.048.324.144.444.096.112.248.188.456.228l1.044.144c.192.032.328.096.408.192a.564.564 0 0 1 .132.396.48.48 0 0 1-.168.384c-.112.096-.288.144-.528.144h-6.264c-.232 0-.408-.048-.528-.144a.48.48 0 0 1-.168-.384c0-.288.164-.48.492-.576l.708-.156a.928.928 0 0 0 .432-.24.64.64 0 0 0 .144-.432v-12.936a.595.595 0 0 0-.144-.42.874.874 0 0 0-.432-.252l-.708-.156c-.328-.096-.492-.288-.492-.576 0-.168.056-.296.168-.384.112-.096.288-.144.528-.144h5.82c1.736 0 3.216.264 4.44.792 1.232.52 2.172 1.244 2.82 2.172.656.92.984 1.976.984 3.168Zm6.4 9.924c.552 0 .976-.136 1.272-.408.304-.28.456-.632.456-1.056 0-.272-.06-.516-.18-.732-.112-.216-.336-.412-.672-.588-.336-.184-.82-.352-1.452-.504-1.216-.256-2.16-.572-2.832-.948-.664-.384-1.128-.828-1.392-1.332a3.63 3.63 0 0 1-.384-1.668c0-1.112.392-1.992 1.176-2.64.784-.648 1.912-.972 3.384-.972.528 0 .96.044 1.296.132.344.088.62.18.828.276.216.088.404.132.564.132.176 0 .312-.044.408-.132.096-.096.192-.188.288-.276a.561.561 0 0 1 .396-.144c.112 0 .212.04.3.12.096.072.176.212.24.42l.78 2.472c.088.264.116.48.084.648-.032.168-.136.288-.312.36-.176.064-.328.064-.456 0s-.248-.184-.36-.36c-.368-.64-.76-1.148-1.176-1.524a3.827 3.827 0 0 0-1.296-.828 3.806 3.806 0 0 0-1.404-.264c-.68 0-1.192.14-1.536.42-.336.28-.504.656-.504 1.128 0 .288.072.548.216.78.144.224.412.432.804.624.4.184.968.364 1.704.54 1.032.224 1.848.516 2.448.876.608.352 1.044.78 1.308 1.284.264.496.396 1.076.396 1.74 0 .688-.176 1.292-.528 1.812-.352.52-.844.928-1.476 1.224-.624.288-1.352.432-2.184.432-.512 0-.928-.052-1.248-.156a6.053 6.053 0 0 1-.78-.312 1.32 1.32 0 0 0-.588-.156.637.637 0 0 0-.432.156c-.112.104-.224.204-.336.3a.522.522 0 0 1-.384.156.376.376 0 0 1-.288-.132c-.08-.08-.14-.22-.18-.42l-.48-2.328c-.056-.304-.068-.532-.036-.684.04-.152.14-.26.3-.324.168-.064.316-.056.444.024s.26.228.396.444c.496.856 1.036 1.468 1.62 1.836.584.368 1.18.552 1.788.552Zm18.858-.756v-.24l-.228-.048v-7.188c0-.568-.144-1.004-.432-1.308-.28-.312-.676-.468-1.188-.468-.48 0-.848.104-1.104.312-.248.208-.372.456-.372.744v1.056c0 .48-.16.852-.48 1.116-.32.256-.768.384-1.344.384-.488 0-.86-.116-1.116-.348-.248-.232-.372-.556-.372-.972 0-.496.204-.984.612-1.464.416-.48 1.024-.876 1.824-1.188.8-.312 1.784-.468 2.952-.468 1.464 0 2.552.296 3.264.888.712.592 1.068 1.396 1.068 2.412v6.24c0 .224.044.392.132.504a.494.494 0 0 0 .396.168c.176 0 .308-.04.396-.12.088-.088.164-.176.228-.264.04-.056.084-.1.132-.132a.254.254 0 0 1 .168-.06c.096 0 .164.036.204.108a.488.488 0 0 1 .072.276c0 .264-.096.54-.288.828-.184.28-.46.52-.828.72-.368.2-.828.3-1.38.3-.712 0-1.276-.16-1.692-.48-.416-.32-.624-.756-.624-1.308Zm-7.152-1.008c0-.984.44-1.78 1.32-2.388.888-.616 2.132-.924 3.732-.924.52 0 .984.044 1.392.132.416.088.776.208 1.08.36l-.252.732a4.574 4.574 0 0 0-.84-.3 3.707 3.707 0 0 0-.924-.108c-.656 0-1.168.172-1.536.516-.368.344-.552.82-.552 1.428s.156 1.072.468 1.392c.32.32.732.48 1.236.48a2.75 2.75 0 0 0 1.224-.288c.392-.2.724-.472.996-.816l.252.648c-.432.616-1.016 1.092-1.752 1.428a5.569 5.569 0 0 1-2.34.504c-1.04 0-1.884-.256-2.532-.768-.648-.512-.972-1.188-.972-2.028Zm17.488-3.828c0-1.16.164-2.128.492-2.904.328-.784.756-1.372 1.284-1.764.536-.392 1.108-.588 1.716-.588.76 0 1.344.216 1.752.648.408.424.612 1.04.612 1.848 0 .704-.148 1.232-.444 1.584a1.422 1.422 0 0 1-1.14.528c-.472 0-.832-.128-1.08-.384-.248-.256-.372-.608-.372-1.056v-.444c-.008-.248-.068-.432-.18-.552-.112-.128-.292-.192-.54-.192-.28 0-.552.116-.816.348-.256.232-.464.584-.624 1.056-.16.472-.24 1.076-.24 1.812l-.42.06Zm.228-4.464.192 2.796v6.144c0 .216.04.38.12.492.088.104.252.176.492.216l1.032.156c.176.032.308.088.396.168.088.08.132.196.132.348a.433.433 0 0 1-.168.36c-.104.08-.26.12-.468.12h-5.592c-.208 0-.364-.04-.468-.12a.447.447 0 0 1-.156-.36c0-.112.036-.208.108-.288a.742.742 0 0 1 .324-.192l.48-.132a.492.492 0 0 0 .312-.228c.072-.112.108-.288.108-.528v-6.96c0-.2-.032-.34-.096-.42-.056-.088-.152-.144-.288-.168l-.636-.048a.63.63 0 0 1-.312-.144.417.417 0 0 1-.084-.264c0-.128.036-.232.108-.312.08-.08.22-.156.42-.228l2.256-.792c.376-.144.652-.236.828-.276.176-.048.312-.072.408-.072.168 0 .292.056.372.168.088.112.148.3.18.564Zm17.823 3.756c0 .408-.116.72-.348.936-.232.216-.568.324-1.008.324h-7.488v-.876h4.896c.392 0 .588-.176.588-.528 0-1.08-.192-1.896-.576-2.448-.384-.552-.896-.828-1.536-.828-.496 0-.936.152-1.32.456-.376.296-.672.732-.888 1.308-.216.568-.324 1.252-.324 2.052 0 1.56.36 2.728 1.08 3.504.728.776 1.692 1.164 2.892 1.164.712 0 1.336-.144 1.872-.432a2.987 2.987 0 0 0 1.224-1.236 2.16 2.16 0 0 1 .324-.312.433.433 0 0 1 .252-.084c.12 0 .208.056.264.168.056.112.08.244.072.396-.032.68-.272 1.308-.72 1.884-.44.576-1.04 1.036-1.8 1.38-.752.336-1.62.504-2.604.504-1.144 0-2.16-.236-3.048-.708a5.215 5.215 0 0 1-2.088-1.992c-.504-.856-.756-1.856-.756-3 0-1.208.24-2.276.72-3.204a5.405 5.405 0 0 1 2.076-2.184c.896-.536 1.968-.804 3.216-.804 1.056 0 1.96.196 2.712.588.752.392 1.324.932 1.716 1.62.4.68.6 1.464.6 2.352Zm-181.166 26.232v8.952c0 .24.032.42.096.54a.54.54 0 0 0 .324.228l.456.12a.73.73 0 0 1 .324.204c.072.08.108.176.108.288a.447.447 0 0 1-.156.36c-.096.08-.252.12-.468.12h-4.74c-.208 0-.364-.04-.468-.12a.464.464 0 0 1-.144-.36c0-.112.032-.208.096-.288a.742.742 0 0 1 .324-.192l.48-.132a.554.554 0 0 0 .312-.228c.072-.112.108-.288.108-.528v-6.984c0-.2-.032-.34-.096-.42-.056-.088-.152-.144-.288-.168l-.636-.048c-.144-.024-.248-.072-.312-.144a.417.417 0 0 1-.084-.264c0-.128.036-.228.108-.3.08-.08.22-.16.42-.24l2.304-.816c.304-.112.544-.192.72-.24.176-.048.328-.072.456-.072.256 0 .444.068.564.204a.74.74 0 0 1 .192.528Zm-1.932-2.544c-.632 0-1.14-.164-1.524-.492-.384-.336-.576-.772-.576-1.308 0-.528.192-.952.576-1.272.384-.328.892-.492 1.524-.492.64 0 1.152.164 1.536.492.392.32.588.744.588 1.272 0 .536-.196.972-.588 1.308-.384.328-.896.492-1.536.492Zm9.456-3.756v15.252c0 .24.032.42.096.54a.54.54 0 0 0 .324.228l.468.12a.73.73 0 0 1 .324.204c.072.08.108.176.108.288a.447.447 0 0 1-.156.36c-.104.08-.264.12-.48.12h-4.728c-.216 0-.376-.04-.48-.12a.464.464 0 0 1-.144-.36c0-.112.032-.208.096-.288a.745.745 0 0 1 .336-.192l.48-.132a.552.552 0 0 0 .3-.228c.072-.112.108-.288.108-.528v-13.284c0-.2-.032-.34-.096-.42a.394.394 0 0 0-.276-.168l-.648-.048a.505.505 0 0 1-.3-.144.417.417 0 0 1-.084-.264c0-.128.036-.228.108-.3.072-.08.212-.16.42-.24l2.304-.816c.296-.112.532-.192.708-.24.176-.048.328-.072.456-.072.256 0 .444.068.564.204a.74.74 0 0 1 .192.528Zm7.828 0v15.252c0 .24.032.42.096.54a.54.54 0 0 0 .324.228l.468.12a.73.73 0 0 1 .324.204c.072.08.108.176.108.288a.447.447 0 0 1-.156.36c-.104.08-.264.12-.48.12h-4.728c-.216 0-.376-.04-.48-.12a.464.464 0 0 1-.144-.36c0-.112.032-.208.096-.288a.745.745 0 0 1 .336-.192l.48-.132a.552.552 0 0 0 .3-.228c.072-.112.108-.288.108-.528v-13.284c0-.2-.032-.34-.096-.42a.394.394 0 0 0-.276-.168l-.648-.048a.505.505 0 0 1-.3-.144.417.417 0 0 1-.084-.264c0-.128.036-.228.108-.3.072-.08.212-.16.42-.24l2.304-.816c.296-.112.532-.192.708-.24.176-.048.328-.072.456-.072.256 0 .444.068.564.204a.74.74 0 0 1 .192.528Zm7.57 6.3v8.952c0 .24.032.42.096.54a.54.54 0 0 0 .324.228l.456.12a.73.73 0 0 1 .324.204c.072.08.108.176.108.288a.447.447 0 0 1-.156.36c-.096.08-.252.12-.468.12h-4.74c-.208 0-.364-.04-.468-.12a.464.464 0 0 1-.144-.36c0-.112.032-.208.096-.288a.742.742 0 0 1 .324-.192l.48-.132a.554.554 0 0 0 .312-.228c.072-.112.108-.288.108-.528v-6.984c0-.2-.032-.34-.096-.42-.056-.088-.152-.144-.288-.168l-.636-.048c-.144-.024-.248-.072-.312-.144a.417.417 0 0 1-.084-.264c0-.128.036-.228.108-.3.08-.08.22-.16.42-.24l2.304-.816c.304-.112.544-.192.72-.24.176-.048.328-.072.456-.072.256 0 .444.068.564.204a.74.74 0 0 1 .192.528Zm-1.932-2.544c-.632 0-1.14-.164-1.524-.492-.384-.336-.576-.772-.576-1.308 0-.528.192-.952.576-1.272.384-.328.892-.492 1.524-.492.64 0 1.152.164 1.536.492.392.32.588.744.588 1.272 0 .536-.196.972-.588 1.308-.384.328-.896.492-1.536.492Zm5.363 3.168-.588-.168c-.184-.056-.312-.124-.384-.204a.416.416 0 0 1-.108-.288c0-.152.052-.268.156-.348a.65.65 0 0 1 .408-.12h.756c.176 0 .328-.032.456-.096.128-.072.256-.2.384-.384l1.356-1.848c.16-.2.312-.348.456-.444a.848.848 0 0 1 .456-.144.46.46 0 0 1 .372.156c.088.104.132.252.132.444v10.248c0 .568.108 1 .324 1.296.224.296.536.444.936.444.288 0 .512-.056.672-.168.16-.112.288-.24.384-.384.104-.152.2-.288.288-.408a.563.563 0 0 1 .348-.216c.12 0 .212.04.276.12.064.072.096.196.096.372a2.15 2.15 0 0 1-.456 1.284c-.288.384-.688.696-1.2.936-.504.24-1.084.36-1.74.36-1.016 0-1.816-.256-2.4-.768-.576-.512-.864-1.284-.864-2.316v-6.672c0-.2-.04-.348-.12-.444-.08-.096-.212-.176-.396-.24Zm2.544 0 .012-1.128h3.948c.176 0 .316.036.42.108a.356.356 0 0 1 .156.312c0 .2-.1.368-.3.504-.2.136-.524.204-.972.204h-3.264Zm17 3.144c0 .408-.116.72-.348.936-.232.216-.568.324-1.008.324h-7.488v-.876h4.896c.392 0 .588-.176.588-.528 0-1.08-.192-1.896-.576-2.448-.384-.552-.896-.828-1.536-.828-.496 0-.936.152-1.32.456-.376.296-.672.732-.888 1.308-.216.568-.324 1.252-.324 2.052 0 1.56.36 2.728 1.08 3.504.728.776 1.692 1.164 2.892 1.164.712 0 1.336-.144 1.872-.432a2.987 2.987 0 0 0 1.224-1.236 2.16 2.16 0 0 1 .324-.312.433.433 0 0 1 .252-.084c.12 0 .208.056.264.168.056.112.08.244.072.396-.032.68-.272 1.308-.72 1.884-.44.576-1.04 1.036-1.8 1.38-.752.336-1.62.504-2.604.504-1.144 0-2.16-.236-3.048-.708a5.215 5.215 0 0 1-2.088-1.992c-.504-.856-.756-1.856-.756-3 0-1.208.24-2.276.72-3.204a5.405 5.405 0 0 1 2.076-2.184c.896-.536 1.968-.804 3.216-.804 1.056 0 1.96.196 2.712.588.752.392 1.324.932 1.716 1.62.4.68.6 1.464.6 2.352Zm5.996.708c0-1.16.164-2.128.492-2.904.328-.784.756-1.372 1.284-1.764.536-.392 1.108-.588 1.716-.588.76 0 1.344.216 1.752.648.408.424.612 1.04.612 1.848 0 .704-.148 1.232-.444 1.584a1.422 1.422 0 0 1-1.14.528c-.472 0-.832-.128-1.08-.384-.248-.256-.372-.608-.372-1.056v-.444c-.008-.248-.068-.432-.18-.552-.112-.128-.292-.192-.54-.192-.28 0-.552.116-.816.348-.256.232-.464.584-.624 1.056-.16.472-.24 1.076-.24 1.812l-.42.06Zm.228-4.464.192 2.796v6.144c0 .216.04.38.12.492.088.104.252.176.492.216l1.032.156c.176.032.308.088.396.168.088.08.132.196.132.348a.433.433 0 0 1-.168.36c-.104.08-.26.12-.468.12h-5.592c-.208 0-.364-.04-.468-.12a.447.447 0 0 1-.156-.36c0-.112.036-.208.108-.288a.742.742 0 0 1 .324-.192l.48-.132a.492.492 0 0 0 .312-.228c.072-.112.108-.288.108-.528v-6.96c0-.2-.032-.34-.096-.42-.056-.088-.152-.144-.288-.168l-.636-.048a.63.63 0 0 1-.312-.144.417.417 0 0 1-.084-.264c0-.128.036-.232.108-.312.08-.08.22-.156.42-.228l2.256-.792c.376-.144.652-.236.828-.276.176-.048.312-.072.408-.072.168 0 .292.056.372.168.088.112.148.3.18.564Zm14.115 9.3v-.24l-.228-.048v-7.188c0-.568-.144-1.004-.432-1.308-.28-.312-.676-.468-1.188-.468-.48 0-.848.104-1.104.312-.248.208-.372.456-.372.744v1.056c0 .48-.16.852-.48 1.116-.32.256-.768.384-1.344.384-.488 0-.86-.116-1.116-.348-.248-.232-.372-.556-.372-.972 0-.496.204-.984.612-1.464.416-.48 1.024-.876 1.824-1.188.8-.312 1.784-.468 2.952-.468 1.464 0 2.552.296 3.264.888.712.592 1.068 1.396 1.068 2.412v6.24c0 .224.044.392.132.504a.494.494 0 0 0 .396.168c.176 0 .308-.04.396-.12.088-.088.164-.176.228-.264.04-.056.084-.1.132-.132a.254.254 0 0 1 .168-.06c.096 0 .164.036.204.108a.488.488 0 0 1 .072.276c0 .264-.096.54-.288.828-.184.28-.46.52-.828.72-.368.2-.828.3-1.38.3-.712 0-1.276-.16-1.692-.48-.416-.32-.624-.756-.624-1.308Zm-7.152-1.008c0-.984.44-1.78 1.32-2.388.888-.616 2.132-.924 3.732-.924.52 0 .984.044 1.392.132.416.088.776.208 1.08.36l-.252.732a4.574 4.574 0 0 0-.84-.3 3.707 3.707 0 0 0-.924-.108c-.656 0-1.168.172-1.536.516-.368.344-.552.82-.552 1.428s.156 1.072.468 1.392c.32.32.732.48 1.236.48a2.75 2.75 0 0 0 1.224-.288c.392-.2.724-.472.996-.816l.252.648c-.432.616-1.016 1.092-1.752 1.428a5.569 5.569 0 0 1-2.34.504c-1.04 0-1.884-.256-2.532-.768-.648-.512-.972-1.188-.972-2.028Zm13.816-7.68-.588-.168c-.184-.056-.312-.124-.384-.204a.416.416 0 0 1-.108-.288c0-.152.052-.268.156-.348a.65.65 0 0 1 .408-.12h.756c.176 0 .328-.032.456-.096.128-.072.256-.2.384-.384l1.356-1.848c.16-.2.312-.348.456-.444a.848.848 0 0 1 .456-.144.46.46 0 0 1 .372.156c.088.104.132.252.132.444v10.248c0 .568.108 1 .324 1.296.224.296.536.444.936.444.288 0 .512-.056.672-.168.16-.112.288-.24.384-.384.104-.152.2-.288.288-.408a.563.563 0 0 1 .348-.216c.12 0 .212.04.276.12.064.072.096.196.096.372a2.15 2.15 0 0 1-.456 1.284c-.288.384-.688.696-1.2.936-.504.24-1.084.36-1.74.36-1.016 0-1.816-.256-2.4-.768-.576-.512-.864-1.284-.864-2.316v-6.672c0-.2-.04-.348-.12-.444-.08-.096-.212-.176-.396-.24Zm2.544 0 .012-1.128h3.948c.176 0 .316.036.42.108a.356.356 0 0 1 .156.312c0 .2-.1.368-.3.504-.2.136-.524.204-.972.204h-3.264Zm17 3.144c0 .408-.116.72-.348.936-.232.216-.568.324-1.008.324h-7.488v-.876h4.896c.392 0 .588-.176.588-.528 0-1.08-.192-1.896-.576-2.448-.384-.552-.896-.828-1.536-.828-.496 0-.936.152-1.32.456-.376.296-.672.732-.888 1.308-.216.568-.324 1.252-.324 2.052 0 1.56.36 2.728 1.08 3.504.728.776 1.692 1.164 2.892 1.164.712 0 1.336-.144 1.872-.432a2.987 2.987 0 0 0 1.224-1.236 2.16 2.16 0 0 1 .324-.312.433.433 0 0 1 .252-.084c.12 0 .208.056.264.168.056.112.08.244.072.396-.032.68-.272 1.308-.72 1.884-.44.576-1.04 1.036-1.8 1.38-.752.336-1.62.504-2.604.504-1.144 0-2.16-.236-3.048-.708a5.215 5.215 0 0 1-2.088-1.992c-.504-.856-.756-1.856-.756-3 0-1.208.24-2.276.72-3.204a5.405 5.405 0 0 1 2.076-2.184c.896-.536 1.968-.804 3.216-.804 1.056 0 1.96.196 2.712.588.752.392 1.324.932 1.716 1.62.4.68.6 1.464.6 2.352Zm4.015 7.308c-.384 0-.736-.1-1.056-.3-.32-.2-.576-.464-.768-.792a2.147 2.147 0 0 1-.276-1.068c0-.392.092-.748.276-1.068.192-.328.448-.588.768-.78.32-.192.672-.288 1.056-.288a2.058 2.058 0 0 1 1.836 1.068c.184.32.276.676.276 1.068a2.175 2.175 0 0 1-1.032 1.86c-.32.2-.68.3-1.08.3Z" fill="#1E1E1E"/><circle opacity=".1" cx="540.25" cy="100" r="100" fill="#F2A413"/><path d="M539.75 0a100.005 100.005 0 0 1 88.377 53.207 100.006 100.006 0 0 1-5.669 103.001 99.993 99.993 0 0 1-93.681 43.188 99.992 99.992 0 0 1-49.695-19.902 99.99 99.99 0 0 1-32.31-42.682L539.75 100V0Z" fill="#F2A413"/><path d="M518.851 86.56c1.866 0 3.406.293 4.62.88 1.226.573 2.113 1.327 2.66 2.26.56.92.773 1.9.64 2.94-.147 1.213-.64 2.153-1.48 2.82-.84.653-1.807.98-2.9.98-1.4 0-2.374-.38-2.92-1.14-.534-.76-.634-1.747-.3-2.96l.26-.98c.24-.813.24-1.44 0-1.88-.227-.453-.687-.68-1.38-.68-.72 0-1.44.433-2.16 1.3-.707.853-1.44 2.28-2.2 4.28-.76 2-1.58 4.72-2.46 8.16-.534 2.08-.92 3.807-1.16 5.18-.227 1.36-.32 2.44-.28 3.24.053.787.226 1.347.52 1.68.306.333.72.5 1.24.5.613 0 1.173-.22 1.68-.66.506-.453.966-1.133 1.38-2.04.426-.92.813-2.067 1.16-3.44.373-1.507.533-2.72.48-3.64-.054-.933-.274-1.607-.66-2.02-.374-.427-.867-.64-1.48-.64-.374 0-.76.08-1.16.24-.387.16-.767.387-1.14.68-.374.293-.72.653-1.04 1.08-.32.413-.58.887-.78 1.42l-.76-.96a8.2 8.2 0 0 1 1.22-2.24 7.877 7.877 0 0 1 1.8-1.66 7.648 7.648 0 0 1 2.3-1.02c.866-.24 1.806-.36 2.82-.36 1.693 0 3.113.373 4.26 1.12 1.16.747 1.953 1.8 2.38 3.16.426 1.36.406 2.96-.06 4.8-.454 1.8-1.254 3.327-2.4 4.58-1.134 1.253-2.534 2.213-4.2 2.88-1.654.653-3.487.98-5.5.98-2.627 0-4.714-.627-6.26-1.88-1.547-1.267-2.527-3.027-2.94-5.28-.4-2.267-.207-4.887.58-7.86.773-2.947 1.92-5.447 3.44-7.5s3.32-3.62 5.4-4.7c2.08-1.08 4.34-1.62 6.78-1.62Zm14.933 28.84c-1.867 0-3.42-.293-4.66-.88-1.227-.587-2.12-1.34-2.68-2.26-.56-.933-.773-1.92-.64-2.96.16-1.253.66-2.22 1.5-2.9a4.557 4.557 0 0 1 2.92-1.02c1.387 0 2.347.393 2.88 1.18.547.787.653 1.807.32 3.06l-.28.96c-.227.827-.22 1.46.02 1.9.24.44.713.66 1.42.66.733 0 1.453-.427 2.16-1.28.707-.853 1.44-2.28 2.2-4.28.76-2.013 1.587-4.74 2.48-8.18.707-2.76 1.147-4.907 1.32-6.44.187-1.533.133-2.607-.16-3.22-.293-.627-.793-.94-1.5-.94-.6 0-1.16.227-1.68.68-.507.453-.973 1.133-1.4 2.04-.413.907-.787 2.047-1.12 3.42-.373 1.493-.533 2.693-.48 3.6.053.907.267 1.567.64 1.98.387.4.893.6 1.52.6.493 0 1.007-.133 1.54-.4a5.29 5.29 0 0 0 1.48-1.18 5.827 5.827 0 0 0 1.1-1.82l.76.94a8.254 8.254 0 0 1-1.24 2.26 7.522 7.522 0 0 1-1.78 1.66 8.33 8.33 0 0 1-2.32 1.02c-.853.24-1.787.36-2.8.36-1.707 0-3.14-.367-4.3-1.1-1.147-.747-1.933-1.787-2.36-3.12-.427-1.347-.407-2.933.06-4.76.467-1.787 1.267-3.307 2.4-4.56 1.133-1.253 2.527-2.207 4.18-2.86 1.667-.667 3.507-1 5.52-1 2.627 0 4.713.633 6.26 1.9 1.547 1.253 2.52 3.007 2.92 5.26.413 2.253.227 4.867-.56 7.84-.787 2.96-1.933 5.473-3.44 7.54-1.507 2.053-3.3 3.62-5.38 4.7-2.067 1.067-4.34 1.6-6.82 1.6Zm28.635-28.9c2.16 0 3.733.66 4.72 1.98 1 1.32 1.2 3.133.6 5.44-.44 1.72-1.14 3.18-2.1 4.38-.96 1.187-2.08 2.087-3.36 2.7a9.027 9.027 0 0 1-3.98.92c-2.373 0-4.04-.667-5-2s-1.12-3.26-.48-5.78c.4-1.533 1.06-2.873 1.98-4.02a9.502 9.502 0 0 1 3.34-2.66c1.307-.64 2.733-.96 4.28-.96Zm-.5 7.76c.613-2.347.893-3.987.84-4.92-.053-.933-.34-1.4-.86-1.4-.573 0-1.127.48-1.66 1.44-.533.947-1.073 2.447-1.62 4.5-.627 2.48-.913 4.2-.86 5.16.053.947.367 1.42.94 1.42.307 0 .627-.173.96-.52.333-.36.687-.987 1.06-1.88.387-.907.787-2.173 1.2-3.8Zm5.24 6.06c-.333.267-.593.433-.78.5-.173.067-.333.033-.48-.1-.133-.12-.167-.267-.1-.44.067-.187.24-.427.52-.72l1.46-1.62a445.99 445.99 0 0 1 2.1-2.26c.773-.827 1.56-1.667 2.36-2.52.813-.867 1.587-1.687 2.32-2.46.733-.773 1.373-1.44 1.92-2 .56-.573.967-.98 1.22-1.22.547-.507 1.053-.827 1.52-.96.48-.147.88-.067 1.2.24.32.28.407.647.26 1.1-.133.44-.467.9-1 1.38-.253.227-.673.607-1.26 1.14-.587.533-1.28 1.16-2.08 1.88-.8.707-1.647 1.46-2.54 2.26-.88.787-1.747 1.56-2.6 2.32-.853.747-1.633 1.427-2.34 2.04a72.454 72.454 0 0 1-1.7 1.44Zm-3.62 1.88c.32-.267.58-.433.78-.5.213-.08.393-.06.54.06.133.12.16.28.08.48-.08.187-.267.433-.56.74l-1.36 1.48c-.573.64-1.227 1.36-1.96 2.16-.733.8-1.487 1.613-2.26 2.44-.773.827-1.507 1.613-2.2 2.36-.693.733-1.3 1.373-1.82 1.92-.507.533-.873.907-1.1 1.12-.52.493-1.027.8-1.52.92-.48.133-.88.06-1.2-.22-.32-.267-.407-.62-.26-1.06.16-.453.513-.933 1.06-1.44.213-.213.593-.567 1.14-1.06.56-.507 1.22-1.1 1.98-1.78.773-.68 1.58-1.4 2.42-2.16.853-.76 1.687-1.493 2.5-2.2.813-.72 1.547-1.367 2.2-1.94a68.058 68.058 0 0 1 1.54-1.32Zm9.1-2.06c2.16 0 3.733.66 4.72 1.98 1 1.32 1.2 3.133.6 5.44-.44 1.72-1.14 3.18-2.1 4.38-.96 1.187-2.08 2.087-3.36 2.7a9.027 9.027 0 0 1-3.98.92c-2.373 0-4.04-.667-5-2s-1.12-3.26-.48-5.78c.4-1.533 1.06-2.873 1.98-4.02a9.502 9.502 0 0 1 3.34-2.66c1.307-.64 2.733-.96 4.28-.96Zm-.5 7.76c.613-2.347.893-3.987.84-4.92-.053-.933-.34-1.4-.86-1.4-.573 0-1.127.48-1.66 1.44-.533.947-1.073 2.447-1.62 4.5-.627 2.48-.913 4.2-.86 5.16.053.947.367 1.42.94 1.42.307 0 .627-.173.96-.52.333-.36.687-.987 1.06-1.88.387-.907.787-2.173 1.2-3.8Z" fill="#352508"/><path d="m409.699 240.304-.696.156a.956.956 0 0 0-.444.252.595.595 0 0 0-.144.42v12.888c0 .296.084.508.252.636.176.128.436.192.78.192h2.016c.448 0 .832-.06 1.152-.18a2.25 2.25 0 0 0 .876-.66c.264-.32.528-.772.792-1.356l.756-1.692c.088-.192.196-.32.324-.384a.62.62 0 0 1 .468-.036c.192.048.324.136.396.264.072.12.08.288.024.504l-1.08 4.284c-.088.288-.196.5-.324.636-.128.144-.312.216-.552.216-.16 0-.32-.04-.48-.12a7.575 7.575 0 0 0-.54-.216 2.069 2.069 0 0 0-.72-.108h-8.928c-.232 0-.404-.048-.516-.144a.48.48 0 0 1-.168-.384c0-.288.16-.48.48-.576l.696-.156c.2-.056.348-.136.444-.24a.61.61 0 0 0 .156-.432v-12.936a.568.568 0 0 0-.156-.42c-.096-.112-.244-.196-.444-.252l-.696-.156c-.32-.096-.48-.288-.48-.576 0-.168.056-.296.168-.384.112-.096.284-.144.516-.144h5.868c.24 0 .416.048.528.144.112.088.168.216.168.384 0 .288-.164.48-.492.576Zm18.946 8.652c0 .408-.116.72-.348.936-.232.216-.568.324-1.008.324h-7.488v-.876h4.896c.392 0 .588-.176.588-.528 0-1.08-.192-1.896-.576-2.448-.384-.552-.896-.828-1.536-.828-.496 0-.936.152-1.32.456-.376.296-.672.732-.888 1.308-.216.568-.324 1.252-.324 2.052 0 1.56.36 2.728 1.08 3.504.728.776 1.692 1.164 2.892 1.164.712 0 1.336-.144 1.872-.432a2.987 2.987 0 0 0 1.224-1.236 2.16 2.16 0 0 1 .324-.312.433.433 0 0 1 .252-.084c.12 0 .208.056.264.168.056.112.08.244.072.396-.032.68-.272 1.308-.72 1.884-.44.576-1.04 1.036-1.8 1.38-.752.336-1.62.504-2.604.504-1.144 0-2.16-.236-3.048-.708a5.215 5.215 0 0 1-2.088-1.992c-.504-.856-.756-1.856-.756-3 0-1.208.24-2.276.72-3.204a5.405 5.405 0 0 1 2.076-2.184c.896-.536 1.968-.804 3.216-.804 1.056 0 1.96.196 2.712.588.752.392 1.324.932 1.716 1.62.4.68.6 1.464.6 2.352Zm6.872 6.3c.552 0 .976-.136 1.272-.408.304-.28.456-.632.456-1.056 0-.272-.06-.516-.18-.732-.112-.216-.336-.412-.672-.588-.336-.184-.82-.352-1.452-.504-1.216-.256-2.16-.572-2.832-.948-.664-.384-1.128-.828-1.392-1.332a3.63 3.63 0 0 1-.384-1.668c0-1.112.392-1.992 1.176-2.64.784-.648 1.912-.972 3.384-.972.528 0 .96.044 1.296.132.344.088.62.18.828.276.216.088.404.132.564.132.176 0 .312-.044.408-.132.096-.096.192-.188.288-.276a.561.561 0 0 1 .396-.144c.112 0 .212.04.3.12.096.072.176.212.24.42l.78 2.472c.088.264.116.48.084.648-.032.168-.136.288-.312.36-.176.064-.328.064-.456 0s-.248-.184-.36-.36c-.368-.64-.76-1.148-1.176-1.524a3.827 3.827 0 0 0-1.296-.828 3.806 3.806 0 0 0-1.404-.264c-.68 0-1.192.14-1.536.42-.336.28-.504.656-.504 1.128 0 .288.072.548.216.78.144.224.412.432.804.624.4.184.968.364 1.704.54 1.032.224 1.848.516 2.448.876.608.352 1.044.78 1.308 1.284.264.496.396 1.076.396 1.74 0 .688-.176 1.292-.528 1.812-.352.52-.844.928-1.476 1.224-.624.288-1.352.432-2.184.432-.512 0-.928-.052-1.248-.156a6.053 6.053 0 0 1-.78-.312 1.32 1.32 0 0 0-.588-.156.637.637 0 0 0-.432.156c-.112.104-.224.204-.336.3a.522.522 0 0 1-.384.156.376.376 0 0 1-.288-.132c-.08-.08-.14-.22-.18-.42l-.48-2.328c-.056-.304-.068-.532-.036-.684.04-.152.14-.26.3-.324.168-.064.316-.056.444.024s.26.228.396.444c.496.856 1.036 1.468 1.62 1.836.584.368 1.18.552 1.788.552Zm11.601 0c.552 0 .976-.136 1.272-.408.304-.28.456-.632.456-1.056 0-.272-.06-.516-.18-.732-.112-.216-.336-.412-.672-.588-.336-.184-.82-.352-1.452-.504-1.216-.256-2.16-.572-2.832-.948-.664-.384-1.128-.828-1.392-1.332a3.63 3.63 0 0 1-.384-1.668c0-1.112.392-1.992 1.176-2.64.784-.648 1.912-.972 3.384-.972.528 0 .96.044 1.296.132.344.088.62.18.828.276.216.088.404.132.564.132.176 0 .312-.044.408-.132.096-.096.192-.188.288-.276a.561.561 0 0 1 .396-.144c.112 0 .212.04.3.12.096.072.176.212.24.42l.78 2.472c.088.264.116.48.084.648-.032.168-.136.288-.312.36-.176.064-.328.064-.456 0s-.248-.184-.36-.36c-.368-.64-.76-1.148-1.176-1.524a3.827 3.827 0 0 0-1.296-.828 3.806 3.806 0 0 0-1.404-.264c-.68 0-1.192.14-1.536.42-.336.28-.504.656-.504 1.128 0 .288.072.548.216.78.144.224.412.432.804.624.4.184.968.364 1.704.54 1.032.224 1.848.516 2.448.876.608.352 1.044.78 1.308 1.284.264.496.396 1.076.396 1.74 0 .688-.176 1.292-.528 1.812-.352.52-.844.928-1.476 1.224-.624.288-1.352.432-2.184.432-.512 0-.928-.052-1.248-.156a6.053 6.053 0 0 1-.78-.312 1.32 1.32 0 0 0-.588-.156.637.637 0 0 0-.432.156c-.112.104-.224.204-.336.3a.522.522 0 0 1-.384.156.376.376 0 0 1-.288-.132c-.08-.08-.14-.22-.18-.42l-.48-2.328c-.056-.304-.068-.532-.036-.684.04-.152.14-.26.3-.324.168-.064.316-.056.444.024s.26.228.396.444c.496.856 1.036 1.468 1.62 1.836.584.368 1.18.552 1.788.552Zm12.21-9.444-.588-.168c-.184-.056-.312-.124-.384-.204a.416.416 0 0 1-.108-.288c0-.152.052-.268.156-.348a.65.65 0 0 1 .408-.12h.756c.176 0 .328-.032.456-.096.128-.072.256-.2.384-.384l1.356-1.848c.16-.2.312-.348.456-.444a.848.848 0 0 1 .456-.144.46.46 0 0 1 .372.156c.088.104.132.252.132.444v10.248c0 .568.108 1 .324 1.296.224.296.536.444.936.444.288 0 .512-.056.672-.168.16-.112.288-.24.384-.384.104-.152.2-.288.288-.408a.563.563 0 0 1 .348-.216c.12 0 .212.04.276.12.064.072.096.196.096.372a2.15 2.15 0 0 1-.456 1.284c-.288.384-.688.696-1.2.936-.504.24-1.084.36-1.74.36-1.016 0-1.816-.256-2.4-.768-.576-.512-.864-1.284-.864-2.316v-6.672c0-.2-.04-.348-.12-.444-.08-.096-.212-.176-.396-.24Zm2.544 0 .012-1.128h3.948c.176 0 .316.036.42.108a.356.356 0 0 1 .156.312c0 .2-.1.368-.3.504-.2.136-.524.204-.972.204h-3.264Zm10.759-6.924v15.252c0 .24.032.416.096.528a.592.592 0 0 0 .312.24l.456.132c.24.096.36.248.36.456 0 .336-.212.504-.636.504h-4.644c-.216 0-.376-.04-.48-.12a.464.464 0 0 1-.144-.36c0-.112.032-.208.096-.288a.745.745 0 0 1 .336-.192l.48-.132a.554.554 0 0 0 .312-.228c.072-.112.108-.288.108-.528v-13.284c0-.2-.032-.34-.096-.42-.056-.088-.152-.144-.288-.168l-.636-.048c-.144-.024-.248-.072-.312-.144a.417.417 0 0 1-.084-.264c0-.128.036-.228.108-.3.08-.08.22-.16.42-.24l2.304-.816a7.41 7.41 0 0 1 .696-.24c.176-.048.344-.072.504-.072.24 0 .42.068.54.204a.74.74 0 0 1 .192.528Zm-.372 8.964-.516-.54.468-.42c.992-.896 1.844-1.532 2.556-1.908.712-.384 1.388-.576 2.028-.576.976 0 1.732.324 2.268.972.536.648.86 1.516.972 2.604l.684 6.132c.032.248.076.432.132.552.064.12.172.204.324.252l.432.12a.653.653 0 0 1 .312.192c.072.08.108.176.108.288a.464.464 0 0 1-.144.36c-.096.08-.256.12-.48.12h-4.692c-.424 0-.636-.168-.636-.504 0-.208.12-.36.36-.456l.468-.132a.656.656 0 0 0 .36-.24c.08-.12.104-.304.072-.552l-.636-5.652c-.08-.696-.256-1.216-.528-1.56-.272-.352-.676-.528-1.212-.528-.328 0-.68.088-1.056.264-.368.176-.756.44-1.164.792l-.48.42Zm18.116 6.648v-.24l-.228-.048v-7.188c0-.568-.144-1.004-.432-1.308-.28-.312-.676-.468-1.188-.468-.48 0-.848.104-1.104.312-.248.208-.372.456-.372.744v1.056c0 .48-.16.852-.48 1.116-.32.256-.768.384-1.344.384-.488 0-.86-.116-1.116-.348-.248-.232-.372-.556-.372-.972 0-.496.204-.984.612-1.464.416-.48 1.024-.876 1.824-1.188.8-.312 1.784-.468 2.952-.468 1.464 0 2.552.296 3.264.888.712.592 1.068 1.396 1.068 2.412v6.24c0 .224.044.392.132.504a.494.494 0 0 0 .396.168c.176 0 .308-.04.396-.12.088-.088.164-.176.228-.264.04-.056.084-.1.132-.132a.254.254 0 0 1 .168-.06c.096 0 .164.036.204.108a.488.488 0 0 1 .072.276c0 .264-.096.54-.288.828-.184.28-.46.52-.828.72-.368.2-.828.3-1.38.3-.712 0-1.276-.16-1.692-.48-.416-.32-.624-.756-.624-1.308Zm-7.152-1.008c0-.984.44-1.78 1.32-2.388.888-.616 2.132-.924 3.732-.924.52 0 .984.044 1.392.132.416.088.776.208 1.08.36l-.252.732a4.574 4.574 0 0 0-.84-.3 3.707 3.707 0 0 0-.924-.108c-.656 0-1.168.172-1.536.516-.368.344-.552.82-.552 1.428s.156 1.072.468 1.392c.32.32.732.48 1.236.48a2.75 2.75 0 0 0 1.224-.288c.392-.2.724-.472.996-.816l.252.648c-.432.616-1.016 1.092-1.752 1.428a5.569 5.569 0 0 1-2.34.504c-1.04 0-1.884-.256-2.532-.768-.648-.512-.972-1.188-.972-2.028Zm17.908-8.304v8.952c0 .24.032.416.096.528a.592.592 0 0 0 .312.24l.456.132c.24.096.36.248.36.456 0 .336-.212.504-.636.504h-4.644c-.216 0-.376-.04-.48-.12a.464.464 0 0 1-.144-.36c0-.112.032-.208.096-.288a.745.745 0 0 1 .336-.192l.48-.132a.554.554 0 0 0 .312-.228c.072-.112.108-.288.108-.528v-6.984c0-.2-.032-.34-.096-.42-.056-.088-.152-.144-.288-.168l-.636-.048c-.144-.024-.248-.072-.312-.144a.417.417 0 0 1-.084-.264c0-.128.036-.228.108-.3.08-.08.22-.16.42-.24l2.304-.816a7.41 7.41 0 0 1 .696-.24c.176-.048.344-.072.504-.072.24 0 .42.068.54.204a.74.74 0 0 1 .192.528Zm-.372 2.664-.516-.54.468-.42c.992-.896 1.844-1.532 2.556-1.908.712-.384 1.388-.576 2.028-.576.968 0 1.72.324 2.256.972.544.648.872 1.516.984 2.604l.684 6.132c.032.248.076.432.132.552.064.12.172.204.324.252l.432.12a.653.653 0 0 1 .312.192c.072.08.108.176.108.288a.464.464 0 0 1-.144.36c-.096.08-.256.12-.48.12h-4.692c-.424 0-.636-.168-.636-.504 0-.208.12-.36.36-.456l.468-.132a.656.656 0 0 0 .36-.24c.08-.12.104-.304.072-.552l-.636-5.652c-.08-.696-.256-1.216-.528-1.56-.272-.352-.676-.528-1.212-.528-.328 0-.68.088-1.056.264-.368.176-.756.44-1.164.792l-.48.42Zm21.1-.66-.288-.336c.12-.024.252-.044.396-.06a8.55 8.55 0 0 1 .468-.036c.168-.016.336-.024.504-.024 1.176 0 2.188.176 3.036.528.856.344 1.512.848 1.968 1.512.464.664.696 1.464.696 2.4 0 1.048-.256 1.964-.768 2.748-.512.776-1.236 1.38-2.172 1.812-.928.424-2.028.636-3.3.636-1.224 0-2.252-.164-3.084-.492-.832-.328-1.46-.776-1.884-1.344a3.112 3.112 0 0 1-.636-1.908c0-.6.176-1.08.528-1.44a1.751 1.751 0 0 1 1.32-.552c.544 0 .952.152 1.224.456.28.304.42.712.42 1.224v1.152c0 .592.184 1.076.552 1.452.376.368.908.548 1.596.54.536 0 1.004-.132 1.404-.396.4-.272.712-.68.936-1.224.232-.552.348-1.252.348-2.1 0-1.32-.264-2.288-.792-2.904-.528-.616-1.32-.924-2.376-.924h-.804c-.24 0-.416-.048-.528-.144a.545.545 0 0 1-.168-.42c0-.144.036-.272.108-.384.072-.12.2-.272.384-.456l5.424-5.46.108.972h-6.648c-.28 0-.496.052-.648.156-.152.096-.256.26-.312.492l-.312 1.26a.72.72 0 0 1-.228.384c-.112.096-.264.144-.456.144a.658.658 0 0 1-.468-.168c-.12-.112-.168-.28-.144-.504l.396-3.756a.823.823 0 0 1 .312-.6c.184-.152.436-.228.756-.228h9.204c.304 0 .524.04.66.12.136.08.204.208.204.384 0 .12-.048.26-.144.42-.088.152-.28.376-.576.672l-6.216 6.396Zm15.601-8.352c1.504 0 2.784.348 3.84 1.044 1.056.688 1.86 1.688 2.412 3 .56 1.312.84 2.896.84 4.752 0 1.8-.296 3.356-.888 4.668-.592 1.304-1.432 2.308-2.52 3.012-1.08.704-2.352 1.056-3.816 1.056-1.504 0-2.784-.344-3.84-1.032-1.056-.696-1.864-1.7-2.424-3.012-.552-1.32-.828-2.912-.828-4.776 0-1.792.296-3.34.888-4.644.6-1.304 1.44-2.308 2.52-3.012 1.088-.704 2.36-1.056 3.816-1.056Zm3.324 9.288c0-1.976-.132-3.572-.396-4.788-.264-1.216-.652-2.104-1.164-2.664-.512-.568-1.144-.852-1.896-.852-.696 0-1.292.264-1.788.792-.496.52-.876 1.316-1.14 2.388-.256 1.064-.384 2.42-.384 4.068 0 1.976.132 3.576.396 4.8.264 1.216.652 2.104 1.164 2.664.512.56 1.14.84 1.884.84.704 0 1.304-.256 1.8-.768.496-.52.872-1.316 1.128-2.388.264-1.072.396-2.436.396-4.092Zm9.621-9.252c1.232 0 2.216.392 2.952 1.176.744.776 1.116 1.836 1.116 3.18 0 .976-.176 1.808-.528 2.496-.352.688-.84 1.212-1.464 1.572-.616.36-1.332.54-2.148.54-1.32 0-2.344-.392-3.072-1.176-.72-.792-1.08-1.9-1.08-3.324 0-1.352.376-2.432 1.128-3.24.752-.816 1.784-1.224 3.096-1.224Zm1.512 4.524c0-1.352-.14-2.316-.42-2.892-.272-.584-.66-.876-1.164-.876-.528 0-.928.292-1.2.876-.264.584-.396 1.488-.396 2.712 0 1.4.14 2.392.42 2.976.28.584.68.876 1.2.876.32 0 .596-.116.828-.348.232-.232.412-.616.54-1.152.128-.536.192-1.26.192-2.172Zm3.936 3.24c-.128.152-.244.248-.348.288-.096.04-.212.024-.348-.048-.12-.064-.188-.152-.204-.264-.008-.112.028-.252.108-.42.12-.232.272-.532.456-.9.192-.368.4-.772.624-1.212.224-.44.456-.888.696-1.344l.696-1.344c.224-.432.428-.82.612-1.164.192-.344.348-.616.468-.816.168-.272.376-.444.624-.516.248-.08.516-.04.804.12.264.152.42.348.468.588.048.232-.016.484-.192.756-.104.176-.268.424-.492.744-.216.312-.464.668-.744 1.068-.28.392-.576.804-.888 1.236-.304.432-.604.856-.9 1.272-.296.408-.572.78-.828 1.116-.248.336-.452.616-.612.84Zm-2.22 1.908c.128-.152.244-.248.348-.288.104-.048.224-.036.36.036.128.072.196.164.204.276.008.112-.032.252-.12.42l-.468.9-.612 1.224c-.224.44-.456.892-.696 1.356-.232.464-.464.912-.696 1.344-.224.432-.432.82-.624 1.164-.184.344-.336.612-.456.804-.168.264-.38.432-.636.504-.248.08-.508.044-.78-.108-.272-.144-.432-.332-.48-.564-.048-.24.016-.496.192-.768.112-.184.276-.432.492-.744.216-.32.464-.68.744-1.08l.876-1.248.912-1.26c.304-.416.58-.792.828-1.128.248-.344.452-.624.612-.84Zm5.568-1.164c1.232 0 2.216.392 2.952 1.176.744.776 1.116 1.836 1.116 3.18 0 .976-.176 1.808-.528 2.496-.352.688-.84 1.212-1.464 1.572-.616.36-1.332.54-2.148.54-1.32 0-2.344-.392-3.072-1.176-.72-.792-1.08-1.9-1.08-3.324 0-1.352.376-2.432 1.128-3.24.752-.816 1.784-1.224 3.096-1.224Zm1.512 4.524c0-1.352-.14-2.316-.42-2.892-.272-.584-.66-.876-1.164-.876-.528 0-.928.292-1.2.876-.264.584-.396 1.488-.396 2.712 0 1.4.14 2.392.42 2.976.28.584.68.876 1.2.876.32 0 .596-.116.828-.348.232-.232.412-.616.54-1.152.128-.536.192-1.26.192-2.172Zm20.144-.564-1.164.396 4.464-11.484c.152-.4.328-.676.528-.828.208-.152.488-.228.84-.228h3.492c.24 0 .416.048.528.144.12.088.18.216.18.384 0 .144-.04.264-.12.36-.072.096-.196.168-.372.216l-.636.168c-.264.072-.444.18-.54.324-.088.136-.124.364-.108.684l.924 12.42c.016.272.072.464.168.576.096.104.26.188.492.252l.624.168c.16.048.276.12.348.216.072.088.108.2.108.336 0 .16-.056.292-.168.396-.112.104-.288.156-.528.156h-5.796c-.248 0-.432-.048-.552-.144a.48.48 0 0 1-.168-.384c0-.136.036-.252.108-.348.08-.096.212-.172.396-.228l.624-.168c.28-.072.464-.168.552-.288.096-.12.14-.3.132-.54l-.996-12.708 1.056-.072-5.1 13.236c-.136.376-.28.62-.432.732a.858.858 0 0 1-.516.156c-.144 0-.276-.02-.396-.06a.746.746 0 0 1-.336-.252 2.738 2.738 0 0 1-.324-.624l-5.208-12.84 1.032-.384-1.044 12.432c-.032.344.04.604.216.78.176.176.42.328.732.456l.612.204c.12.048.216.112.288.192a.405.405 0 0 1 .108.3c0 .168-.06.304-.18.408-.112.096-.288.144-.528.144h-3.852c-.232 0-.408-.048-.528-.144a.48.48 0 0 1-.168-.384.48.48 0 0 1 .144-.372c.104-.088.236-.164.396-.228l.492-.156c.28-.096.5-.236.66-.42.168-.184.268-.448.3-.792l.996-11.772c.032-.384-.008-.672-.12-.864-.104-.192-.292-.324-.564-.396l-.6-.144a.969.969 0 0 1-.396-.216.562.562 0 0 1-.12-.372c0-.36.24-.54.72-.54h3.456c.328 0 .592.068.792.204.208.128.388.396.54.804l4.512 11.136Zm26.361-6.012c0 1.04-.268 1.94-.804 2.7-.528.76-1.276 1.352-2.244 1.776-.968.416-2.108.624-3.42.624a9.84 9.84 0 0 1-2.412-.276c-.72-.184-1.348-.448-1.884-.792l.156-1.02c.296.2.612.368.948.504.336.136.688.24 1.056.312.376.064.764.096 1.164.096.736 0 1.388-.156 1.956-.468a3.335 3.335 0 0 0 1.356-1.368c.336-.6.504-1.328.504-2.184 0-1-.196-1.864-.588-2.592a4.167 4.167 0 0 0-1.644-1.704c-.704-.4-1.532-.6-2.484-.6h-.948v13.728c0 .176.048.324.144.444.096.112.248.188.456.228l1.044.144c.192.032.328.096.408.192a.564.564 0 0 1 .132.396.48.48 0 0 1-.168.384c-.112.096-.288.144-.528.144h-6.264c-.232 0-.408-.048-.528-.144a.48.48 0 0 1-.168-.384c0-.288.164-.48.492-.576l.708-.156a.928.928 0 0 0 .432-.24.64.64 0 0 0 .144-.432v-12.936a.595.595 0 0 0-.144-.42.874.874 0 0 0-.432-.252l-.708-.156c-.328-.096-.492-.288-.492-.576 0-.168.056-.296.168-.384.112-.096.288-.144.528-.144h5.82c1.736 0 3.216.264 4.44.792 1.232.52 2.172 1.244 2.82 2.172.656.92.984 1.976.984 3.168Zm6.4 9.924c.552 0 .976-.136 1.272-.408.304-.28.456-.632.456-1.056 0-.272-.06-.516-.18-.732-.112-.216-.336-.412-.672-.588-.336-.184-.82-.352-1.452-.504-1.216-.256-2.16-.572-2.832-.948-.664-.384-1.128-.828-1.392-1.332a3.63 3.63 0 0 1-.384-1.668c0-1.112.392-1.992 1.176-2.64.784-.648 1.912-.972 3.384-.972.528 0 .96.044 1.296.132.344.088.62.18.828.276.216.088.404.132.564.132.176 0 .312-.044.408-.132.096-.096.192-.188.288-.276a.561.561 0 0 1 .396-.144c.112 0 .212.04.3.12.096.072.176.212.24.42l.78 2.472c.088.264.116.48.084.648-.032.168-.136.288-.312.36-.176.064-.328.064-.456 0s-.248-.184-.36-.36c-.368-.64-.76-1.148-1.176-1.524a3.827 3.827 0 0 0-1.296-.828 3.806 3.806 0 0 0-1.404-.264c-.68 0-1.192.14-1.536.42-.336.28-.504.656-.504 1.128 0 .288.072.548.216.78.144.224.412.432.804.624.4.184.968.364 1.704.54 1.032.224 1.848.516 2.448.876.608.352 1.044.78 1.308 1.284.264.496.396 1.076.396 1.74 0 .688-.176 1.292-.528 1.812-.352.52-.844.928-1.476 1.224-.624.288-1.352.432-2.184.432-.512 0-.928-.052-1.248-.156a6.053 6.053 0 0 1-.78-.312 1.32 1.32 0 0 0-.588-.156.637.637 0 0 0-.432.156c-.112.104-.224.204-.336.3a.522.522 0 0 1-.384.156.376.376 0 0 1-.288-.132c-.08-.08-.14-.22-.18-.42l-.48-2.328c-.056-.304-.068-.532-.036-.684.04-.152.14-.26.3-.324.168-.064.316-.056.444.024s.26.228.396.444c.496.856 1.036 1.468 1.62 1.836.584.368 1.18.552 1.788.552Zm16.302-16.368v15.252c0 .24.032.416.096.528a.592.592 0 0 0 .312.24l.456.132c.24.096.36.248.36.456 0 .336-.212.504-.636.504h-4.644c-.216 0-.376-.04-.48-.12a.464.464 0 0 1-.144-.36c0-.112.032-.208.096-.288a.745.745 0 0 1 .336-.192l.48-.132a.554.554 0 0 0 .312-.228c.072-.112.108-.288.108-.528v-13.284c0-.2-.032-.34-.096-.42-.056-.088-.152-.144-.288-.168l-.636-.048c-.144-.024-.248-.072-.312-.144a.417.417 0 0 1-.084-.264c0-.128.036-.228.108-.3.08-.08.22-.16.42-.24l2.304-.816a7.41 7.41 0 0 1 .696-.24c.176-.048.344-.072.504-.072.24 0 .42.068.54.204a.74.74 0 0 1 .192.528Zm-.372 8.964-.516-.54.468-.42c.992-.896 1.844-1.532 2.556-1.908.712-.384 1.388-.576 2.028-.576.976 0 1.732.324 2.268.972.536.648.86 1.516.972 2.604l.684 6.132c.032.248.076.432.132.552.064.12.172.204.324.252l.432.12a.653.653 0 0 1 .312.192c.072.08.108.176.108.288a.464.464 0 0 1-.144.36c-.096.08-.256.12-.48.12H634c-.424 0-.636-.168-.636-.504 0-.208.12-.36.36-.456l.468-.132a.656.656 0 0 0 .36-.24c.08-.12.104-.304.072-.552l-.636-5.652c-.08-.696-.256-1.216-.528-1.56-.272-.352-.676-.528-1.212-.528-.328 0-.68.088-1.056.264-.368.176-.756.44-1.164.792l-.48.42Zm18.116 6.648v-.24l-.228-.048v-7.188c0-.568-.144-1.004-.432-1.308-.28-.312-.676-.468-1.188-.468-.48 0-.848.104-1.104.312-.248.208-.372.456-.372.744v1.056c0 .48-.16.852-.48 1.116-.32.256-.768.384-1.344.384-.488 0-.86-.116-1.116-.348-.248-.232-.372-.556-.372-.972 0-.496.204-.984.612-1.464.416-.48 1.024-.876 1.824-1.188.8-.312 1.784-.468 2.952-.468 1.464 0 2.552.296 3.264.888.712.592 1.068 1.396 1.068 2.412v6.24c0 .224.044.392.132.504a.494.494 0 0 0 .396.168c.176 0 .308-.04.396-.12.088-.088.164-.176.228-.264.04-.056.084-.1.132-.132a.254.254 0 0 1 .168-.06c.096 0 .164.036.204.108a.488.488 0 0 1 .072.276c0 .264-.096.54-.288.828-.184.28-.46.52-.828.72-.368.2-.828.3-1.38.3-.712 0-1.276-.16-1.692-.48-.416-.32-.624-.756-.624-1.308Zm-7.152-1.008c0-.984.44-1.78 1.32-2.388.888-.616 2.132-.924 3.732-.924.52 0 .984.044 1.392.132.416.088.776.208 1.08.36l-.252.732a4.574 4.574 0 0 0-.84-.3 3.707 3.707 0 0 0-.924-.108c-.656 0-1.168.172-1.536.516-.368.344-.552.82-.552 1.428s.156 1.072.468 1.392c.32.32.732.48 1.236.48a2.75 2.75 0 0 0 1.224-.288c.392-.2.724-.472.996-.816l.252.648c-.432.616-1.016 1.092-1.752 1.428a5.569 5.569 0 0 1-2.34.504c-1.04 0-1.884-.256-2.532-.768-.648-.512-.972-1.188-.972-2.028Zm19.306 2.604h-1.212c-.24 0-.444-.06-.612-.18a1.34 1.34 0 0 1-.408-.564l-3.528-8.796c-.12-.296-.224-.496-.312-.6a.613.613 0 0 0-.3-.204l-.396-.108a.713.713 0 0 1-.312-.18.465.465 0 0 1-.096-.3c0-.152.052-.268.156-.348.112-.088.264-.132.456-.132h5.376c.4 0 .6.156.6.468a.449.449 0 0 1-.108.312c-.064.072-.184.128-.36.168l-.456.096c-.368.08-.588.212-.66.396-.072.184-.02.508.156.972l2.82 7.284-.744.468 2.904-7.728c.184-.472.236-.804.156-.996-.072-.192-.292-.324-.66-.396l-.456-.096a.839.839 0 0 1-.36-.168.449.449 0 0 1-.108-.312.4.4 0 0 1 .156-.336c.112-.088.264-.132.456-.132h3.252c.184 0 .328.044.432.132.112.08.168.196.168.348a.43.43 0 0 1-.096.276c-.056.08-.172.144-.348.192l-.372.084c-.152.04-.292.156-.42.348-.12.184-.272.508-.456.972l-3.3 8.388c-.104.264-.244.444-.42.54a1.296 1.296 0 0 1-.588.132Zm17.64-7.14c0 .408-.116.72-.348.936-.232.216-.568.324-1.008.324h-7.488v-.876h4.896c.392 0 .588-.176.588-.528 0-1.08-.192-1.896-.576-2.448-.384-.552-.896-.828-1.536-.828-.496 0-.936.152-1.32.456-.376.296-.672.732-.888 1.308-.216.568-.324 1.252-.324 2.052 0 1.56.36 2.728 1.08 3.504.728.776 1.692 1.164 2.892 1.164.712 0 1.336-.144 1.872-.432a2.987 2.987 0 0 0 1.224-1.236 2.16 2.16 0 0 1 .324-.312.433.433 0 0 1 .252-.084c.12 0 .208.056.264.168.056.112.08.244.072.396-.032.68-.272 1.308-.72 1.884-.44.576-1.04 1.036-1.8 1.38-.752.336-1.62.504-2.604.504-1.144 0-2.16-.236-3.048-.708a5.215 5.215 0 0 1-2.088-1.992c-.504-.856-.756-1.856-.756-3 0-1.208.24-2.276.72-3.204a5.405 5.405 0 0 1 2.076-2.184c.896-.536 1.968-.804 3.216-.804 1.056 0 1.96.196 2.712.588.752.392 1.324.932 1.716 1.62.4.68.6 1.464.6 2.352Zm-250.811 19.932v15.852l-1.452 1.152a9.369 9.369 0 0 1-.816.3 1.518 1.518 0 0 1-.48.084.61.61 0 0 1-.432-.156c-.112-.104-.168-.256-.168-.456v-14.796c0-.2-.032-.34-.096-.42a.394.394 0 0 0-.276-.168l-.648-.048a.505.505 0 0 1-.3-.144.417.417 0 0 1-.084-.264c0-.128.036-.228.108-.3.072-.08.212-.16.42-.24l2.304-.816c.296-.112.532-.192.708-.24.176-.048.328-.072.456-.072.256 0 .444.068.564.204a.74.74 0 0 1 .192.528Zm-.66 9.24-.516-.648c.64-.976 1.364-1.732 2.172-2.268a4.758 4.758 0 0 1 2.688-.804c.944 0 1.784.24 2.52.72.744.472 1.328 1.132 1.752 1.98.424.848.636 1.828.636 2.94 0 1.264-.252 2.364-.756 3.3-.504.936-1.188 1.66-2.052 2.172-.864.512-1.832.768-2.904.768-.944 0-1.78-.216-2.508-.648-.72-.44-1.316-1.08-1.788-1.92l.792-.648c.384.64.816 1.12 1.296 1.44.488.32 1.016.48 1.584.48.544 0 1.032-.16 1.464-.48.432-.328.772-.832 1.02-1.512s.372-1.548.372-2.604c0-.984-.12-1.796-.36-2.436-.24-.648-.568-1.128-.984-1.44a2.279 2.279 0 0 0-1.428-.48c-.568 0-1.104.172-1.608.516-.504.344-.968.868-1.392 1.572Zm21.912.828c0 .408-.116.72-.348.936-.232.216-.568.324-1.008.324h-7.488v-.876h4.896c.392 0 .588-.176.588-.528 0-1.08-.192-1.896-.576-2.448-.384-.552-.896-.828-1.536-.828-.496 0-.936.152-1.32.456-.376.296-.672.732-.888 1.308-.216.568-.324 1.252-.324 2.052 0 1.56.36 2.728 1.08 3.504.728.776 1.692 1.164 2.892 1.164.712 0 1.336-.144 1.872-.432a2.987 2.987 0 0 0 1.224-1.236 2.16 2.16 0 0 1 .324-.312.433.433 0 0 1 .252-.084c.12 0 .208.056.264.168.056.112.08.244.072.396-.032.68-.272 1.308-.72 1.884-.44.576-1.04 1.036-1.8 1.38-.752.336-1.62.504-2.604.504-1.144 0-2.16-.236-3.048-.708a5.215 5.215 0 0 1-2.088-1.992c-.504-.856-.756-1.856-.756-3 0-1.208.24-2.276.72-3.204a5.405 5.405 0 0 1 2.076-2.184c.896-.536 1.968-.804 3.216-.804 1.056 0 1.96.196 2.712.588.752.392 1.324.932 1.716 1.62.4.68.6 1.464.6 2.352Zm12.68 0c0 .408-.116.72-.348.936-.232.216-.568.324-1.008.324h-7.488v-.876h4.896c.392 0 .588-.176.588-.528 0-1.08-.192-1.896-.576-2.448-.384-.552-.896-.828-1.536-.828-.496 0-.936.152-1.32.456-.376.296-.672.732-.888 1.308-.216.568-.324 1.252-.324 2.052 0 1.56.36 2.728 1.08 3.504.728.776 1.692 1.164 2.892 1.164.712 0 1.336-.144 1.872-.432a2.987 2.987 0 0 0 1.224-1.236 2.16 2.16 0 0 1 .324-.312.433.433 0 0 1 .252-.084c.12 0 .208.056.264.168.056.112.08.244.072.396-.032.68-.272 1.308-.72 1.884-.44.576-1.04 1.036-1.8 1.38-.752.336-1.62.504-2.604.504-1.144 0-2.16-.236-3.048-.708a5.215 5.215 0 0 1-2.088-1.992c-.504-.856-.756-1.856-.756-3 0-1.208.24-2.276.72-3.204a5.405 5.405 0 0 1 2.076-2.184c.896-.536 1.968-.804 3.216-.804 1.056 0 1.96.196 2.712.588.752.392 1.324.932 1.716 1.62.4.68.6 1.464.6 2.352Zm6.415-3.768v8.952c0 .24.032.416.096.528a.592.592 0 0 0 .312.24l.456.132c.24.096.36.248.36.456 0 .336-.212.504-.636.504h-4.644c-.216 0-.376-.04-.48-.12a.464.464 0 0 1-.144-.36c0-.112.032-.208.096-.288a.745.745 0 0 1 .336-.192l.48-.132a.554.554 0 0 0 .312-.228c.072-.112.108-.288.108-.528v-6.984c0-.2-.032-.34-.096-.42-.056-.088-.152-.144-.288-.168l-.636-.048c-.144-.024-.248-.072-.312-.144a.417.417 0 0 1-.084-.264c0-.128.036-.228.108-.3.08-.08.22-.16.42-.24l2.304-.816a7.41 7.41 0 0 1 .696-.24c.176-.048.344-.072.504-.072.24 0 .42.068.54.204a.74.74 0 0 1 .192.528Zm-.372 2.664-.516-.54.468-.42c.992-.896 1.844-1.532 2.556-1.908.712-.384 1.388-.576 2.028-.576.968 0 1.72.324 2.256.972.544.648.872 1.516.984 2.604l.684 6.132c.032.248.076.432.132.552.064.12.172.204.324.252l.432.12a.653.653 0 0 1 .312.192c.072.08.108.176.108.288a.464.464 0 0 1-.144.36c-.096.08-.256.12-.48.12h-4.692c-.424 0-.636-.168-.636-.504 0-.208.12-.36.36-.456l.468-.132a.656.656 0 0 0 .36-.24c.08-.12.104-.304.072-.552l-.636-5.652c-.08-.696-.256-1.216-.528-1.56-.272-.352-.676-.528-1.212-.528-.328 0-.68.088-1.056.264-.368.176-.756.44-1.164.792l-.48.42Zm20.693-2.664v8.952c0 .24.032.416.096.528.072.112.18.192.324.24l.444.132c.24.096.36.248.36.456 0 .336-.212.504-.636.504h-4.644c-.216 0-.376-.04-.48-.12a.464.464 0 0 1-.144-.36c0-.112.032-.208.096-.288a.745.745 0 0 1 .336-.192l.48-.132a.554.554 0 0 0 .312-.228c.072-.112.108-.288.108-.528v-6.984c0-.192-.032-.332-.096-.42-.056-.088-.152-.144-.288-.168l-.648-.048a.505.505 0 0 1-.3-.144.417.417 0 0 1-.084-.264c0-.128.036-.228.108-.3.08-.08.22-.16.42-.24l2.304-.816a7.41 7.41 0 0 1 .696-.24c.176-.048.344-.072.504-.072.24 0 .42.068.54.204a.74.74 0 0 1 .192.528Zm-.372 2.664-.516-.54.468-.42c1-.92 1.868-1.564 2.604-1.932.736-.368 1.436-.552 2.1-.552 1.016 0 1.828.324 2.436.972.616.64.924 1.512.924 2.616v6.12c0 .256.036.44.108.552.08.112.192.196.336.252l.42.12c.232.104.348.256.348.456 0 .336-.208.504-.624.504h-4.548c-.424 0-.636-.168-.636-.504 0-.208.12-.36.36-.456l.456-.12a.572.572 0 0 0 .324-.264c.072-.12.108-.304.108-.552v-5.616c0-.704-.164-1.232-.492-1.584-.328-.352-.78-.528-1.356-.528-.36 0-.736.088-1.128.264-.384.168-.788.432-1.212.792l-.48.42Zm7.644 0-.516-.54.456-.42c.968-.888 1.8-1.524 2.496-1.908.704-.384 1.376-.576 2.016-.576.968 0 1.724.324 2.268.972.544.648.876 1.52.996 2.616l.684 6.12c.024.256.068.444.132.564a.537.537 0 0 0 .312.24l.432.12a.653.653 0 0 1 .312.192c.072.08.108.176.108.288a.447.447 0 0 1-.156.36c-.096.08-.252.12-.468.12h-4.68c-.424 0-.636-.168-.636-.504 0-.208.12-.36.36-.456l.456-.12a.689.689 0 0 0 .36-.264c.08-.12.104-.304.072-.552l-.624-5.616c-.08-.704-.26-1.232-.54-1.584-.272-.352-.68-.528-1.224-.528-.32 0-.656.092-1.008.276a5.644 5.644 0 0 0-1.128.78l-.48.42Zm18.018 6.648v-.24l-.228-.048v-7.188c0-.568-.144-1.004-.432-1.308-.28-.312-.676-.468-1.188-.468-.48 0-.848.104-1.104.312-.248.208-.372.456-.372.744v1.056c0 .48-.16.852-.48 1.116-.32.256-.768.384-1.344.384-.488 0-.86-.116-1.116-.348-.248-.232-.372-.556-.372-.972 0-.496.204-.984.612-1.464.416-.48 1.024-.876 1.824-1.188.8-.312 1.784-.468 2.952-.468 1.464 0 2.552.296 3.264.888.712.592 1.068 1.396 1.068 2.412v6.24c0 .224.044.392.132.504a.494.494 0 0 0 .396.168c.176 0 .308-.04.396-.12.088-.088.164-.176.228-.264.04-.056.084-.1.132-.132a.254.254 0 0 1 .168-.06c.096 0 .164.036.204.108a.488.488 0 0 1 .072.276c0 .264-.096.54-.288.828-.184.28-.46.52-.828.72-.368.2-.828.3-1.38.3-.712 0-1.276-.16-1.692-.48-.416-.32-.624-.756-.624-1.308Zm-7.152-1.008c0-.984.44-1.78 1.32-2.388.888-.616 2.132-.924 3.732-.924.52 0 .984.044 1.392.132.416.088.776.208 1.08.36l-.252.732a4.574 4.574 0 0 0-.84-.3 3.707 3.707 0 0 0-.924-.108c-.656 0-1.168.172-1.536.516-.368.344-.552.82-.552 1.428s.156 1.072.468 1.392c.32.32.732.48 1.236.48a2.75 2.75 0 0 0 1.224-.288c.392-.2.724-.472.996-.816l.252.648c-.432.616-1.016 1.092-1.752 1.428a5.569 5.569 0 0 1-2.34.504c-1.04 0-1.884-.256-2.532-.768-.648-.512-.972-1.188-.972-2.028Zm13.817-7.68-.588-.168c-.184-.056-.312-.124-.384-.204a.416.416 0 0 1-.108-.288c0-.152.052-.268.156-.348a.65.65 0 0 1 .408-.12h.756c.176 0 .328-.032.456-.096.128-.072.256-.2.384-.384l1.356-1.848c.16-.2.312-.348.456-.444a.848.848 0 0 1 .456-.144.46.46 0 0 1 .372.156c.088.104.132.252.132.444v10.248c0 .568.108 1 .324 1.296.224.296.536.444.936.444.288 0 .512-.056.672-.168.16-.112.288-.24.384-.384.104-.152.2-.288.288-.408a.563.563 0 0 1 .348-.216c.12 0 .212.04.276.12.064.072.096.196.096.372a2.15 2.15 0 0 1-.456 1.284c-.288.384-.688.696-1.2.936-.504.24-1.084.36-1.74.36-1.016 0-1.816-.256-2.4-.768-.576-.512-.864-1.284-.864-2.316v-6.672c0-.2-.04-.348-.12-.444-.08-.096-.212-.176-.396-.24Zm2.544 0 .012-1.128h3.948c.176 0 .316.036.42.108a.356.356 0 0 1 .156.312c0 .2-.1.368-.3.504-.2.136-.524.204-.972.204h-3.264Zm10.338 3.852c0-1.16.164-2.128.492-2.904.328-.784.756-1.372 1.284-1.764.536-.392 1.108-.588 1.716-.588.76 0 1.344.216 1.752.648.408.424.612 1.04.612 1.848 0 .704-.148 1.232-.444 1.584a1.422 1.422 0 0 1-1.14.528c-.472 0-.832-.128-1.08-.384-.248-.256-.372-.608-.372-1.056v-.444c-.008-.248-.068-.432-.18-.552-.112-.128-.292-.192-.54-.192-.28 0-.552.116-.816.348-.256.232-.464.584-.624 1.056-.16.472-.24 1.076-.24 1.812l-.42.06Zm.228-4.464.192 2.796v6.144c0 .216.04.38.12.492.088.104.252.176.492.216l1.032.156c.176.032.308.088.396.168.088.08.132.196.132.348a.433.433 0 0 1-.168.36c-.104.08-.26.12-.468.12h-5.592c-.208 0-.364-.04-.468-.12a.447.447 0 0 1-.156-.36c0-.112.036-.208.108-.288a.742.742 0 0 1 .324-.192l.48-.132a.492.492 0 0 0 .312-.228c.072-.112.108-.288.108-.528v-6.96c0-.2-.032-.34-.096-.42-.056-.088-.152-.144-.288-.168l-.636-.048a.63.63 0 0 1-.312-.144.417.417 0 0 1-.084-.264c0-.128.036-.232.108-.312.08-.08.22-.156.42-.228l2.256-.792c.376-.144.652-.236.828-.276.176-.048.312-.072.408-.072.168 0 .292.056.372.168.088.112.148.3.18.564Zm11.56-.012v8.952c0 .24.032.42.096.54a.54.54 0 0 0 .324.228l.456.12a.73.73 0 0 1 .324.204c.072.08.108.176.108.288a.447.447 0 0 1-.156.36c-.096.08-.252.12-.468.12h-4.74c-.208 0-.364-.04-.468-.12a.464.464 0 0 1-.144-.36c0-.112.032-.208.096-.288a.742.742 0 0 1 .324-.192l.48-.132a.554.554 0 0 0 .312-.228c.072-.112.108-.288.108-.528v-6.984c0-.2-.032-.34-.096-.42-.056-.088-.152-.144-.288-.168l-.636-.048c-.144-.024-.248-.072-.312-.144a.417.417 0 0 1-.084-.264c0-.128.036-.228.108-.3.08-.08.22-.16.42-.24l2.304-.816c.304-.112.544-.192.72-.24.176-.048.328-.072.456-.072.256 0 .444.068.564.204a.74.74 0 0 1 .192.528Zm-1.932-2.544c-.632 0-1.14-.164-1.524-.492-.384-.336-.576-.772-.576-1.308 0-.528.192-.952.576-1.272.384-.328.892-.492 1.524-.492.64 0 1.152.164 1.536.492.392.32.588.744.588 1.272 0 .536-.196.972-.588 1.308-.384.328-.896.492-1.536.492Zm15.503 5.04c0 .456-.156.84-.468 1.152-.312.304-.732.456-1.26.456-.512 0-.904-.14-1.176-.42-.264-.288-.396-.664-.396-1.128v-.408c0-.544-.164-.98-.492-1.308-.328-.328-.776-.492-1.344-.492-.504 0-.956.152-1.356.456-.392.304-.704.74-.936 1.308-.232.568-.348 1.252-.348 2.052 0 1.008.168 1.86.504 2.556.344.688.812 1.212 1.404 1.572.6.352 1.28.528 2.04.528.68 0 1.276-.14 1.788-.42.512-.28.912-.68 1.2-1.2.136-.152.244-.252.324-.3a.433.433 0 0 1 .252-.084c.12 0 .204.056.252.168a.802.802 0 0 1 .084.384 3.394 3.394 0 0 1-.732 1.872c-.432.568-1.016 1.02-1.752 1.356-.736.336-1.58.504-2.532.504-1.136 0-2.148-.232-3.036-.696a5.235 5.235 0 0 1-2.076-1.992c-.504-.856-.756-1.86-.756-3.012 0-1.168.252-2.22.756-3.156a5.667 5.667 0 0 1 2.124-2.22c.92-.544 1.996-.816 3.228-.816.968 0 1.804.152 2.508.456.704.296 1.244.696 1.62 1.2.384.496.576 1.04.576 1.632Zm10.358 6.66v-.636l-.108-.048v-6.492c0-.192-.032-.328-.096-.408a.394.394 0 0 0-.276-.168l-.648-.048a.619.619 0 0 1-.3-.144.436.436 0 0 1-.084-.276c0-.12.036-.22.108-.3.072-.08.212-.156.42-.228l2.304-.828c.28-.104.508-.18.684-.228.184-.048.352-.072.504-.072.248 0 .432.068.552.204.12.128.18.304.18.528v8.94c0 .24.032.42.096.54a.54.54 0 0 0 .324.228l.468.12a.73.73 0 0 1 .324.204c.072.08.108.176.108.288a.447.447 0 0 1-.156.36c-.104.08-.264.12-.48.12h-2.46c-.424 0-.776-.152-1.056-.456-.272-.312-.408-.712-.408-1.2Zm-7.632-1.656v-5.52c0-.192-.032-.328-.096-.408a.394.394 0 0 0-.276-.168l-.648-.048a.619.619 0 0 1-.3-.144.4.4 0 0 1-.096-.276c0-.12.036-.22.108-.3.08-.08.224-.156.432-.228l2.292-.828c.304-.112.544-.188.72-.228.176-.048.328-.072.456-.072.256 0 .444.068.564.204.128.128.192.304.192.528v7.008c0 .704.168 1.232.504 1.584.336.344.788.516 1.356.516.352 0 .728-.084 1.128-.252.4-.168.808-.432 1.224-.792l.48-.42.528.54-.468.42c-1 .92-1.876 1.564-2.628 1.932-.744.368-1.444.552-2.1.552-1.008 0-1.824-.324-2.448-.972-.616-.648-.924-1.524-.924-2.628Zm18.578-13.8v15.252c0 .24.032.42.096.54a.54.54 0 0 0 .324.228l.468.12a.73.73 0 0 1 .324.204c.072.08.108.176.108.288a.447.447 0 0 1-.156.36c-.104.08-.264.12-.48.12h-4.728c-.216 0-.376-.04-.48-.12a.464.464 0 0 1-.144-.36c0-.112.032-.208.096-.288a.745.745 0 0 1 .336-.192l.48-.132a.552.552 0 0 0 .3-.228c.072-.112.108-.288.108-.528v-13.284c0-.2-.032-.34-.096-.42a.394.394 0 0 0-.276-.168l-.648-.048a.505.505 0 0 1-.3-.144.417.417 0 0 1-.084-.264c0-.128.036-.228.108-.3.072-.08.212-.16.42-.24l2.304-.816c.296-.112.532-.192.708-.24.176-.048.328-.072.456-.072.256 0 .444.068.564.204a.74.74 0 0 1 .192.528Zm10.126 15.612v-.24l-.228-.048v-7.188c0-.568-.144-1.004-.432-1.308-.28-.312-.676-.468-1.188-.468-.48 0-.848.104-1.104.312-.248.208-.372.456-.372.744v1.056c0 .48-.16.852-.48 1.116-.32.256-.768.384-1.344.384-.488 0-.86-.116-1.116-.348-.248-.232-.372-.556-.372-.972 0-.496.204-.984.612-1.464.416-.48 1.024-.876 1.824-1.188.8-.312 1.784-.468 2.952-.468 1.464 0 2.552.296 3.264.888.712.592 1.068 1.396 1.068 2.412v6.24c0 .224.044.392.132.504a.494.494 0 0 0 .396.168c.176 0 .308-.04.396-.12.088-.088.164-.176.228-.264.04-.056.084-.1.132-.132a.254.254 0 0 1 .168-.06c.096 0 .164.036.204.108a.488.488 0 0 1 .072.276c0 .264-.096.54-.288.828-.184.28-.46.52-.828.72-.368.2-.828.3-1.38.3-.712 0-1.276-.16-1.692-.48-.416-.32-.624-.756-.624-1.308Zm-7.152-1.008c0-.984.44-1.78 1.32-2.388.888-.616 2.132-.924 3.732-.924.52 0 .984.044 1.392.132.416.088.776.208 1.08.36l-.252.732a4.574 4.574 0 0 0-.84-.3 3.707 3.707 0 0 0-.924-.108c-.656 0-1.168.172-1.536.516-.368.344-.552.82-.552 1.428s.156 1.072.468 1.392c.32.32.732.48 1.236.48a2.75 2.75 0 0 0 1.224-.288c.392-.2.724-.472.996-.816l.252.648c-.432.616-1.016 1.092-1.752 1.428a5.569 5.569 0 0 1-2.34.504c-1.04 0-1.884-.256-2.532-.768-.648-.512-.972-1.188-.972-2.028Zm13.816-7.68-.588-.168c-.184-.056-.312-.124-.384-.204a.416.416 0 0 1-.108-.288c0-.152.052-.268.156-.348a.65.65 0 0 1 .408-.12h.756c.176 0 .328-.032.456-.096.128-.072.256-.2.384-.384l1.356-1.848c.16-.2.312-.348.456-.444a.848.848 0 0 1 .456-.144.46.46 0 0 1 .372.156c.088.104.132.252.132.444v10.248c0 .568.108 1 .324 1.296.224.296.536.444.936.444.288 0 .512-.056.672-.168.16-.112.288-.24.384-.384.104-.152.2-.288.288-.408a.563.563 0 0 1 .348-.216c.12 0 .212.04.276.12.064.072.096.196.096.372a2.15 2.15 0 0 1-.456 1.284c-.288.384-.688.696-1.2.936-.504.24-1.084.36-1.74.36-1.016 0-1.816-.256-2.4-.768-.576-.512-.864-1.284-.864-2.316v-6.672c0-.2-.04-.348-.12-.444-.08-.096-.212-.176-.396-.24Zm2.544 0 .012-1.128h3.948c.176 0 .316.036.42.108a.356.356 0 0 1 .156.312c0 .2-.1.368-.3.504-.2.136-.524.204-.972.204h-3.264Zm17 3.144c0 .408-.116.72-.348.936-.232.216-.568.324-1.008.324h-7.488v-.876h4.896c.392 0 .588-.176.588-.528 0-1.08-.192-1.896-.576-2.448-.384-.552-.896-.828-1.536-.828-.496 0-.936.152-1.32.456-.376.296-.672.732-.888 1.308-.216.568-.324 1.252-.324 2.052 0 1.56.36 2.728 1.08 3.504.728.776 1.692 1.164 2.892 1.164.712 0 1.336-.144 1.872-.432a2.987 2.987 0 0 0 1.224-1.236 2.16 2.16 0 0 1 .324-.312.433.433 0 0 1 .252-.084c.12 0 .208.056.264.168.056.112.08.244.072.396-.032.68-.272 1.308-.72 1.884-.44.576-1.04 1.036-1.8 1.38-.752.336-1.62.504-2.604.504-1.144 0-2.16-.236-3.048-.708a5.215 5.215 0 0 1-2.088-1.992c-.504-.856-.756-1.856-.756-3 0-1.208.24-2.276.72-3.204a5.405 5.405 0 0 1 2.076-2.184c.896-.536 1.968-.804 3.216-.804 1.056 0 1.96.196 2.712.588.752.392 1.324.932 1.716 1.62.4.68.6 1.464.6 2.352Zm10.34 5.076-.096-.06v-13.104c0-.2-.032-.34-.096-.42-.056-.088-.152-.144-.288-.168l-.636-.048a.505.505 0 0 1-.3-.144.383.383 0 0 1-.096-.264c0-.128.036-.228.108-.3.08-.08.22-.16.42-.24l2.304-.816a7.41 7.41 0 0 1 .696-.24c.184-.048.352-.072.504-.072.24 0 .42.068.54.204a.74.74 0 0 1 .192.528v15.252c0 .24.032.42.096.54a.54.54 0 0 0 .324.228l.468.12a.837.837 0 0 1 .324.204c.072.08.108.176.108.288a.447.447 0 0 1-.156.36c-.104.08-.264.12-.48.12h-2.532c-.4 0-.736-.128-1.008-.384-.264-.256-.396-.592-.396-1.008v-.576Zm-8.688-3.384c0-1.272.252-2.376.756-3.312.512-.936 1.2-1.656 2.064-2.16.864-.512 1.832-.768 2.904-.768.944 0 1.776.22 2.496.66.728.432 1.324 1.068 1.788 1.908l-.78.648c-.384-.64-.82-1.12-1.308-1.44a2.833 2.833 0 0 0-1.584-.48 2.36 2.36 0 0 0-1.464.492c-.432.32-.772.82-1.02 1.5-.24.672-.36 1.536-.36 2.592 0 .984.12 1.8.36 2.448.24.64.568 1.12.984 1.44a2.3 2.3 0 0 0 1.416.468c.576 0 1.112-.168 1.608-.504.504-.344.968-.868 1.392-1.572l.516.648c-.632.968-1.356 1.724-2.172 2.268a4.758 4.758 0 0 1-2.688.804c-.936 0-1.776-.236-2.52-.708-.736-.48-1.32-1.144-1.752-1.992-.424-.848-.636-1.828-.636-2.94Zm27.265 3.852v-.24l-.228-.048v-7.188c0-.568-.144-1.004-.432-1.308-.28-.312-.676-.468-1.188-.468-.48 0-.848.104-1.104.312-.248.208-.372.456-.372.744v1.056c0 .48-.16.852-.48 1.116-.32.256-.768.384-1.344.384-.488 0-.86-.116-1.116-.348-.248-.232-.372-.556-.372-.972 0-.496.204-.984.612-1.464.416-.48 1.024-.876 1.824-1.188.8-.312 1.784-.468 2.952-.468 1.464 0 2.552.296 3.264.888.712.592 1.068 1.396 1.068 2.412v6.24c0 .224.044.392.132.504a.494.494 0 0 0 .396.168c.176 0 .308-.04.396-.12.088-.088.164-.176.228-.264.04-.056.084-.1.132-.132a.254.254 0 0 1 .168-.06c.096 0 .164.036.204.108a.488.488 0 0 1 .072.276c0 .264-.096.54-.288.828-.184.28-.46.52-.828.72-.368.2-.828.3-1.38.3-.712 0-1.276-.16-1.692-.48-.416-.32-.624-.756-.624-1.308Zm-7.152-1.008c0-.984.44-1.78 1.32-2.388.888-.616 2.132-.924 3.732-.924.52 0 .984.044 1.392.132.416.088.776.208 1.08.36l-.252.732a4.574 4.574 0 0 0-.84-.3 3.707 3.707 0 0 0-.924-.108c-.656 0-1.168.172-1.536.516-.368.344-.552.82-.552 1.428s.156 1.072.468 1.392c.32.32.732.48 1.236.48a2.75 2.75 0 0 0 1.224-.288c.392-.2.724-.472.996-.816l.252.648c-.432.616-1.016 1.092-1.752 1.428a5.569 5.569 0 0 1-2.34.504c-1.04 0-1.884-.256-2.532-.768-.648-.512-.972-1.188-.972-2.028Zm13.816-7.68-.588-.168c-.184-.056-.312-.124-.384-.204a.416.416 0 0 1-.108-.288c0-.152.052-.268.156-.348a.65.65 0 0 1 .408-.12h.756c.176 0 .328-.032.456-.096.128-.072.256-.2.384-.384l1.356-1.848c.16-.2.312-.348.456-.444a.848.848 0 0 1 .456-.144.46.46 0 0 1 .372.156c.088.104.132.252.132.444v10.248c0 .568.108 1 .324 1.296.224.296.536.444.936.444.288 0 .512-.056.672-.168.16-.112.288-.24.384-.384.104-.152.2-.288.288-.408a.563.563 0 0 1 .348-.216c.12 0 .212.04.276.12.064.072.096.196.096.372a2.15 2.15 0 0 1-.456 1.284c-.288.384-.688.696-1.2.936-.504.24-1.084.36-1.74.36-1.016 0-1.816-.256-2.4-.768-.576-.512-.864-1.284-.864-2.316v-6.672c0-.2-.04-.348-.12-.444-.08-.096-.212-.176-.396-.24Zm2.544 0 .012-1.128h3.948c.176 0 .316.036.42.108a.356.356 0 0 1 .156.312c0 .2-.1.368-.3.504-.2.136-.524.204-.972.204h-3.264Zm-145.38 31.872c0 .456-.156.84-.468 1.152-.312.304-.732.456-1.26.456-.512 0-.904-.14-1.176-.42-.264-.288-.396-.664-.396-1.128v-.408c0-.544-.164-.98-.492-1.308-.328-.328-.776-.492-1.344-.492-.504 0-.956.152-1.356.456-.392.304-.704.74-.936 1.308-.232.568-.348 1.252-.348 2.052 0 1.008.168 1.86.504 2.556.344.688.812 1.212 1.404 1.572.6.352 1.28.528 2.04.528.68 0 1.276-.14 1.788-.42.512-.28.912-.68 1.2-1.2.136-.152.244-.252.324-.3a.433.433 0 0 1 .252-.084c.12 0 .204.056.252.168a.802.802 0 0 1 .084.384 3.394 3.394 0 0 1-.732 1.872c-.432.568-1.016 1.02-1.752 1.356-.736.336-1.58.504-2.532.504-1.136 0-2.148-.232-3.036-.696a5.235 5.235 0 0 1-2.076-1.992c-.504-.856-.756-1.86-.756-3.012 0-1.168.252-2.22.756-3.156a5.667 5.667 0 0 1 2.124-2.22c.92-.544 1.996-.816 3.228-.816.968 0 1.804.152 2.508.456.704.296 1.244.696 1.62 1.2.384.496.576 1.04.576 1.632Zm7.922-3.276c1.224 0 2.3.252 3.228.756a5.487 5.487 0 0 1 2.172 2.1c.528.896.792 1.932.792 3.108 0 1.128-.268 2.14-.804 3.036-.536.888-1.28 1.592-2.232 2.112-.944.512-2.036.768-3.276.768-1.224 0-2.3-.252-3.228-.756a5.57 5.57 0 0 1-2.184-2.1c-.52-.904-.78-1.94-.78-3.108 0-1.136.268-2.148.804-3.036a5.699 5.699 0 0 1 2.22-2.112c.952-.512 2.048-.768 3.288-.768Zm.84 10.692c.544-.088.98-.34 1.308-.756.328-.416.536-.992.624-1.728.096-.744.048-1.636-.144-2.676-.176-1.04-.44-1.896-.792-2.568-.344-.672-.756-1.156-1.236-1.452a2.174 2.174 0 0 0-1.56-.324c-.544.088-.98.344-1.308.768-.328.416-.536.992-.624 1.728-.088.736-.04 1.628.144 2.676.184 1.032.448 1.884.792 2.556.352.672.764 1.16 1.236 1.464.48.296 1 .4 1.56.312Zm11.791-16.212v15.252c0 .24.032.42.096.54a.54.54 0 0 0 .324.228l.468.12a.73.73 0 0 1 .324.204c.072.08.108.176.108.288a.447.447 0 0 1-.156.36c-.104.08-.264.12-.48.12h-4.728c-.216 0-.376-.04-.48-.12a.464.464 0 0 1-.144-.36c0-.112.032-.208.096-.288a.745.745 0 0 1 .336-.192l.48-.132a.552.552 0 0 0 .3-.228c.072-.112.108-.288.108-.528v-13.284c0-.2-.032-.34-.096-.42a.394.394 0 0 0-.276-.168l-.648-.048a.505.505 0 0 1-.3-.144.417.417 0 0 1-.084-.264c0-.128.036-.228.108-.3.072-.08.212-.16.42-.24l2.304-.816c.296-.112.532-.192.708-.24.176-.048.328-.072.456-.072.256 0 .444.068.564.204a.74.74 0 0 1 .192.528Zm7.829 0v15.252c0 .24.032.42.096.54a.54.54 0 0 0 .324.228l.468.12a.73.73 0 0 1 .324.204c.072.08.108.176.108.288a.447.447 0 0 1-.156.36c-.104.08-.264.12-.48.12h-4.728c-.216 0-.376-.04-.48-.12a.464.464 0 0 1-.144-.36c0-.112.032-.208.096-.288a.745.745 0 0 1 .336-.192l.48-.132a.552.552 0 0 0 .3-.228c.072-.112.108-.288.108-.528v-13.284c0-.2-.032-.34-.096-.42a.394.394 0 0 0-.276-.168l-.648-.048a.505.505 0 0 1-.3-.144.417.417 0 0 1-.084-.264c0-.128.036-.228.108-.3.072-.08.212-.16.42-.24l2.304-.816c.296-.112.532-.192.708-.24.176-.048.328-.072.456-.072.256 0 .444.068.564.204a.74.74 0 0 1 .192.528Zm13.834 10.068c0 .408-.116.72-.348.936-.232.216-.568.324-1.008.324h-7.488v-.876h4.896c.392 0 .588-.176.588-.528 0-1.08-.192-1.896-.576-2.448-.384-.552-.896-.828-1.536-.828-.496 0-.936.152-1.32.456-.376.296-.672.732-.888 1.308-.216.568-.324 1.252-.324 2.052 0 1.56.36 2.728 1.08 3.504.728.776 1.692 1.164 2.892 1.164.712 0 1.336-.144 1.872-.432a2.987 2.987 0 0 0 1.224-1.236 2.16 2.16 0 0 1 .324-.312.433.433 0 0 1 .252-.084c.12 0 .208.056.264.168.056.112.08.244.072.396-.032.68-.272 1.308-.72 1.884-.44.576-1.04 1.036-1.8 1.38-.752.336-1.62.504-2.604.504-1.144 0-2.16-.236-3.048-.708a5.215 5.215 0 0 1-2.088-1.992c-.504-.856-.756-1.856-.756-3 0-1.208.24-2.276.72-3.204a5.405 5.405 0 0 1 2.076-2.184c.896-.536 1.968-.804 3.216-.804 1.056 0 1.96.196 2.712.588.752.392 1.324.932 1.716 1.62.4.68.6 1.464.6 2.352Zm9.32 5.976c-1.096-.16-1.892-.304-2.388-.432s-.808-.248-.936-.36c-.128-.12-.192-.24-.192-.36 0-.128.052-.248.156-.36.104-.112.276-.22.516-.324l-.24-.192c-.792.08-1.416.228-1.872.444-.448.208-.768.46-.96.756a1.765 1.765 0 0 0-.276.948c0 .384.112.712.336.984.232.272.66.512 1.284.72.624.216 1.528.412 2.712.588.976.152 1.732.308 2.268.468.544.168.924.356 1.14.564a.997.997 0 0 1 .324.744c0 .352-.116.652-.348.9-.224.256-.58.452-1.068.588-.488.136-1.132.204-1.932.204-1.392 0-2.376-.216-2.952-.648-.576-.424-.864-.988-.864-1.692 0-.368.156-.704.468-1.008.32-.304.78-.504 1.38-.6l-.18-.348c-1.584.192-2.684.532-3.3 1.02-.608.488-.912 1.044-.912 1.668 0 .52.184.98.552 1.38.376.4.988.716 1.836.948.856.232 2.004.348 3.444.348 2.2 0 3.884-.348 5.052-1.044 1.168-.696 1.752-1.592 1.752-2.688 0-.592-.152-1.1-.456-1.524-.304-.416-.808-.76-1.512-1.032-.696-.28-1.64-.5-2.832-.66Zm.276-9.312.756.096c.28-.568.516-.952.708-1.152.2-.2.424-.3.672-.3.232 0 .412.06.54.18.136.12.256.256.36.408.104.152.228.288.372.408.152.12.356.18.612.18.36 0 .648-.132.864-.396.216-.264.324-.616.324-1.056 0-.496-.16-.884-.48-1.164-.312-.288-.724-.432-1.236-.432-.608 0-1.184.204-1.728.612-.536.4-.992 1.004-1.368 1.812l-.396.804Zm3.54 3.108a3.8 3.8 0 0 0-.66-2.184c-.44-.648-1.068-1.16-1.884-1.536-.808-.376-1.776-.564-2.904-.564-1.168 0-2.188.196-3.06.588-.872.384-1.548.928-2.028 1.632-.472.696-.708 1.504-.708 2.424 0 .8.22 1.524.66 2.172.44.648 1.068 1.16 1.884 1.536.824.376 1.8.564 2.928.564 1.16 0 2.172-.192 3.036-.576.864-.392 1.536-.936 2.016-1.632.48-.704.72-1.512.72-2.424Zm-6.06-3.3c.68-.048 1.24.228 1.68.828.448.592.736 1.452.864 2.58.12 1.096.032 1.944-.264 2.544-.288.592-.76.908-1.416.948a1.808 1.808 0 0 1-1.212-.336c-.352-.256-.64-.644-.864-1.164-.224-.52-.38-1.156-.468-1.908-.08-.728-.068-1.348.036-1.86.104-.512.296-.904.576-1.176.28-.28.636-.432 1.068-.456Zm19.338 3.528c0 .408-.116.72-.348.936-.232.216-.568.324-1.008.324h-7.488v-.876h4.896c.392 0 .588-.176.588-.528 0-1.08-.192-1.896-.576-2.448-.384-.552-.896-.828-1.536-.828-.496 0-.936.152-1.32.456-.376.296-.672.732-.888 1.308-.216.568-.324 1.252-.324 2.052 0 1.56.36 2.728 1.08 3.504.728.776 1.692 1.164 2.892 1.164.712 0 1.336-.144 1.872-.432a2.987 2.987 0 0 0 1.224-1.236 2.16 2.16 0 0 1 .324-.312.433.433 0 0 1 .252-.084c.12 0 .208.056.264.168.056.112.08.244.072.396-.032.68-.272 1.308-.72 1.884-.44.576-1.04 1.036-1.8 1.38-.752.336-1.62.504-2.604.504-1.144 0-2.16-.236-3.048-.708a5.215 5.215 0 0 1-2.088-1.992c-.504-.856-.756-1.856-.756-3 0-1.208.24-2.276.72-3.204a5.405 5.405 0 0 1 2.076-2.184c.896-.536 1.968-.804 3.216-.804 1.056 0 1.96.196 2.712.588.752.392 1.324.932 1.716 1.62.4.68.6 1.464.6 2.352Zm4.016 7.308c-.384 0-.736-.1-1.056-.3-.32-.2-.576-.464-.768-.792a2.147 2.147 0 0 1-.276-1.068c0-.392.092-.748.276-1.068.192-.328.448-.588.768-.78.32-.192.672-.288 1.056-.288a2.058 2.058 0 0 1 1.836 1.068c.184.32.276.676.276 1.068a2.175 2.175 0 0 1-1.032 1.86c-.32.2-.68.3-1.08.3Z" fill="#1E1E1E"/></svg>